<svg xmlns="http://www.w3.org/2000/svg" xmlns:xlink="http://www.w3.org/1999/xlink" width="1052" zoomAndPan="magnify" viewBox="0 0 788.88 636.749998" height="849" preserveAspectRatio="xMidYMid meet" version="1.0"><defs><g/><clipPath id="daa990d0fc"><path d="M 30.832031 20.992188 L 759.546875 20.992188 L 759.546875 91.191406 L 30.832031 91.191406 Z M 30.832031 20.992188 " clip-rule="nonzero"/></clipPath><clipPath id="10ab9a7753"><path d="M 0.65625 20.992188 L 69.683594 20.992188 L 69.683594 91.191406 L 0.65625 91.191406 Z M 0.65625 20.992188 " clip-rule="nonzero"/></clipPath><clipPath id="bf1702ac9a"><path d="M 35.171875 20.992188 C 16.109375 20.992188 0.65625 36.707031 0.65625 56.089844 C 0.65625 75.476562 16.109375 91.191406 35.171875 91.191406 C 54.230469 91.191406 69.683594 75.476562 69.683594 56.089844 C 69.683594 36.707031 54.230469 20.992188 35.171875 20.992188 Z M 35.171875 20.992188 " clip-rule="nonzero"/></clipPath><clipPath id="e3d32e71ec"><path d="M 719.0625 20.992188 L 788.089844 20.992188 L 788.089844 91.191406 L 719.0625 91.191406 Z M 719.0625 20.992188 " clip-rule="nonzero"/></clipPath><clipPath id="ebed537e0f"><path d="M 753.578125 20.992188 C 734.515625 20.992188 719.0625 36.707031 719.0625 56.089844 C 719.0625 75.476562 734.515625 91.191406 753.578125 91.191406 C 772.636719 91.191406 788.089844 75.476562 788.089844 56.089844 C 788.089844 36.707031 772.636719 20.992188 753.578125 20.992188 Z M 753.578125 20.992188 " clip-rule="nonzero"/></clipPath><clipPath id="affe01fbe9"><path d="M 304 119.371094 L 455 119.371094 L 455 338 L 304 338 Z M 304 119.371094 " clip-rule="nonzero"/></clipPath><clipPath id="f11df1cb09"><path d="M 555 336 L 670.671875 336 L 670.671875 590 L 555 590 Z M 555 336 " clip-rule="nonzero"/></clipPath></defs><g clip-path="url(#daa990d0fc)"><path fill="#ffffff" d="M 30.832031 20.992188 L 759.546875 20.992188 L 759.546875 91.191406 L 30.832031 91.191406 Z M 30.832031 20.992188 " fill-opacity="1" fill-rule="nonzero"/></g><g clip-path="url(#10ab9a7753)"><g clip-path="url(#bf1702ac9a)"><path fill="#ffffff" d="M 0.65625 20.992188 L 69.683594 20.992188 L 69.683594 91.191406 L 0.65625 91.191406 Z M 0.65625 20.992188 " fill-opacity="1" fill-rule="nonzero"/></g></g><g clip-path="url(#e3d32e71ec)"><g clip-path="url(#ebed537e0f)"><path fill="#ffffff" d="M 719.0625 20.992188 L 788.089844 20.992188 L 788.089844 91.191406 L 719.0625 91.191406 Z M 719.0625 20.992188 " fill-opacity="1" fill-rule="nonzero"/></g></g><g fill="#2ec4b6" fill-opacity="1"><g transform="translate(308.573872, 77.832296)"><g><path d="M 29.265625 -22.9375 C 31.347656 -22.101562 33.050781 -20.835938 34.375 -19.140625 C 35.695312 -17.453125 36.359375 -15.269531 36.359375 -12.59375 C 36.359375 -7.90625 35.015625 -4.632812 32.328125 -2.78125 C 29.648438 -0.925781 26.457031 0 22.75 0 L 8.03125 0 C 7.007812 0 6.15625 -0.34375 5.46875 -1.03125 C 4.78125 -1.71875 4.4375 -2.578125 4.4375 -3.609375 L 4.4375 -37.765625 C 4.4375 -38.796875 4.78125 -39.65625 5.46875 -40.34375 C 6.15625 -41.03125 7.007812 -41.375 8.03125 -41.375 L 22.9375 -41.375 C 30.425781 -41.375 34.171875 -37.867188 34.171875 -30.859375 C 34.171875 -29.078125 33.742188 -27.503906 32.890625 -26.140625 C 32.046875 -24.785156 30.835938 -23.71875 29.265625 -22.9375 Z M 26.484375 -29.5625 C 26.484375 -31.175781 26.078125 -32.382812 25.265625 -33.1875 C 24.460938 -34 23.332031 -34.40625 21.875 -34.40625 L 12.125 -34.40625 L 12.125 -25.1875 L 22.046875 -25.1875 C 23.234375 -25.1875 24.269531 -25.578125 25.15625 -26.359375 C 26.039062 -27.148438 26.484375 -28.21875 26.484375 -29.5625 Z M 22.75 -6.796875 C 24.601562 -6.796875 26.050781 -7.285156 27.09375 -8.265625 C 28.144531 -9.253906 28.671875 -10.695312 28.671875 -12.59375 C 28.671875 -14.914062 28.054688 -16.429688 26.828125 -17.140625 C 25.609375 -17.847656 24.113281 -18.203125 22.34375 -18.203125 L 12.125 -18.203125 L 12.125 -6.796875 Z M 22.75 -6.796875 "/></g></g></g><g fill="#2ec4b6" fill-opacity="1"><g transform="translate(351.902134, 77.832296)"><g><path d="M 36.890625 -4.609375 C 37.085938 -4.097656 37.1875 -3.625 37.1875 -3.1875 C 37.1875 -2.164062 36.847656 -1.328125 36.171875 -0.671875 C 35.503906 -0.0234375 34.738281 0.296875 33.875 0.296875 C 33.164062 0.296875 32.523438 0.0820312 31.953125 -0.34375 C 31.378906 -0.78125 30.9375 -1.375 30.625 -2.125 L 27.546875 -9.28125 L 9.9375 -9.28125 L 6.859375 -2.0625 C 6.578125 -1.320312 6.148438 -0.742188 5.578125 -0.328125 C 5.015625 0.0859375 4.394531 0.296875 3.71875 0.296875 C 2.695312 0.296875 1.921875 0.0195312 1.390625 -0.53125 C 0.859375 -1.082031 0.59375 -1.832031 0.59375 -2.78125 C 0.59375 -3.132812 0.648438 -3.507812 0.765625 -3.90625 L 15.484375 -39.25 C 15.796875 -40.039062 16.265625 -40.648438 16.890625 -41.078125 C 17.523438 -41.515625 18.238281 -41.691406 19.03125 -41.609375 C 19.738281 -41.609375 20.394531 -41.398438 21 -40.984375 C 21.613281 -40.578125 22.0625 -40 22.34375 -39.25 Z M 12.828125 -16.078125 L 24.65625 -16.078125 L 18.671875 -29.90625 Z M 12.828125 -16.078125 "/></g></g></g><g fill="#2ec4b6" fill-opacity="1"><g transform="translate(394.284639, 77.832296)"><g><path d="M 35.828125 -41.375 C 36.765625 -41.375 37.53125 -41.054688 38.125 -40.421875 C 38.71875 -39.796875 39.015625 -39.007812 39.015625 -38.0625 L 39.015625 -3.609375 C 39.015625 -2.578125 38.664062 -1.71875 37.96875 -1.03125 C 37.28125 -0.34375 36.425781 0 35.40625 0 C 34.851562 0 34.3125 -0.0859375 33.78125 -0.265625 C 33.25 -0.441406 32.863281 -0.6875 32.625 -1 L 10.9375 -28.546875 L 10.9375 -3.3125 C 10.9375 -2.363281 10.628906 -1.570312 10.015625 -0.9375 C 9.410156 -0.3125 8.613281 0 7.625 0 C 6.675781 0 5.90625 -0.3125 5.3125 -0.9375 C 4.726562 -1.570312 4.4375 -2.363281 4.4375 -3.3125 L 4.4375 -37.765625 C 4.4375 -38.796875 4.78125 -39.65625 5.46875 -40.34375 C 6.15625 -41.03125 7.007812 -41.375 8.03125 -41.375 C 8.625 -41.375 9.207031 -41.253906 9.78125 -41.015625 C 10.351562 -40.785156 10.773438 -40.472656 11.046875 -40.078125 L 32.5625 -12.65625 L 32.5625 -38.0625 C 32.5625 -39.007812 32.867188 -39.796875 33.484375 -40.421875 C 34.097656 -41.054688 34.878906 -41.375 35.828125 -41.375 Z M 13.765625 -43.5 C 12.859375 -43.5 12.085938 -43.882812 11.453125 -44.65625 C 10.828125 -45.425781 10.515625 -46.441406 10.515625 -47.703125 C 10.515625 -49.046875 11.101562 -50.25 12.28125 -51.3125 C 13.46875 -52.375 15.066406 -52.90625 17.078125 -52.90625 C 18.097656 -52.90625 19.0625 -52.707031 19.96875 -52.3125 C 20.875 -51.914062 21.941406 -51.363281 23.171875 -50.65625 C 23.992188 -50.1875 24.648438 -49.832031 25.140625 -49.59375 C 25.640625 -49.351562 26.085938 -49.234375 26.484375 -49.234375 C 26.910156 -49.234375 27.242188 -49.351562 27.484375 -49.59375 C 27.722656 -49.832031 27.78125 -50.128906 27.65625 -50.484375 C 27.582031 -50.679688 27.546875 -50.957031 27.546875 -51.3125 C 27.546875 -51.9375 27.75 -52.4375 28.15625 -52.8125 C 28.570312 -53.1875 29.097656 -53.375 29.734375 -53.375 C 30.640625 -53.375 31.40625 -52.988281 32.03125 -52.21875 C 32.664062 -51.457031 32.984375 -50.484375 32.984375 -49.296875 C 32.984375 -48.546875 32.765625 -47.753906 32.328125 -46.921875 C 31.890625 -46.097656 31.25 -45.398438 30.40625 -44.828125 C 29.5625 -44.265625 28.546875 -43.984375 27.359375 -43.984375 C 26.222656 -43.984375 25.160156 -44.175781 24.171875 -44.5625 C 23.179688 -44.957031 21.941406 -45.53125 20.453125 -46.28125 C 19.578125 -46.75 18.882812 -47.09375 18.375 -47.3125 C 17.863281 -47.53125 17.410156 -47.640625 17.015625 -47.640625 C 16.585938 -47.640625 16.253906 -47.519531 16.015625 -47.28125 C 15.773438 -47.050781 15.71875 -46.757812 15.84375 -46.40625 C 15.914062 -46.207031 15.953125 -45.929688 15.953125 -45.578125 C 15.953125 -44.941406 15.742188 -44.4375 15.328125 -44.0625 C 14.921875 -43.6875 14.398438 -43.5 13.765625 -43.5 Z M 13.765625 -43.5 "/></g></g></g><g fill="#2ec4b6" fill-opacity="1"><g transform="translate(442.341666, 77.832296)"><g><path d="M 42.5 -20.6875 C 42.5 -16.789062 41.628906 -13.210938 39.890625 -9.953125 C 38.160156 -6.703125 35.769531 -4.128906 32.71875 -2.234375 C 29.664062 -0.347656 26.226562 0.59375 22.40625 0.59375 C 18.582031 0.59375 15.140625 -0.347656 12.078125 -2.234375 C 9.023438 -4.128906 6.640625 -6.703125 4.921875 -9.953125 C 3.210938 -13.210938 2.359375 -16.789062 2.359375 -20.6875 C 2.359375 -24.59375 3.210938 -28.171875 4.921875 -31.421875 C 6.640625 -34.671875 9.023438 -37.238281 12.078125 -39.125 C 15.140625 -41.019531 18.582031 -41.96875 22.40625 -41.96875 C 26.226562 -41.96875 29.664062 -41.019531 32.71875 -39.125 C 35.769531 -37.238281 38.160156 -34.671875 39.890625 -31.421875 C 41.628906 -28.171875 42.5 -24.59375 42.5 -20.6875 Z M 34.8125 -20.6875 C 34.8125 -23.332031 34.28125 -25.726562 33.21875 -27.875 C 32.15625 -30.019531 30.675781 -31.722656 28.78125 -32.984375 C 26.894531 -34.242188 24.769531 -34.875 22.40625 -34.875 C 20 -34.875 17.859375 -34.253906 15.984375 -33.015625 C 14.117188 -31.773438 12.660156 -30.070312 11.609375 -27.90625 C 10.566406 -25.738281 10.046875 -23.332031 10.046875 -20.6875 C 10.046875 -18.050781 10.566406 -15.644531 11.609375 -13.46875 C 12.660156 -11.300781 14.117188 -9.597656 15.984375 -8.359375 C 17.859375 -7.117188 20 -6.5 22.40625 -6.5 C 24.769531 -6.5 26.894531 -7.128906 28.78125 -8.390625 C 30.675781 -9.648438 32.15625 -11.351562 33.21875 -13.5 C 34.28125 -15.65625 34.8125 -18.050781 34.8125 -20.6875 Z M 34.8125 -20.6875 "/></g></g></g><path fill="#62c9f5" d="M 356.085938 631.261719 L 403.15625 631.261719 L 420.089844 420.21875 L 339.152344 420.21875 Z M 356.085938 631.261719 " fill-opacity="1" fill-rule="nonzero"/><path fill="#62c9f5" d="M 283.058594 373.339844 L 283.058594 373.320312 L 476.183594 373.320312 L 476.183594 373.339844 C 476.183594 407.503906 448.507812 435.199219 414.367188 435.199219 L 344.875 435.199219 C 310.738281 435.199219 283.058594 407.503906 283.058594 373.339844 " fill-opacity="1" fill-rule="nonzero"/><path fill="#62c9f5" d="M 279.613281 373.074219 L 279.613281 369.605469 C 279.613281 367.550781 281.277344 365.886719 283.328125 365.886719 L 475.914062 365.886719 C 477.964844 365.886719 479.628906 367.550781 479.628906 369.605469 L 479.628906 373.074219 C 479.628906 375.128906 477.96875 376.792969 475.914062 376.792969 L 283.328125 376.792969 C 281.277344 376.792969 279.613281 375.128906 279.613281 373.074219 " fill-opacity="1" fill-rule="nonzero"/><path fill="#fcfcf0" d="M 473.988281 377.179688 L 285.257812 377.179688 C 285.042969 377.179688 284.867188 377.007812 284.867188 376.792969 C 284.867188 376.578125 285.042969 376.402344 285.257812 376.402344 L 473.988281 376.402344 C 474.203125 376.402344 474.375 376.578125 474.375 376.792969 C 474.375 377.003906 474.203125 377.179688 473.988281 377.179688 Z M 473.988281 377.179688 " fill-opacity="1" fill-rule="nonzero"/><path fill="#fcfcf0" d="M 415.8125 435.585938 L 343.433594 435.585938 C 343.21875 435.585938 343.042969 435.414062 343.042969 435.199219 C 343.042969 434.984375 343.21875 434.808594 343.433594 434.808594 L 415.8125 434.808594 C 416.023438 434.808594 416.199219 434.984375 416.199219 435.199219 C 416.199219 435.414062 416.027344 435.585938 415.8125 435.585938 Z M 415.8125 435.585938 " fill-opacity="1" fill-rule="nonzero"/><g clip-path="url(#affe01fbe9)"><path fill="#62c9f5" d="M 304.90625 228.421875 C 304.90625 168.398438 338.359375 119.738281 379.621094 119.738281 C 420.886719 119.738281 454.335938 168.398438 454.335938 228.421875 C 454.335938 288.445312 420.886719 337.105469 379.621094 337.105469 C 338.359375 337.105469 304.90625 288.445312 304.90625 228.421875 " fill-opacity="1" fill-rule="nonzero"/></g><path fill="#fcfcf0" d="M 311.601562 228.421875 C 311.601562 172.082031 342.054688 126.40625 379.621094 126.40625 C 417.1875 126.40625 447.640625 172.082031 447.640625 228.421875 C 447.640625 284.765625 417.1875 330.441406 379.621094 330.441406 C 342.054688 330.441406 311.601562 284.765625 311.601562 228.421875 " fill-opacity="1" fill-rule="nonzero"/><path fill="#ab442c" d="M 552.734375 626.25 C 553.074219 626.074219 551.605469 614.5625 552.015625 613.21875 C 556.988281 596.9375 570.289062 544.316406 563.589844 516.457031 C 562.023438 509.9375 559.550781 503.617188 558.761719 496.945312 C 555.335938 467.828125 582.226562 432.039062 585.246094 384.207031 C 586.410156 365.730469 541.921875 350.371094 539.03125 364.632812 C 535.117188 383.933594 529.835938 447.164062 528.738281 480.035156 C 527.449219 518.558594 534.046875 572.796875 527.292969 611.597656 C 527.292969 611.597656 500.542969 619.351562 502.015625 626.171875 C 502.761719 629.621094 548.339844 628.535156 552.734375 626.25 " fill-opacity="1" fill-rule="nonzero"/><path fill="#ab442c" d="M 552.734375 626.25 C 553.074219 626.074219 551.605469 614.5625 552.015625 613.21875 C 556.988281 596.9375 570.289062 544.316406 563.589844 516.457031 C 562.023438 509.9375 559.550781 503.617188 558.761719 496.945312 C 555.335938 467.828125 582.226562 432.039062 585.246094 384.207031 C 586.410156 365.730469 541.921875 350.371094 539.03125 364.632812 C 535.117188 383.933594 529.835938 447.164062 528.738281 480.035156 C 527.449219 518.558594 534.046875 572.796875 527.292969 611.597656 C 527.292969 611.597656 500.542969 619.351562 502.015625 626.171875 C 502.761719 629.621094 548.339844 628.535156 552.734375 626.25 " fill-opacity="1" fill-rule="nonzero"/><path fill="#f5d562" d="M 555.414062 627.914062 L 553.625 615.984375 C 553.53125 615.332031 552.921875 614.894531 552.277344 615.007812 C 549.652344 615.472656 533.058594 620.589844 533.058594 620.589844 C 533.058594 620.589844 529.230469 611.835938 526.691406 608.273438 C 525.765625 606.976562 524.011719 606.585938 522.65625 607.421875 C 514.597656 612.414062 508.945312 612.582031 499.105469 615.984375 C 493.308594 617.992188 492.222656 623.871094 491.730469 628.015625 Z M 555.414062 627.914062 " fill-opacity="1" fill-rule="nonzero"/><path fill="#fcfcf0" d="M 491.726562 628.015625 C 491.527344 629.707031 492.859375 631.191406 494.5625 631.191406 L 552.589844 631.191406 C 554.332031 631.191406 555.667969 629.636719 555.410156 627.910156 L 555.230469 626.703125 L 491.90625 626.703125 C 491.835938 627.160156 491.777344 627.605469 491.726562 628.015625 " fill-opacity="1" fill-rule="nonzero"/><path fill="#fcfcf0" d="M 505.417969 620.308594 C 505.261719 620.308594 505.113281 620.210938 505.054688 620.054688 L 503.339844 615.375 C 503.265625 615.171875 503.371094 614.949219 503.570312 614.875 C 503.773438 614.800781 504 614.902344 504.070312 615.105469 L 505.65625 619.4375 L 527.015625 612.617188 C 527.222656 612.554688 527.4375 612.667969 527.503906 612.871094 C 527.570312 613.074219 527.457031 613.296875 527.25 613.359375 L 505.539062 620.289062 C 505.5 620.304688 505.460938 620.308594 505.417969 620.308594 Z M 505.417969 620.308594 " fill-opacity="1" fill-rule="nonzero"/><path fill="#ab442c" d="M 664.289062 610.214844 C 664.628906 610.042969 657.554688 598.980469 657.21875 597.617188 C 653.328125 581.890625 645.117188 528.847656 629.734375 504.679688 C 626.136719 499.023438 621.738281 493.851562 618.832031 487.796875 C 606.132812 461.375 626.945312 416.449219 614.265625 370.230469 C 609.371094 352.375 562.304688 352.320312 564.203125 366.746094 C 566.769531 386.273438 575.304688 450.125 584.945312 481.566406 C 596.238281 518.417969 621.902344 566.90625 633.308594 604.121094 C 633.308594 604.121094 609.386719 623.875 614.316406 628.8125 C 617.066406 631.5625 658.410156 613.179688 664.289062 610.214844 " fill-opacity="1" fill-rule="nonzero"/><path fill="#f5d562" d="M 666.167969 610.585938 L 660.1875 600.113281 C 659.859375 599.542969 659.136719 599.355469 658.574219 599.695312 C 656.296875 601.082031 642.679688 611.863281 642.679688 611.863281 C 642.679688 611.863281 635.945312 605.089844 632.289062 602.691406 C 630.957031 601.816406 629.179688 602.085938 628.222656 603.359375 C 622.515625 610.929688 617.308594 613.136719 609.367188 619.875 C 604.6875 623.84375 605.804688 629.722656 606.84375 633.761719 Z M 666.167969 610.585938 " fill-opacity="1" fill-rule="nonzero"/><path fill="#fcfcf0" d="M 606.84375 633.761719 C 607.269531 635.410156 609.050781 636.308594 610.636719 635.691406 L 664.726562 614.664062 C 666.351562 614.035156 667.035156 612.105469 666.167969 610.589844 L 665.5625 609.527344 L 606.539062 632.472656 C 606.636719 632.925781 606.742188 633.359375 606.84375 633.761719 " fill-opacity="1" fill-rule="nonzero"/><path fill="#fcfcf0" d="M 616.675781 621.640625 C 616.570312 621.640625 616.460938 621.59375 616.386719 621.507812 L 613.09375 617.765625 C 612.953125 617.605469 612.96875 617.359375 613.128906 617.21875 C 613.289062 617.074219 613.535156 617.089844 613.675781 617.253906 L 616.722656 620.714844 L 634.164062 606.621094 C 634.332031 606.484375 634.578125 606.511719 634.710938 606.675781 C 634.847656 606.84375 634.820312 607.089844 634.65625 607.226562 L 616.921875 621.554688 C 616.847656 621.613281 616.761719 621.640625 616.675781 621.640625 Z M 616.675781 621.640625 " fill-opacity="1" fill-rule="nonzero"/><path fill="#f5d562" d="M 557.375 471.292969 C 559.535156 471.292969 590.652344 471.609375 590.652344 471.609375 L 576.167969 428.558594 C 576.167969 428.558594 564.144531 458.773438 557.375 471.292969 " fill-opacity="1" fill-rule="nonzero"/><path fill="#62c9f5" d="M 536.359375 342.804688 C 527.773438 383.484375 517.863281 433.21875 517.636719 479.238281 C 517.460938 514.351562 508.234375 585.835938 508.234375 585.835938 C 508.234375 585.835938 548.726562 593.460938 573.046875 590.632812 C 575.632812 566.644531 570.648438 544.679688 570.292969 532.53125 C 569.566406 507.820312 561.144531 495.527344 563.230469 480.773438 C 565.984375 461.285156 587.496094 424.765625 587.566406 391.175781 C 587.597656 374.964844 579.84375 344.570312 579.84375 344.570312 C 579.84375 344.570312 536.136719 342.675781 536.359375 342.804688 " fill-opacity="1" fill-rule="nonzero"/><path fill="#3d251c" d="M 516.757812 173.707031 C 510.652344 176.261719 503.265625 183.34375 505.769531 188.507812 C 506.390625 189.789062 507.625 190.816406 507.777344 192.234375 C 507.917969 193.53125 507.097656 194.71875 506.816406 195.996094 C 506.234375 198.609375 508.066406 201.28125 510.425781 202.542969 C 512.785156 203.808594 518.921875 203.945312 521.382812 202.738281 C 527.351562 199.816406 535.480469 188.574219 531.9375 178.335938 C 530.847656 175.175781 523.519531 170.878906 516.757812 173.707031 " fill-opacity="1" fill-rule="nonzero"/><g clip-path="url(#f11df1cb09)"><path fill="#62c9f5" d="M 555.585938 349.347656 C 561.070312 393.773438 566.453125 448.429688 582.667969 495.097656 C 593 524.847656 612.574219 589.417969 613.863281 589.796875 C 614.699219 590.042969 663.144531 582.984375 670.671875 575.453125 C 665.519531 549.472656 652.945312 526.546875 648.144531 514.8125 C 639.5625 493.828125 628.503906 485.089844 625.808594 471.09375 C 622.082031 451.769531 630.566406 410.230469 619.722656 378.445312 C 614.488281 363.101562 597.285156 336.878906 597.285156 336.878906 C 597.285156 336.878906 555.335938 349.300781 555.585938 349.347656 " fill-opacity="1" fill-rule="nonzero"/></g><path fill="#ab442c" d="M 512.527344 212.449219 C 512.875 205.132812 510.578125 196.921875 516.15625 189.667969 C 526.492188 176.222656 542.183594 179.976562 548.214844 192.789062 C 551.976562 200.773438 553.402344 213.582031 547.828125 222.660156 C 542.769531 230.902344 529.542969 239.019531 520.441406 236.84375 C 514.984375 235.542969 511.894531 225.652344 512.527344 212.449219 " fill-opacity="1" fill-rule="nonzero"/><path fill="#ab442c" d="M 534.644531 222.53125 C 535.027344 224.667969 538.847656 244.167969 539.667969 255.609375 C 547.996094 253.5625 561.042969 249.785156 568.710938 245 C 561.765625 237.289062 556.4375 218.046875 555.683594 206.148438 C 554.269531 207.273438 535.917969 221.390625 534.644531 222.53125 " fill-opacity="1" fill-rule="nonzero"/><path fill="#3d251c" d="M 519.726562 204.898438 C 520.8125 205.066406 521.082031 206.621094 521.042969 207.589844 C 521.011719 208.292969 520.675781 210.023438 519.496094 209.839844 C 518.355469 209.65625 517.949219 208.632812 518.101562 206.832031 C 518.253906 205.007812 519.296875 204.832031 519.726562 204.898438 " fill-opacity="1" fill-rule="nonzero"/><path fill="#3d251c" d="M 519.667969 210.242188 C 519.59375 210.242188 519.515625 210.234375 519.4375 210.222656 C 517.449219 209.90625 517.648438 207.570312 517.710938 206.800781 C 517.855469 205.101562 518.765625 204.496094 519.574219 204.496094 C 519.652344 204.496094 519.722656 204.503906 519.785156 204.511719 C 521.179688 204.726562 521.476562 206.558594 521.429688 207.605469 C 521.390625 208.515625 520.972656 210.242188 519.667969 210.242188 Z M 519.570312 205.277344 C 519.285156 205.277344 518.609375 205.433594 518.488281 206.867188 C 518.308594 208.980469 518.964844 209.359375 519.558594 209.453125 C 520.324219 209.574219 520.621094 208.222656 520.648438 207.570312 C 520.6875 206.71875 520.457031 205.40625 519.664062 205.285156 C 519.636719 205.28125 519.605469 205.277344 519.570312 205.277344 Z M 519.570312 205.277344 " fill-opacity="1" fill-rule="nonzero"/><path fill="#ab442c" d="M 523.972656 206.601562 C 522.050781 207.332031 519.269531 207.734375 516.515625 207.136719 C 516.515625 207.136719 515.546875 202.792969 519.472656 202.515625 C 522.867188 202.28125 523.972656 206.601562 523.972656 206.601562 " fill-opacity="1" fill-rule="nonzero"/><path fill="#3d251c" d="M 518.894531 207.675781 C 517.992188 207.675781 517.152344 207.617188 516.460938 207.523438 C 516.25 207.492188 516.097656 207.296875 516.128906 207.085938 C 516.15625 206.871094 516.355469 206.726562 516.566406 206.75 C 518.476562 207.015625 521.570312 206.964844 523.851562 206.226562 C 524.054688 206.164062 524.273438 206.273438 524.339844 206.480469 C 524.40625 206.683594 524.292969 206.902344 524.089844 206.96875 C 522.523438 207.476562 520.597656 207.675781 518.894531 207.675781 Z M 518.894531 207.675781 " fill-opacity="1" fill-rule="nonzero"/><path fill="#3d251c" d="M 525.835938 202.832031 C 520.078125 202.21875 515.132812 203.765625 515.132812 203.765625 C 515.132812 203.765625 514.824219 202.058594 515.457031 201.800781 C 520.554688 199.726562 524.296875 201.699219 525.835938 202.832031 " fill-opacity="1" fill-rule="nonzero"/><path fill="#3d251c" d="M 516.117188 225.863281 C 515.773438 225.863281 515.480469 225.8125 515.277344 225.707031 C 515.085938 225.605469 515.011719 225.371094 515.109375 225.183594 C 515.207031 224.992188 515.441406 224.914062 515.632812 225.015625 C 515.851562 225.128906 516.59375 225.140625 517.554688 224.820312 C 518.285156 224.574219 520.09375 223.785156 521.035156 221.816406 C 521.125 221.621094 521.359375 221.539062 521.550781 221.632812 C 521.746094 221.722656 521.828125 221.957031 521.734375 222.152344 C 520.984375 223.726562 519.550781 224.96875 517.800781 225.554688 C 517.195312 225.761719 516.605469 225.863281 516.117188 225.863281 Z M 516.117188 225.863281 " fill-opacity="1" fill-rule="nonzero"/><path fill="#f5d562" d="M 533.1875 245.402344 C 535.324219 238.238281 542.640625 234.003906 549.648438 231.410156 C 553.707031 229.90625 558.039062 228.691406 562.332031 229.273438 C 566.625 229.855469 570.871094 232.628906 572.007812 236.808594 C 557.675781 238.601562 543.546875 242.027344 533.1875 245.402344 " fill-opacity="1" fill-rule="nonzero"/><path fill="#fcfcf0" d="M 581.785156 238.480469 C 566.664062 230.652344 543.65625 232.421875 527.292969 248.796875 C 517.445312 258.648438 510.773438 282.855469 520.449219 315.875 C 526.222656 335.597656 534.058594 353.777344 534.058594 353.777344 L 604.214844 349.347656 C 604.214844 349.347656 619.378906 257.9375 581.785156 238.480469 " fill-opacity="1" fill-rule="nonzero"/><path fill="#ab442c" d="M 513.175781 208.457031 C 512.34375 212.824219 508.234375 213.65625 508.234375 215.457031 C 508.234375 217.636719 511.679688 218.242188 513.601562 220.167969 " fill-opacity="1" fill-rule="nonzero"/><path fill="#ab442c" d="M 513.601562 220.554688 C 513.503906 220.554688 513.402344 220.515625 513.328125 220.441406 C 512.628906 219.742188 511.707031 219.222656 510.816406 218.714844 C 509.289062 217.851562 507.84375 217.03125 507.84375 215.457031 C 507.84375 214.53125 508.640625 213.871094 509.558594 213.109375 C 510.792969 212.085938 512.332031 210.816406 512.792969 208.386719 C 512.832031 208.171875 513.03125 208.035156 513.246094 208.074219 C 513.457031 208.117188 513.597656 208.320312 513.554688 208.53125 C 513.042969 211.234375 511.316406 212.664062 510.058594 213.710938 C 509.257812 214.371094 508.625 214.894531 508.625 215.453125 C 508.625 216.578125 509.816406 217.253906 511.199219 218.039062 C 512.136719 218.570312 513.105469 219.117188 513.875 219.890625 C 514.027344 220.042969 514.027344 220.289062 513.875 220.441406 C 513.800781 220.515625 513.703125 220.554688 513.601562 220.554688 Z M 513.601562 220.554688 " fill-opacity="1" fill-rule="nonzero"/><path fill="#3d251c" d="M 573.046875 450.664062 C 573.011719 450.664062 572.976562 450.660156 572.941406 450.652344 C 572.734375 450.59375 572.613281 450.378906 572.671875 450.171875 C 573.058594 448.792969 574.859375 444.605469 577.355469 438.8125 C 583.136719 425.394531 592.8125 402.9375 594.007812 393.476562 C 595.195312 384.046875 591.933594 374.492188 590.992188 372.902344 C 590.882812 372.71875 590.941406 372.480469 591.128906 372.371094 C 591.3125 372.261719 591.550781 372.320312 591.660156 372.507812 C 592.628906 374.144531 595.992188 383.949219 594.777344 393.570312 C 593.570312 403.144531 583.867188 425.664062 578.070312 439.117188 C 575.679688 444.667969 573.792969 449.050781 573.421875 450.378906 C 573.371094 450.554688 573.214844 450.664062 573.046875 450.664062 Z M 573.046875 450.664062 " fill-opacity="1" fill-rule="nonzero"/><path fill="#f5d562" d="M 606.910156 352.539062 L 604.730469 345.851562 C 604.730469 345.851562 590.613281 349.996094 578.675781 346.519531 C 570.417969 344.113281 531.175781 297.597656 531.175781 297.597656 C 531.175781 297.597656 515.589844 314.632812 514.910156 315.179688 C 520.4375 327.507812 528.253906 340.839844 527.441406 353.777344 C 525.441406 385.53125 505.183594 470.84375 505.183594 470.84375 C 505.183594 470.84375 535.667969 472.152344 537.671875 471.351562 C 543.710938 421.753906 566.171875 364.367188 592.65625 353.777344 C 597.691406 351.765625 606.910156 352.539062 606.910156 352.539062 " fill-opacity="1" fill-rule="nonzero"/><path fill="#ab442c" d="M 533.324219 249.90625 L 480.835938 307.191406 L 420.996094 277.28125 L 409.355469 293.734375 C 409.355469 293.734375 466.921875 342.800781 483.167969 342.800781 C 508.710938 342.800781 561.253906 280.734375 561.253906 280.734375 Z M 533.324219 249.90625 " fill-opacity="1" fill-rule="nonzero"/><path fill="#fcfcf0" d="M 480.835938 299.324219 C 499.394531 276.207031 524.886719 247.128906 539.132812 239.933594 C 551.523438 233.675781 577.105469 239.371094 567.976562 273.078125 C 565.140625 283.550781 550.832031 306.074219 516.832031 334.09375 C 505.117188 325.3125 481.867188 301.648438 480.835938 299.324219 " fill-opacity="1" fill-rule="nonzero"/><path fill="#f5d562" d="M 592.785156 350.261719 C 592.785156 350.261719 582.957031 375.195312 584.933594 378.0625 C 585.980469 379.574219 590.664062 379.296875 590.664062 379.296875 C 590.664062 379.296875 591.816406 390.59375 592.390625 396.242188 C 595.003906 396.179688 597.617188 396.113281 600.226562 396.050781 C 599.722656 395.246094 598.148438 370.433594 598.148438 370.433594 L 604.394531 396.09375 L 610.46875 395.164062 L 606.785156 377.113281 C 606.785156 377.113281 611.914062 376.511719 612.53125 373.6875 C 613.578125 368.914062 609.484375 359.460938 598.371094 349.519531 C 597.636719 349.761719 592.785156 350.261719 592.785156 350.261719 " fill-opacity="1" fill-rule="nonzero"/><path fill="#62c9f5" d="M 411.675781 257.238281 C 409.941406 246.347656 396.191406 242.625 389.738281 246.042969 C 384.710938 248.710938 382.359375 256.566406 380.082031 261.785156 C 376.066406 270.988281 361.082031 282.609375 359.441406 286.367188 C 353.378906 300.265625 370.167969 294.699219 373.710938 295.832031 C 379.457031 297.667969 379.269531 309.765625 391.363281 310.761719 C 403.742188 311.78125 401.722656 301.335938 407.09375 297.945312 C 410.035156 296.09375 413.113281 299.664062 416.480469 297.542969 C 422.367188 293.828125 416.703125 286.894531 415.167969 284.515625 C 409.542969 275.800781 413.207031 266.847656 411.675781 257.238281 " fill-opacity="1" fill-rule="nonzero"/><path fill="#f5d562" d="M 423.097656 276.191406 C 421.914062 275.1875 423.621094 271.796875 421.636719 266.980469 C 419.523438 261.863281 415.523438 246.941406 410.023438 248.285156 C 405.707031 249.339844 412.21875 263.652344 410.078125 262.898438 C 407.964844 262.15625 398.609375 254.738281 391.210938 249.5625 C 388.074219 247.367188 385.394531 250.175781 387.714844 252.484375 C 392.152344 256.902344 400.898438 265.949219 400.898438 265.949219 C 400.898438 265.949219 383.238281 254.0625 382.320312 253.652344 C 379.707031 252.480469 378.417969 255.875 379.851562 257.609375 C 379.605469 257.652344 378.25 257.832031 377.972656 258.863281 C 377.828125 259.417969 377.28125 260.292969 379.175781 262.257812 C 381.054688 264.203125 389.523438 272.523438 389.523438 272.523438 C 389.523438 272.523438 383.742188 268.269531 381.488281 266.925781 C 379.703125 265.859375 379.058594 267.964844 379.773438 269.148438 C 381.011719 271.191406 384.75 275.777344 393.300781 282.765625 C 397.140625 285.90625 403.730469 288.925781 406.851562 291.96875 C 414.808594 299.734375 432.773438 317.183594 434.617188 317.355469 C 438.824219 317.753906 454.007812 293.238281 452.097656 291.808594 C 448.316406 288.976562 426.558594 279.136719 423.097656 276.191406 " fill-opacity="1" fill-rule="nonzero"/><path fill="#3d251c" d="M 396.152344 270.824219 C 396.089844 270.824219 396.023438 270.808594 395.964844 270.777344 C 394.367188 269.914062 386.058594 263.613281 380.574219 258.628906 C 380.417969 258.484375 380.40625 258.238281 380.550781 258.078125 C 380.695312 257.917969 380.941406 257.90625 381.097656 258.050781 C 386.546875 263.003906 394.761719 269.246094 396.335938 270.089844 C 396.523438 270.191406 396.59375 270.429688 396.492188 270.617188 C 396.421875 270.75 396.289062 270.824219 396.152344 270.824219 Z M 396.152344 270.824219 " fill-opacity="1" fill-rule="nonzero"/><path fill="#3d251c" d="M 512.34375 188 C 511.496094 195.496094 520.984375 193.152344 522.742188 194.21875 C 525.542969 195.914062 524.285156 201.132812 527.210938 202.59375 C 528.957031 203.46875 531.230469 202.371094 532.941406 203.308594 C 534.746094 204.292969 533.777344 207.457031 536.28125 208.683594 C 538.671875 209.855469 540.871094 208.363281 541.949219 206.539062 C 543.554688 203.816406 547.71875 201.515625 550.597656 202.824219 C 554.597656 204.644531 551.6875 216.734375 557.710938 219.191406 C 563.769531 221.664062 583.019531 186.472656 554.640625 173.0625 C 537.488281 164.957031 514.15625 171.957031 512.34375 188 " fill-opacity="1" fill-rule="nonzero"/><path fill="#ab442c" d="M 540.558594 208.472656 C 541.625 204.925781 546.4375 199.660156 551.144531 202.445312 C 552.765625 203.40625 553.734375 205.273438 553.875 207.152344 C 554.089844 209.988281 550.09375 220.699219 543.179688 218.808594 C 540.757812 218.144531 539.3125 212.613281 540.558594 208.472656 " fill-opacity="1" fill-rule="nonzero"/><path fill="#3d251c" d="M 542.363281 212.140625 C 542.359375 212.140625 542.351562 212.140625 542.347656 212.140625 C 542.132812 212.132812 541.964844 211.949219 541.976562 211.734375 C 542.132812 208.257812 545.503906 204.792969 548.78125 204.738281 C 549.003906 204.703125 549.171875 204.902344 549.175781 205.117188 C 549.179688 205.332031 549.011719 205.511719 548.796875 205.515625 C 545.941406 205.566406 542.890625 208.722656 542.753906 211.769531 C 542.742188 211.976562 542.570312 212.140625 542.363281 212.140625 Z M 542.363281 212.140625 " fill-opacity="1" fill-rule="nonzero"/><path fill="#3d251c" d="M 540.152344 173.566406 C 537.085938 172.652344 534.238281 170.835938 532.390625 168.222656 C 530.539062 165.609375 529.78125 162.171875 530.683594 159.101562 C 531.582031 156.03125 534.25 153.464844 537.414062 152.992188 C 538.703125 152.800781 540.148438 152.996094 541.0625 153.921875 C 541.976562 154.851562 542.019531 156.640625 540.910156 157.324219 C 539.90625 157.941406 538.496094 157.351562 537.886719 156.34375 C 537.273438 155.332031 537.289062 154.066406 537.480469 152.902344 C 538.195312 148.554688 541.4375 144.570312 545.722656 143.554688 C 550.003906 142.542969 554.996094 145.007812 556.300781 149.214844 C 556.5625 150.058594 556.671875 151.003906 556.28125 151.796875 C 555.890625 152.589844 554.863281 153.105469 554.082031 152.691406 C 553.195312 152.214844 553.152344 150.949219 553.425781 149.976562 C 554.257812 147.042969 557.023438 144.761719 560.0625 144.507812 C 563.101562 144.253906 566.207031 146.039062 567.515625 148.792969 C 568.828125 151.550781 568.25 155.089844 566.136719 157.285156 C 565.609375 157.835938 564.960938 158.316406 564.207031 158.421875 C 563.457031 158.527344 562.597656 158.144531 562.363281 157.421875 C 562.035156 156.40625 563.011719 155.441406 563.976562 154.984375 C 567.148438 153.480469 571.320312 154.515625 573.421875 157.332031 C 575.523438 160.148438 575.335938 164.441406 572.992188 167.0625 C 572.078125 168.078125 570.773438 168.878906 569.417969 168.71875 C 568.0625 168.5625 566.855469 167.121094 567.320312 165.839844 C 567.914062 164.191406 570.375 164.257812 571.820312 165.238281 C 574.371094 166.972656 575.417969 170.476562 574.605469 173.453125 C 573.792969 176.433594 571.34375 178.8125 568.476562 179.941406 C 565.605469 181.074219 562.371094 181.050781 559.375 180.316406 C 558.253906 180.039062 557.085938 179.613281 556.398438 178.679688 C 555.714844 177.75 555.804688 176.1875 556.835938 175.667969 C 558.132812 175.023438 559.59375 176.492188 559.769531 177.929688 C 560.160156 181.101562 557.011719 183.710938 553.878906 184.328125 C 550.507812 184.996094 546.855469 184.074219 544.203125 181.886719 C 541.546875 179.703125 539.941406 176.296875 539.941406 172.855469 C 539.941406 172.101562 540.027344 171.3125 540.429688 170.675781 C 540.832031 170.039062 541.628906 169.597656 542.351562 169.816406 C 543.238281 170.082031 543.609375 171.285156 543.183594 172.109375 C 542.761719 172.9375 541.757812 173.347656 540.152344 173.566406 " fill-opacity="1" fill-rule="nonzero"/><path fill="#fcfcf0" d="M 363.15625 509.109375 L 363.148438 508.15625 C 363.144531 507.625 362.707031 507.195312 362.175781 507.199219 L 359.242188 507.226562 C 358.707031 507.230469 358.28125 507.667969 358.285156 508.199219 L 358.292969 509.152344 C 358.296875 509.683594 358.734375 510.113281 359.265625 510.109375 L 362.199219 510.082031 C 362.734375 510.078125 363.160156 509.640625 363.15625 509.109375 " fill-opacity="1" fill-rule="nonzero"/><path fill="#f5d562" d="M 356.683594 510.722656 C 356.597656 514.035156 357.472656 516.660156 359.570312 518.410156 C 360.015625 518.785156 360.082031 519.445312 359.695312 519.878906 C 359.691406 519.882812 359.683594 519.886719 359.683594 519.890625 C 359.425781 520.175781 359.03125 520.28125 358.660156 520.1875 C 354.5 519.125 351.472656 515.519531 350.988281 511.511719 C 353.324219 511.21875 355.65625 510.921875 356.683594 510.722656 " fill-opacity="1" fill-rule="nonzero"/><path fill="#f5d562" d="M 340.710938 508.570312 C 341.976562 507.386719 343.640625 506.722656 345.371094 506.707031 L 359.746094 506.578125 C 360.929688 506.566406 361.902344 507.519531 361.910156 508.707031 C 361.917969 509.574219 361.40625 510.359375 360.609375 510.699219 L 351.757812 514.496094 C 350.960938 514.835938 350.449219 515.625 350.457031 516.492188 L 350.515625 523.097656 C 350.527344 524.285156 349.574219 525.253906 348.386719 525.265625 L 346.582031 525.28125 C 345.394531 525.292969 344.425781 524.339844 344.414062 523.152344 L 344.347656 515.457031 C 344.339844 514.777344 344.011719 514.140625 343.464844 513.738281 L 340.910156 511.875 C 339.824219 511.082031 339.726562 509.492188 340.710938 508.570312 " fill-opacity="1" fill-rule="nonzero"/><path fill="#fcfcf0" d="M 361.265625 569.488281 L 360.933594 532.445312 C 360.867188 525.132812 354.890625 519.257812 347.585938 519.324219 C 340.277344 519.386719 334.40625 525.371094 334.472656 532.679688 L 334.804688 569.722656 C 334.828125 572.488281 337.089844 574.710938 339.851562 574.6875 L 356.300781 574.539062 C 359.066406 574.515625 361.289062 572.253906 361.265625 569.488281 " fill-opacity="1" fill-rule="nonzero"/><path fill="#f5d562" d="M 293.511719 544.746094 L 308.171875 620.152344 C 309.417969 626.5625 315.027344 631.191406 321.554688 631.191406 L 357.757812 631.191406 C 364.28125 631.191406 369.894531 626.5625 371.140625 620.152344 L 385.800781 544.746094 Z M 293.511719 544.746094 " fill-opacity="1" fill-rule="nonzero"/><path fill="#fcfcf0" d="M 352.675781 603.898438 C 335.9375 603.898438 322.320312 590.273438 322.320312 573.523438 L 322.320312 555.222656 C 322.320312 554.363281 323.019531 553.664062 323.878906 553.664062 C 324.738281 553.664062 325.433594 554.363281 325.433594 555.222656 L 325.433594 573.523438 C 325.433594 588.554688 337.65625 600.78125 352.675781 600.78125 C 367.695312 600.78125 379.914062 588.554688 379.914062 573.523438 L 379.914062 555.222656 C 379.914062 554.363281 380.609375 553.664062 381.46875 553.664062 C 382.332031 553.664062 383.027344 554.363281 383.027344 555.222656 L 383.027344 573.523438 C 383.027344 590.273438 369.410156 603.898438 352.675781 603.898438 Z M 352.675781 603.898438 " fill-opacity="1" fill-rule="nonzero"/><path fill="#f5d562" d="M 348.769531 544.746094 L 336.78125 577.066406 L 378.640625 581.585938 L 385.800781 544.746094 Z M 348.769531 544.746094 " fill-opacity="1" fill-rule="nonzero"/><path fill="#62c9f5" d="M 293.03125 543.890625 C 288.328125 547.289062 283.972656 560.601562 282.40625 567.234375 C 281.589844 570.683594 283.917969 572.390625 286.683594 569.859375 C 289.625 567.164062 291.738281 563.601562 291.738281 563.601562 C 291.738281 563.601562 287.042969 584.035156 290.84375 584.988281 C 293.335938 585.613281 300.210938 569.675781 298.429688 569.074219 C 294.617188 567.789062 292.90625 587.902344 296.050781 588.277344 C 299.636719 588.699219 307.320312 567.945312 302.085938 570.066406 C 299.230469 571.226562 299.359375 586.125 302.210938 586.257812 C 305.105469 586.394531 309.199219 571.035156 310.433594 564.539062 C 309.796875 568.890625 309.992188 577.898438 312.339844 577.433594 C 315.984375 576.71875 318.273438 544.746094 318.273438 544.746094 L 325.367188 544.746094 C 325.367188 544.746094 322.460938 542.039062 318.453125 540.996094 C 315.996094 540.355469 298.1875 540.164062 293.03125 543.890625 " fill-opacity="1" fill-rule="nonzero"/><path fill="#3d251c" d="M 294.253906 580.359375 C 294.230469 580.359375 294.203125 580.359375 294.175781 580.351562 C 293.964844 580.308594 293.828125 580.105469 293.871094 579.894531 L 297.65625 561.199219 C 297.699219 560.988281 297.902344 560.851562 298.117188 560.894531 C 298.328125 560.9375 298.460938 561.144531 298.417969 561.355469 L 294.636719 580.050781 C 294.597656 580.234375 294.4375 580.359375 294.253906 580.359375 Z M 294.253906 580.359375 " fill-opacity="1" fill-rule="nonzero"/><path fill="#3d251c" d="M 300.6875 582.058594 C 300.660156 582.058594 300.625 582.058594 300.597656 582.050781 C 300.386719 581.996094 300.261719 581.785156 300.3125 581.578125 L 305.371094 561.183594 C 305.421875 560.972656 305.628906 560.847656 305.839844 560.898438 C 306.050781 560.949219 306.175781 561.160156 306.125 561.371094 L 301.066406 581.765625 C 301.023438 581.941406 300.863281 582.058594 300.6875 582.058594 Z M 300.6875 582.058594 " fill-opacity="1" fill-rule="nonzero"/><path fill="#ab442c" d="M 263.554688 217.453125 C 262.746094 219.472656 255.039062 237.78125 251.902344 248.816406 C 244.167969 245.113281 231.101562 238.140625 224.570312 231.890625 C 232.9375 225.757812 240.625 207.304688 243.785156 195.8125 C 244.941406 197.199219 262.542969 216.082031 263.554688 217.453125 " fill-opacity="1" fill-rule="nonzero"/><path fill="#f5d562" d="M 195.902344 466.878906 C 198.0625 466.878906 229.179688 467.195312 229.179688 467.195312 L 214.691406 424.144531 C 214.691406 424.144531 202.671875 454.359375 195.902344 466.878906 " fill-opacity="1" fill-rule="nonzero"/><path fill="#ab442c" d="M 234.085938 617.523438 C 233.710938 617.46875 235.214844 613.234375 234.804688 611.890625 C 229.832031 595.609375 216.53125 542.988281 223.230469 515.128906 C 224.796875 508.609375 227.273438 502.289062 228.058594 495.613281 C 231.484375 466.5 204.59375 430.710938 201.574219 382.878906 C 200.410156 364.402344 244.902344 349.042969 247.792969 363.304688 C 251.703125 382.605469 256.984375 445.835938 258.082031 478.707031 C 259.371094 517.230469 252.777344 571.46875 259.527344 610.269531 C 259.527344 610.269531 251.484375 619.910156 234.085938 617.523438 " fill-opacity="1" fill-rule="nonzero"/><path fill="#62c9f5" d="M 250.464844 341.472656 C 265.597656 413.191406 263.078125 503.367188 259.367188 576.183594 C 257.910156 575.925781 225.710938 579.25 223.199219 578.402344 C 206.4375 517.984375 226.703125 501.449219 223.59375 479.445312 C 220.839844 459.957031 199.328125 423.4375 199.257812 389.851562 C 199.222656 373.636719 206.976562 343.242188 206.976562 343.242188 C 206.976562 343.242188 250.683594 341.347656 250.464844 341.472656 " fill-opacity="1" fill-rule="nonzero"/><path fill="#ab442c" d="M 126.09375 603.757812 C 125.753906 603.585938 128.554688 600.070312 128.601562 598.664062 C 129.191406 581.648438 133.699219 527.5625 149.082031 503.390625 C 152.679688 497.734375 157.074219 492.5625 159.984375 486.507812 C 172.683594 460.085938 158.875 417.496094 171.554688 371.277344 C 176.449219 353.425781 223.515625 353.367188 221.617188 367.792969 C 219.046875 387.320312 203.507812 448.835938 193.871094 480.277344 C 182.578125 517.132812 158.726562 566.28125 152.511719 605.171875 C 152.511719 605.171875 141.773438 611.675781 126.09375 603.757812 " fill-opacity="1" fill-rule="nonzero"/><path fill="#62c9f5" d="M 231.234375 348.019531 C 222.257812 420.765625 190.585938 505.226562 163.425781 572.886719 C 162.8125 572.269531 130.601562 564.839844 128.5 563.222656 C 132.273438 500.628906 156.808594 491.582031 161.011719 469.761719 C 164.738281 450.441406 156.253906 408.902344 167.097656 377.117188 C 172.332031 361.773438 189.535156 335.550781 189.535156 335.550781 C 189.535156 335.550781 231.484375 347.96875 231.234375 348.019531 " fill-opacity="1" fill-rule="nonzero"/><path fill="#fcfcf0" d="M 260.476562 569.40625 C 260.984375 569.8125 260.871094 579.972656 259.976562 581.710938 C 259.101562 583.40625 224.789062 585.296875 223.65625 584.359375 C 222.535156 583.429688 220.011719 572.234375 220.480469 571.765625 C 220.800781 571.441406 259.929688 568.972656 260.476562 569.40625 " fill-opacity="1" fill-rule="nonzero"/><path fill="#fcfcf0" d="M 166.613281 568.277344 C 166.960938 568.832031 163.457031 578.367188 162.027344 579.707031 C 160.636719 581.011719 127.671875 571.304688 126.917969 570.039062 C 126.171875 568.789062 127.539062 557.394531 128.136719 557.109375 C 128.550781 556.910156 166.242188 567.6875 166.613281 568.277344 " fill-opacity="1" fill-rule="nonzero"/><path fill="#f5d562" d="M 231.265625 628.335938 L 232.933594 617.140625 C 233.027344 616.53125 233.597656 616.117188 234.203125 616.226562 C 238.1875 616.929688 251.980469 618.636719 258.207031 609.890625 C 259.070312 608.671875 260.71875 608.304688 261.992188 609.089844 C 269.554688 613.769531 274.859375 613.925781 284.097656 617.113281 C 289.539062 618.992188 290.5625 624.507812 291.027344 628.394531 Z M 231.265625 628.335938 " fill-opacity="1" fill-rule="nonzero"/><path fill="#fcfcf0" d="M 291.027344 628.394531 C 291.214844 629.984375 289.964844 631.375 288.367188 631.375 L 233.914062 631.410156 C 232.277344 631.410156 231.023438 629.957031 231.265625 628.335938 L 231.4375 627.203125 L 290.855469 627.164062 C 290.921875 627.59375 290.980469 628.011719 291.027344 628.394531 " fill-opacity="1" fill-rule="nonzero"/><path fill="#fcfcf0" d="M 273.992188 620.417969 C 273.945312 620.417969 273.894531 620.40625 273.851562 620.390625 C 273.648438 620.3125 273.550781 620.085938 273.628906 619.886719 L 275.722656 614.554688 C 275.800781 614.351562 276.027344 614.253906 276.226562 614.332031 C 276.425781 614.414062 276.523438 614.636719 276.445312 614.835938 L 274.355469 620.167969 C 274.292969 620.324219 274.148438 620.417969 273.992188 620.417969 Z M 273.992188 620.417969 " fill-opacity="1" fill-rule="nonzero"/><path fill="#fcfcf0" d="M 266.445312 618.074219 C 266.398438 618.074219 266.351562 618.066406 266.304688 618.046875 C 266.101562 617.96875 266.003906 617.742188 266.082031 617.542969 L 268.175781 612.210938 C 268.253906 612.011719 268.480469 611.914062 268.679688 611.992188 C 268.878906 612.070312 268.976562 612.296875 268.898438 612.496094 L 266.808594 617.828125 C 266.746094 617.980469 266.601562 618.074219 266.445312 618.074219 Z M 266.445312 618.074219 " fill-opacity="1" fill-rule="nonzero"/><path fill="#f5d562" d="M 120.378906 612.457031 L 125.582031 602.40625 C 125.863281 601.859375 126.539062 601.652344 127.078125 601.953125 C 130.617188 603.910156 143.113281 609.996094 151.835938 603.742188 C 153.050781 602.871094 154.726562 603.054688 155.675781 604.210938 C 161.320312 611.089844 166.289062 612.953125 173.996094 618.964844 C 178.535156 622.503906 177.714844 628.058594 176.894531 631.886719 Z M 120.378906 612.457031 " fill-opacity="1" fill-rule="nonzero"/><path fill="#fcfcf0" d="M 176.898438 631.886719 C 176.5625 633.449219 174.929688 634.359375 173.417969 633.84375 L 121.890625 616.226562 C 120.34375 615.695312 119.625 613.914062 120.378906 612.457031 L 120.90625 611.441406 L 177.136719 630.664062 C 177.058594 631.09375 176.980469 631.507812 176.898438 631.886719 " fill-opacity="1" fill-rule="nonzero"/><path fill="#fcfcf0" d="M 163.492188 618.835938 C 163.402344 618.835938 163.3125 618.804688 163.242188 618.742188 C 163.078125 618.605469 163.058594 618.359375 163.195312 618.195312 L 166.902344 613.828125 C 167.039062 613.664062 167.285156 613.644531 167.449219 613.78125 C 167.613281 613.921875 167.632812 614.167969 167.496094 614.332031 L 163.789062 618.699219 C 163.710938 618.789062 163.601562 618.835938 163.492188 618.835938 Z M 163.492188 618.835938 " fill-opacity="1" fill-rule="nonzero"/><path fill="#fcfcf0" d="M 157.109375 614.175781 C 157.019531 614.175781 156.933594 614.144531 156.859375 614.082031 C 156.695312 613.945312 156.675781 613.699219 156.8125 613.535156 L 160.519531 609.167969 C 160.65625 609.003906 160.90625 608.984375 161.066406 609.121094 C 161.230469 609.261719 161.25 609.507812 161.113281 609.671875 L 157.40625 614.039062 C 157.332031 614.128906 157.222656 614.175781 157.109375 614.175781 Z M 157.109375 614.175781 " fill-opacity="1" fill-rule="nonzero"/><path fill="#f5d562" d="M 220.894531 227.171875 C 226.550781 222.285156 234.992188 222.652344 242.292969 224.238281 C 246.527344 225.160156 250.828125 226.460938 254.136719 229.265625 C 257.441406 232.0625 259.53125 236.6875 258.242188 240.828125 C 245.195312 234.625 231.445312 229.90625 220.894531 227.171875 " fill-opacity="1" fill-rule="nonzero"/><path fill="#fcfcf0" d="M 219.226562 227.011719 C 235.621094 222.433594 257.789062 228.851562 270.476562 248.222656 C 278.113281 259.875 275.074219 282.882812 263.523438 315.292969 C 257.820312 331.289062 255.960938 355.804688 255.960938 355.804688 L 181.5625 348.40625 C 181.5625 348.40625 178.460938 238.398438 219.226562 227.011719 " fill-opacity="1" fill-rule="nonzero"/><path fill="#fcfcf0" d="M 342.148438 365.886719 C 348.273438 361.484375 363.539062 358.734375 368.53125 365.886719 C 371.332031 369.90625 376.910156 407.5 368.917969 411.898438 C 360.886719 416.316406 356.1875 408.464844 352.652344 407.308594 C 346.921875 405.425781 338.824219 412.941406 332.71875 409.835938 C 321.644531 404.203125 334.253906 371.570312 342.148438 365.886719 " fill-opacity="1" fill-rule="nonzero"/><path fill="#f5d562" d="M 179.15625 352.511719 L 181.507812 345.089844 C 181.507812 345.089844 195.527344 349.234375 207.46875 345.757812 C 215.726562 343.351562 254.96875 296.835938 254.96875 296.835938 C 254.96875 296.835938 270.550781 313.871094 271.234375 314.417969 C 265.707031 326.746094 257.890625 340.078125 258.703125 353.015625 C 260.703125 384.769531 280.960938 470.082031 280.960938 470.082031 C 280.960938 470.082031 250.476562 471.390625 248.472656 470.589844 C 242.433594 420.992188 224.324219 367.058594 204.578125 356.582031 C 199.785156 354.039062 179.15625 352.511719 179.15625 352.511719 " fill-opacity="1" fill-rule="nonzero"/><path fill="#ab442c" d="M 274.679688 275.175781 L 293.511719 335.550781 L 332.027344 364.179688 L 332.128906 383.84375 C 332.128906 383.84375 276.875 365.886719 267.402344 350.589844 C 255.863281 331.945312 241.375 284.613281 241.375 284.613281 Z M 274.679688 275.175781 " fill-opacity="1" fill-rule="nonzero"/><path fill="#fcfcf0" d="M 293.511719 327.367188 C 291.472656 323.503906 284.820312 285.144531 274.363281 257.222656 C 271.34375 249.160156 252.953125 235.542969 236.371094 266.277344 C 231.222656 275.824219 247.65625 338.753906 247.65625 338.753906 C 247.65625 338.753906 291.160156 328.34375 293.511719 327.367188 " fill-opacity="1" fill-rule="nonzero"/><path fill="#f5d562" d="M 333.273438 361.964844 C 334.699219 362.582031 336.980469 359.554688 342.175781 359.207031 C 347.699219 358.839844 362.84375 355.839844 364.066406 361.363281 C 365.03125 365.707031 349.320312 366.1875 350.941406 367.777344 C 352.542969 369.347656 363.324219 374.464844 371.238281 378.820312 C 374.589844 380.664062 373.257812 384.308594 370.160156 383.25 C 364.242188 381.21875 352.265625 377.363281 352.265625 377.363281 C 352.265625 377.363281 370.726562 387.964844 371.5 388.605469 C 373.703125 390.433594 371.230469 393.089844 369.046875 392.570312 C 369.113281 392.808594 369.554688 394.105469 368.75 394.808594 C 368.316406 395.1875 367.777344 396.0625 365.175781 395.230469 C 362.601562 394.402344 351.398438 390.480469 351.398438 390.480469 C 351.398438 390.480469 357.769531 393.792969 359.96875 395.21875 C 361.714844 396.351562 360.109375 397.855469 358.734375 397.738281 C 356.355469 397.53125 350.59375 396.199219 340.546875 391.613281 C 336.035156 389.554688 330.414062 384.972656 326.308594 383.519531 C 315.832031 379.808594 292.25 371.394531 291.277344 369.8125 C 289.0625 366.210938 304.328125 341.75 306.457031 342.832031 C 310.667969 344.976562 329.101562 360.160156 333.273438 361.964844 " fill-opacity="1" fill-rule="nonzero"/><path fill="#3d251c" d="M 368.144531 392.34375 C 368.09375 392.34375 368.039062 392.335938 367.992188 392.3125 C 367.3125 392.019531 351.332031 385.128906 349.765625 384.175781 C 349.582031 384.0625 349.523438 383.824219 349.632812 383.640625 C 349.746094 383.457031 349.984375 383.398438 350.167969 383.507812 C 351.691406 384.433594 368.132812 391.527344 368.300781 391.597656 C 368.496094 391.683594 368.589844 391.914062 368.503906 392.109375 C 368.441406 392.257812 368.296875 392.34375 368.144531 392.34375 Z M 368.144531 392.34375 " fill-opacity="1" fill-rule="nonzero"/><path fill="#3d251c" d="M 209.871094 438.800781 C 209.710938 438.800781 209.5625 438.703125 209.503906 438.542969 C 206.347656 429.867188 203.246094 423.976562 200.511719 418.773438 C 197.078125 412.253906 194.117188 406.617188 191.679688 397.308594 C 191.625 397.101562 191.75 396.886719 191.957031 396.835938 C 192.167969 396.773438 192.378906 396.902344 192.433594 397.113281 C 194.847656 406.335938 197.792969 411.929688 201.199219 418.414062 C 203.945312 423.632812 207.058594 429.550781 210.234375 438.277344 C 210.308594 438.480469 210.203125 438.703125 210.003906 438.777344 C 209.957031 438.792969 209.914062 438.800781 209.871094 438.800781 Z M 209.871094 438.800781 " fill-opacity="1" fill-rule="nonzero"/><path fill="#f5d562" d="M 185.128906 351.765625 C 185.128906 351.765625 194.957031 376.699219 192.976562 379.566406 C 191.933594 381.078125 187.25 380.800781 187.25 380.800781 C 187.25 380.800781 186.097656 392.097656 185.523438 397.746094 C 182.910156 397.683594 180.300781 397.617188 177.6875 397.554688 C 178.191406 396.746094 179.769531 371.933594 179.769531 371.933594 L 173.519531 397.597656 L 167.445312 396.667969 L 171.128906 378.617188 C 171.128906 378.617188 166 378.015625 165.382812 375.1875 C 164.335938 370.414062 168.425781 360.964844 179.542969 351.019531 C 180.277344 351.261719 185.128906 351.765625 185.128906 351.765625 " fill-opacity="1" fill-rule="nonzero"/><path fill="#ab442c" d="M 287.265625 212.09375 C 289.058594 206.613281 292.332031 197.289062 288.347656 189.046875 C 280.960938 173.78125 264.839844 174.253906 256.324219 185.570312 C 251.019531 192.621094 247.015625 204.867188 250.621094 214.890625 C 253.898438 223.992188 260.773438 232.824219 274.546875 234.363281 C 280.121094 234.988281 285.269531 218.1875 287.265625 212.09375 " fill-opacity="1" fill-rule="nonzero"/><path fill="#3d251c" d="M 239.167969 219.746094 C 247.574219 222.957031 257.628906 220.558594 264.625 214.894531 C 267.203125 212.804688 272.132812 206.742188 274.910156 204.929688 C 279.554688 201.898438 296.40625 200.917969 298.582031 189.882812 C 299.695312 184.214844 299.453125 175.675781 283.847656 172.953125 C 282.414062 172.703125 279.976562 163.203125 265.273438 160.636719 C 247.519531 157.539062 230.644531 167.035156 228.023438 190.226562 C 226.867188 200.46875 231.472656 216.804688 239.167969 219.746094 " fill-opacity="1" fill-rule="nonzero"/><path fill="#ab442c" d="M 281.277344 206.785156 C 280.957031 203.097656 277.316406 196.960938 272.140625 198.726562 C 270.355469 199.335938 269.03125 200.96875 268.507812 202.78125 C 267.722656 205.511719 269.453125 216.8125 276.605469 216.371094 C 279.113281 216.214844 281.65625 211.097656 281.277344 206.785156 " fill-opacity="1" fill-rule="nonzero"/><path fill="#3d251c" d="M 278.84375 210.019531 C 278.824219 210.019531 278.800781 210.019531 278.78125 210.011719 C 278.570312 209.980469 278.425781 209.78125 278.457031 209.566406 C 278.941406 206.554688 276.601562 202.84375 273.8125 202.214844 C 273.605469 202.167969 273.472656 201.957031 273.519531 201.75 C 273.566406 201.539062 273.773438 201.40625 273.984375 201.457031 C 277.183594 202.179688 279.777344 206.257812 279.226562 209.691406 C 279.195312 209.882812 279.03125 210.019531 278.84375 210.019531 Z M 278.84375 210.019531 " fill-opacity="1" fill-rule="nonzero"/><path fill="#3d251c" d="M 237.945312 206.226562 C 229.171875 202.578125 208.390625 209.246094 201.257812 216.382812 C 195.257812 222.386719 197.816406 231.039062 197.757812 233.339844 C 197.527344 242.320312 186.210938 246.464844 182.730469 254.027344 C 178.078125 264.128906 190.203125 269.285156 193.6875 273.550781 C 199.261719 280.378906 194.226562 285.410156 201.984375 290.25 C 208.09375 294.058594 218.089844 287.800781 223.105469 284.863281 C 232.183594 279.546875 242.320312 284.574219 246.261719 276.175781 C 252.941406 261.9375 239.984375 256.027344 239.984375 250.761719 C 239.984375 244.265625 247.230469 248.257812 249.128906 238.046875 C 250.800781 229.089844 248.777344 210.726562 237.945312 206.226562 " fill-opacity="1" fill-rule="nonzero"/></svg>