<svg xmlns="http://www.w3.org/2000/svg" xmlns:xlink="http://www.w3.org/1999/xlink" width="1052" zoomAndPan="magnify" viewBox="0 0 788.88 569.249982" height="759" preserveAspectRatio="xMidYMid meet" version="1.0"><defs><g/><clipPath id="a1b97775f7"><path d="M 31.167969 20.972656 L 759.210938 20.972656 L 759.210938 91.105469 L 31.167969 91.105469 Z M 31.167969 20.972656 " clip-rule="nonzero"/></clipPath><clipPath id="30975a2fa6"><path d="M 1.019531 20.972656 L 69.984375 20.972656 L 69.984375 91.105469 L 1.019531 91.105469 Z M 1.019531 20.972656 " clip-rule="nonzero"/></clipPath><clipPath id="0e399f49dd"><path d="M 35.5 20.972656 C 16.457031 20.972656 1.019531 36.671875 1.019531 56.039062 C 1.019531 75.40625 16.457031 91.105469 35.5 91.105469 C 54.546875 91.105469 69.984375 75.40625 69.984375 56.039062 C 69.984375 36.671875 54.546875 20.972656 35.5 20.972656 Z M 35.5 20.972656 " clip-rule="nonzero"/></clipPath><clipPath id="5d413d9e53"><path d="M 718.761719 20.972656 L 787.726562 20.972656 L 787.726562 91.105469 L 718.761719 91.105469 Z M 718.761719 20.972656 " clip-rule="nonzero"/></clipPath><clipPath id="0a54e7cd6a"><path d="M 753.246094 20.972656 C 734.199219 20.972656 718.761719 36.671875 718.761719 56.039062 C 718.761719 75.40625 734.199219 91.105469 753.246094 91.105469 C 772.289062 91.105469 787.726562 75.40625 787.726562 56.039062 C 787.726562 36.671875 772.289062 20.972656 753.246094 20.972656 Z M 753.246094 20.972656 " clip-rule="nonzero"/></clipPath><clipPath id="fa13cd3113"><path d="M 252 354 L 732.785156 354 L 732.785156 365 L 252 365 Z M 252 354 " clip-rule="nonzero"/></clipPath><clipPath id="03bb3e57b0"><path d="M 60 539 L 117 539 L 117 568.492188 L 60 568.492188 Z M 60 539 " clip-rule="nonzero"/></clipPath><clipPath id="39f450cafb"><path d="M 57.925781 306 L 167 306 L 167 542 L 57.925781 542 Z M 57.925781 306 " clip-rule="nonzero"/></clipPath></defs><g clip-path="url(#a1b97775f7)"><path fill="#ffffff" d="M 31.167969 20.972656 L 759.210938 20.972656 L 759.210938 91.105469 L 31.167969 91.105469 Z M 31.167969 20.972656 " fill-opacity="1" fill-rule="nonzero"/></g><g clip-path="url(#30975a2fa6)"><g clip-path="url(#0e399f49dd)"><path fill="#ffffff" d="M 1.019531 20.972656 L 69.984375 20.972656 L 69.984375 91.105469 L 1.019531 91.105469 Z M 1.019531 20.972656 " fill-opacity="1" fill-rule="nonzero"/></g></g><g clip-path="url(#5d413d9e53)"><g clip-path="url(#0a54e7cd6a)"><path fill="#ffffff" d="M 718.761719 20.972656 L 787.726562 20.972656 L 787.726562 91.105469 L 718.761719 91.105469 Z M 718.761719 20.972656 " fill-opacity="1" fill-rule="nonzero"/></g></g><path fill="#e88772" d="M 566.90625 551.226562 C 567.253906 551.179688 565.855469 547.257812 566.238281 546.015625 C 570.84375 530.9375 583.164062 482.21875 576.960938 456.425781 C 575.507812 450.390625 573.214844 444.535156 572.488281 438.359375 C 569.3125 411.402344 594.222656 378.265625 597.019531 333.976562 C 598.101562 316.871094 556.882812 302.652344 554.207031 315.855469 C 550.582031 333.726562 545.691406 392.269531 544.671875 422.703125 C 543.480469 458.371094 549.589844 508.589844 543.335938 544.511719 C 543.335938 544.511719 550.789062 553.4375 566.90625 551.226562 " fill-opacity="1" fill-rule="nonzero"/><path fill="#e88772" d="M 666.945312 538.480469 C 667.257812 538.324219 664.664062 535.066406 664.617188 533.769531 C 664.078125 518.015625 659.898438 467.9375 645.648438 445.558594 C 642.3125 440.320312 638.242188 435.53125 635.546875 429.925781 C 623.785156 405.464844 636.574219 366.03125 624.832031 323.238281 C 620.292969 306.707031 576.695312 306.65625 578.453125 320.015625 C 580.832031 338.09375 595.230469 395.046875 604.15625 424.160156 C 614.617188 458.28125 636.714844 503.785156 642.472656 539.792969 C 642.472656 539.792969 652.421875 545.8125 666.945312 538.480469 " fill-opacity="1" fill-rule="nonzero"/><path fill="#f5d562" d="M 672.285156 545.746094 L 667.425781 536.511719 C 667.160156 536.007812 666.539062 535.824219 666.046875 536.101562 C 662.789062 537.929688 651.300781 543.613281 643.214844 537.898438 C 642.09375 537.105469 640.546875 537.285156 639.679688 538.355469 C 634.515625 544.730469 629.941406 546.484375 622.871094 552.070312 C 618.707031 555.359375 619.492188 560.472656 620.273438 564 Z M 672.285156 545.746094 " fill-opacity="1" fill-rule="nonzero"/><path fill="#fcfcf0" d="M 620.273438 564 C 620.589844 565.4375 622.101562 566.269531 623.496094 565.78125 L 670.914062 549.230469 C 672.339844 548.730469 672.988281 547.082031 672.285156 545.75 L 671.796875 544.8125 L 620.046875 562.875 C 620.117188 563.269531 620.195312 563.648438 620.273438 564 " fill-opacity="1" fill-rule="nonzero"/><path fill="#fcfcf0" d="M 632.554688 551.890625 C 632.453125 551.890625 632.351562 551.847656 632.28125 551.761719 L 628.835938 547.757812 C 628.707031 547.609375 628.722656 547.378906 628.875 547.25 C 629.027344 547.121094 629.253906 547.140625 629.382812 547.289062 L 632.828125 551.292969 C 632.957031 551.445312 632.941406 551.671875 632.789062 551.800781 C 632.722656 551.859375 632.640625 551.890625 632.554688 551.890625 Z M 632.554688 551.890625 " fill-opacity="1" fill-rule="nonzero"/><path fill="#fcfcf0" d="M 638.414062 547.554688 C 638.3125 547.554688 638.210938 547.511719 638.140625 547.425781 L 634.695312 543.425781 C 634.566406 543.273438 634.582031 543.046875 634.734375 542.917969 C 634.882812 542.785156 635.113281 542.804688 635.242188 542.953125 L 638.6875 546.957031 C 638.816406 547.109375 638.800781 547.335938 638.648438 547.464844 C 638.582031 547.523438 638.496094 547.554688 638.414062 547.554688 Z M 638.414062 547.554688 " fill-opacity="1" fill-rule="nonzero"/><path fill="#f5d562" d="M 569.386719 559.816406 L 567.839844 549.496094 C 567.753906 548.933594 567.230469 548.550781 566.671875 548.652344 C 562.996094 549.304688 550.273438 550.882812 544.523438 542.824219 C 543.722656 541.703125 542.207031 541.367188 541.035156 542.089844 C 534.058594 546.40625 529.164062 546.554688 520.648438 549.5 C 515.628906 551.234375 514.6875 556.320312 514.261719 559.90625 Z M 569.386719 559.816406 " fill-opacity="1" fill-rule="nonzero"/><path fill="#fcfcf0" d="M 514.261719 559.90625 C 514.089844 561.367188 515.242188 562.652344 516.714844 562.652344 L 566.945312 562.652344 C 568.453125 562.652344 569.609375 561.308594 569.386719 559.816406 L 569.230469 558.769531 L 514.417969 558.769531 C 514.359375 559.164062 514.304688 559.550781 514.261719 559.90625 " fill-opacity="1" fill-rule="nonzero"/><path fill="#fcfcf0" d="M 529.96875 552.539062 C 529.824219 552.539062 529.6875 552.453125 529.632812 552.308594 L 527.699219 547.394531 C 527.628906 547.210938 527.71875 547 527.90625 546.929688 C 528.089844 546.851562 528.296875 546.945312 528.371094 547.132812 L 530.304688 552.046875 C 530.375 552.230469 530.285156 552.441406 530.097656 552.515625 C 530.058594 552.53125 530.011719 552.539062 529.96875 552.539062 Z M 529.96875 552.539062 " fill-opacity="1" fill-rule="nonzero"/><path fill="#fcfcf0" d="M 536.929688 550.378906 C 536.785156 550.378906 536.648438 550.289062 536.59375 550.148438 L 534.660156 545.234375 C 534.589844 545.046875 534.679688 544.839844 534.863281 544.765625 C 535.050781 544.691406 535.257812 544.785156 535.332031 544.96875 L 537.261719 549.882812 C 537.335938 550.070312 537.246094 550.277344 537.058594 550.351562 C 537.015625 550.371094 536.972656 550.378906 536.929688 550.378906 Z M 536.929688 550.378906 " fill-opacity="1" fill-rule="nonzero"/><path fill="#62c9f5" d="M 551.734375 295.644531 C 543.78125 333.308594 541.089844 376.472656 540.878906 419.082031 C 540.714844 451.589844 535.351562 515.15625 536.839844 544.332031 C 538.191406 544.09375 555.902344 558.003906 578.433594 555.386719 C 580.828125 533.171875 583.5 482.554688 583.167969 471.308594 C 582.496094 448.429688 574.695312 437.046875 576.625 423.386719 C 579.175781 405.34375 599.105469 371.53125 599.167969 340.433594 C 599.199219 325.417969 592.015625 297.28125 592.015625 297.28125 C 592.015625 297.28125 551.527344 295.523438 551.734375 295.644531 " fill-opacity="1" fill-rule="nonzero"/><path fill="#f5d562" d="M 470.910156 231.964844 C 470.910156 231.964844 481.144531 228.695312 486.074219 230.613281 C 488.476562 231.546875 490.515625 233.738281 490.664062 236.3125 C 484.023438 236.363281 470.871094 237.542969 470.871094 237.542969 Z M 470.910156 231.964844 " fill-opacity="1" fill-rule="nonzero"/><path fill="#62c9f5" d="M 569.546875 301.703125 C 574.625 342.835938 587.542969 388.011719 602.5625 431.21875 C 612.136719 458.765625 627.621094 516.523438 637.414062 540.910156 C 637.984375 540.339844 678.269531 542.105469 680.214844 540.609375 C 675.445312 516.550781 659.734375 465.765625 655.289062 454.902344 C 647.339844 435.472656 637.09375 427.382812 634.597656 414.421875 C 631.144531 396.53125 639.003906 358.074219 628.960938 328.644531 C 624.109375 314.4375 608.171875 290.160156 608.171875 290.160156 C 608.171875 290.160156 569.316406 301.65625 569.546875 301.703125 " fill-opacity="1" fill-rule="nonzero"/><path fill="#3d251c" d="M 536.871094 183.800781 C 531.957031 180.574219 524.65625 173.527344 523.589844 162.851562 C 522.933594 156.300781 527.113281 144.492188 540.640625 140.1875 C 551.996094 136.574219 563.78125 137.867188 572.589844 145.382812 C 579.515625 151.296875 583.777344 160.050781 582.882812 168.703125 C 581.988281 177.355469 576.585938 185.429688 566.398438 188.488281 C 557.914062 191.03125 543.539062 188.1875 536.871094 183.800781 " fill-opacity="1" fill-rule="nonzero"/><path fill="#e88772" d="M 595.070312 197.925781 C 576.210938 194.808594 560.808594 196.398438 540.609375 207.914062 C 540.433594 208.015625 541.226562 223.765625 555.59375 223.277344 C 570.835938 222.761719 593.550781 205.34375 595.070312 197.925781 " fill-opacity="1" fill-rule="nonzero"/><path fill="#e88772" d="M 529.65625 174.953125 C 529.980469 168.175781 527.851562 160.574219 533.019531 153.859375 C 542.59375 141.414062 562.898438 143.804688 568.488281 155.667969 C 571.96875 163.058594 572.207031 176.363281 567.046875 184.769531 C 562.363281 192.402344 549.144531 198.507812 542.230469 197.898438 C 535.472656 197.304688 529.070312 187.175781 529.65625 174.953125 " fill-opacity="1" fill-rule="nonzero"/><path fill="#3d251c" d="M 533.957031 167.945312 C 532.949219 168.101562 532.699219 169.542969 532.738281 170.433594 C 532.765625 171.089844 533.078125 172.691406 534.167969 172.519531 C 535.226562 172.351562 535.605469 171.402344 535.460938 169.734375 C 535.320312 168.042969 534.355469 167.882812 533.957031 167.945312 " fill-opacity="1" fill-rule="nonzero"/><path fill="#3d251c" d="M 534.007812 172.890625 C 532.800781 172.890625 532.414062 171.292969 532.378906 170.449219 C 532.335938 169.480469 532.609375 167.785156 533.902344 167.589844 C 533.960938 167.578125 534.027344 167.574219 534.101562 167.574219 C 534.847656 167.574219 535.691406 168.132812 535.824219 169.707031 C 535.882812 170.417969 536.066406 172.582031 534.226562 172.875 C 534.148438 172.886719 534.078125 172.890625 534.007812 172.890625 Z M 534.101562 168.292969 C 534.066406 168.292969 534.039062 168.296875 534.011719 168.300781 C 533.277344 168.414062 533.0625 169.628906 533.097656 170.421875 C 533.121094 170.992188 533.378906 172.171875 534.007812 172.171875 C 534.042969 172.171875 534.078125 172.167969 534.113281 172.164062 C 534.660156 172.078125 535.269531 171.726562 535.105469 169.769531 C 534.992188 168.4375 534.363281 168.292969 534.101562 168.292969 Z M 534.101562 168.292969 " fill-opacity="1" fill-rule="nonzero"/><path fill="#e88772" d="M 531.070312 169.535156 C 532.851562 170.210938 535.429688 170.585938 537.980469 170.035156 C 537.980469 170.035156 538.875 166.011719 535.238281 165.757812 C 532.097656 165.535156 531.070312 169.535156 531.070312 169.535156 " fill-opacity="1" fill-rule="nonzero"/><path fill="#3d251c" d="M 535.773438 170.53125 C 534.195312 170.53125 532.414062 170.347656 530.960938 169.878906 C 530.769531 169.816406 530.667969 169.613281 530.726562 169.425781 C 530.789062 169.234375 530.992188 169.132812 531.179688 169.191406 C 533.296875 169.875 536.160156 169.921875 537.929688 169.675781 C 538.125 169.652344 538.308594 169.785156 538.335938 169.984375 C 538.363281 170.183594 538.222656 170.363281 538.027344 170.390625 C 537.390625 170.480469 536.609375 170.53125 535.773438 170.53125 Z M 535.773438 170.53125 " fill-opacity="1" fill-rule="nonzero"/><path fill="#3d251c" d="M 549.300781 167.960938 C 550.308594 168.117188 550.558594 169.558594 550.519531 170.453125 C 550.492188 171.105469 550.175781 172.707031 549.089844 172.535156 C 548.03125 172.367188 547.652344 171.417969 547.792969 169.753906 C 547.9375 168.0625 548.902344 167.902344 549.300781 167.960938 " fill-opacity="1" fill-rule="nonzero"/><path fill="#3d251c" d="M 549.25 172.90625 C 549.179688 172.90625 549.105469 172.902344 549.03125 172.890625 C 547.191406 172.597656 547.375 170.433594 547.4375 169.722656 C 547.570312 168.148438 548.414062 167.589844 549.160156 167.589844 C 549.234375 167.589844 549.300781 167.59375 549.355469 167.605469 C 550.648438 167.804688 550.921875 169.5 550.878906 170.46875 C 550.84375 171.3125 550.457031 172.90625 549.25 172.90625 Z M 549.160156 168.308594 C 548.894531 168.308594 548.265625 168.453125 548.152344 169.78125 C 547.988281 171.742188 548.59375 172.089844 549.144531 172.179688 C 549.863281 172.289062 550.132812 171.035156 550.160156 170.4375 C 550.191406 169.648438 549.976562 168.429688 549.246094 168.316406 C 549.21875 168.3125 549.191406 168.308594 549.160156 168.308594 Z M 549.160156 168.308594 " fill-opacity="1" fill-rule="nonzero"/><path fill="#e88772" d="M 553.234375 169.535156 C 551.457031 170.210938 548.878906 170.585938 546.328125 170.035156 C 546.328125 170.035156 545.429688 166.011719 549.066406 165.757812 C 552.210938 165.535156 553.234375 169.535156 553.234375 169.535156 " fill-opacity="1" fill-rule="nonzero"/><path fill="#3d251c" d="M 548.53125 170.53125 C 547.695312 170.53125 546.917969 170.480469 546.277344 170.390625 C 546.078125 170.363281 545.941406 170.183594 545.96875 169.984375 C 545.996094 169.785156 546.179688 169.652344 546.375 169.675781 C 548.140625 169.921875 551.007812 169.875 553.121094 169.191406 C 553.3125 169.132812 553.515625 169.234375 553.574219 169.425781 C 553.636719 169.613281 553.53125 169.816406 553.34375 169.878906 C 551.894531 170.347656 550.109375 170.53125 548.53125 170.53125 Z M 548.53125 170.53125 " fill-opacity="1" fill-rule="nonzero"/><path fill="#3d251c" d="M 528.726562 166.046875 C 534.058594 165.476562 538.640625 166.910156 538.640625 166.910156 C 538.640625 166.910156 538.925781 165.332031 538.34375 165.09375 C 533.617188 163.171875 530.148438 165 528.726562 166.046875 " fill-opacity="1" fill-rule="nonzero"/><path fill="#3d251c" d="M 554.960938 166.046875 C 549.625 165.476562 545.046875 166.910156 545.046875 166.910156 C 545.046875 166.910156 544.757812 165.332031 545.34375 165.09375 C 550.066406 163.171875 553.535156 165 554.960938 166.046875 " fill-opacity="1" fill-rule="nonzero"/><path fill="#e88772" d="M 551.226562 186.085938 C 551.582031 188.066406 554.039062 204.316406 554.800781 214.910156 C 562.515625 213.015625 574.597656 209.519531 581.703125 205.089844 C 575.269531 197.949219 570.761719 187.703125 570.066406 176.691406 C 564.683594 180.5 558.398438 182.554688 551.226562 186.085938 " fill-opacity="1" fill-rule="nonzero"/><path fill="#3d251c" d="M 539.886719 181.554688 C 539.824219 181.554688 539.761719 181.539062 539.703125 181.503906 C 539.246094 181.226562 538.726562 180.984375 538.21875 180.746094 C 536.683594 180.027344 535.097656 179.28125 535.097656 177.554688 C 535.097656 176.621094 535.871094 176.03125 536.765625 175.351562 C 537.773438 174.582031 539.023438 173.628906 539.695312 171.851562 C 539.765625 171.667969 539.972656 171.570312 540.160156 171.644531 C 540.34375 171.714844 540.4375 171.921875 540.371094 172.109375 C 539.625 174.078125 538.28125 175.101562 537.203125 175.921875 C 536.398438 176.539062 535.816406 176.980469 535.816406 177.558594 C 535.816406 178.824219 537.070312 179.414062 538.527344 180.09375 C 539.046875 180.339844 539.585938 180.59375 540.074219 180.886719 C 540.246094 180.988281 540.300781 181.210938 540.195312 181.382812 C 540.128906 181.492188 540.011719 181.554688 539.886719 181.554688 Z M 539.886719 181.554688 " fill-opacity="1" fill-rule="nonzero"/><path fill="#3d251c" d="M 540.617188 186.871094 C 539.378906 186.871094 538.132812 186.679688 536.945312 186.289062 C 536.757812 186.226562 536.652344 186.023438 536.714844 185.832031 C 536.777344 185.644531 536.980469 185.539062 537.171875 185.601562 C 540.664062 186.75 544.640625 186.0625 547.546875 183.808594 C 547.703125 183.683594 547.929688 183.714844 548.050781 183.871094 C 548.171875 184.027344 548.144531 184.253906 547.988281 184.375 C 545.882812 186.007812 543.253906 186.871094 540.617188 186.871094 Z M 540.617188 186.871094 " fill-opacity="1" fill-rule="nonzero"/><path fill="#fcfcf0" d="M 591.652344 196.890625 C 589.375 201.261719 574.300781 216.347656 555.976562 218.585938 C 546.511719 219.742188 542.617188 212.542969 540.265625 208.605469 C 529.109375 215.078125 519.929688 225.132812 513.421875 240.679688 C 514.21875 241.21875 528.980469 245.804688 529.25 245.769531 C 529.410156 247.675781 531.980469 265.769531 535.222656 273.855469 C 540.65625 287.410156 545.675781 307.480469 545.675781 307.480469 L 614.59375 301.703125 C 614.59375 301.703125 631.574219 205.929688 591.652344 196.890625 " fill-opacity="1" fill-rule="nonzero"/><path fill="#f5d562" d="M 616.007812 295.496094 C 616.152344 294.34375 615.53125 293.242188 614.480469 292.75 C 592.734375 282.578125 591.390625 246.300781 588.261719 228.371094 C 586.84375 220.261719 584.003906 206.300781 580.738281 196.316406 C 580.382812 196.222656 577.230469 196.316406 576.347656 196.457031 C 579.800781 207.570312 582.726562 218.472656 584.480469 229.863281 C 571.636719 234.390625 554.492188 235.257812 540.800781 234.734375 C 540.550781 225.453125 541.175781 215.953125 542.5 206.75 C 541.195312 207.480469 539.8125 208.34375 538.589844 209.203125 C 537.234375 217.585938 536.75 228.210938 537.054688 234.554688 C 537.945312 253.046875 540.617188 289.007812 538.902344 302.691406 C 535.113281 332.929688 532.042969 392.734375 528.25 422.976562 C 561.757812 423.5625 611.476562 419.339844 616.277344 417.972656 C 611.777344 372.507812 610.960938 336.261719 616.007812 295.496094 " fill-opacity="1" fill-rule="nonzero"/><path fill="#62c9f5" d="M 376 331.21875 L 376 237.445312 C 376 234.867188 378.089844 232.78125 380.664062 232.78125 L 542.042969 232.78125 C 544.621094 232.78125 546.707031 234.867188 546.707031 237.445312 L 546.707031 331.21875 C 546.707031 333.796875 544.621094 335.886719 542.042969 335.886719 L 380.664062 335.886719 C 378.089844 335.886719 376 333.796875 376 331.21875 " fill-opacity="1" fill-rule="nonzero"/><path fill="#fcfcf0" d="M 442.25 357.066406 L 442.25 279.878906 C 442.25 277.300781 444.335938 275.210938 446.914062 275.210938 L 475.792969 275.210938 C 478.371094 275.210938 480.460938 277.300781 480.460938 279.878906 L 480.460938 357.066406 C 480.460938 359.644531 478.371094 361.734375 475.792969 361.734375 L 446.914062 361.734375 C 444.335938 361.734375 442.25 359.644531 442.25 357.066406 " fill-opacity="1" fill-rule="nonzero"/><path fill="#fcfcf0" d="M 530.359375 274.75 C 526.453125 267.929688 504.195312 257.988281 500.910156 259.058594 C 494.5 261.140625 484.847656 282.496094 486.660156 287.609375 C 488.75 293.496094 516.628906 306.832031 519.671875 304.929688 C 524.300781 302.03125 533.523438 280.269531 530.359375 274.75 " fill-opacity="1" fill-rule="nonzero"/><path fill="#e88772" d="M 623.242188 232.78125 C 623.242188 232.78125 616.191406 288.527344 609.785156 294.195312 C 601.511719 301.523438 533.136719 288.195312 533.136719 288.195312 L 534.199219 274.371094 L 589.257812 271.660156 L 595.070312 236.277344 Z M 623.242188 232.78125 " fill-opacity="1" fill-rule="nonzero"/><path fill="#f5d562" d="M 536.609375 273.222656 C 535.5 273.042969 534.160156 270.433594 531.789062 269.105469 C 528.296875 267.148438 518.636719 259.730469 517.148438 262.703125 C 515.902344 265.1875 522.136719 269.972656 522.136719 269.972656 C 522.136719 269.972656 513.421875 269.109375 506.902344 268.671875 C 504.140625 268.488281 503.53125 271.230469 505.828125 271.792969 C 510.226562 272.867188 519.027344 275.191406 519.027344 275.191406 C 519.027344 275.191406 503.648438 274.445312 502.925781 274.53125 C 500.867188 274.785156 501.339844 277.367188 502.875 277.90625 C 502.738281 278.023438 501.96875 278.640625 502.183594 279.382812 C 502.488281 280.4375 503.878906 281.054688 504.011719 281.128906 C 503.582031 281.539062 503.523438 282.6875 504.375 283.519531 C 505.613281 284.722656 512.96875 288.070312 520.878906 289.195312 C 524.433594 289.703125 529.375 288.351562 532.445312 289.066406 C 540.277344 290.894531 557.925781 294.972656 559.132812 294.390625 C 561.886719 293.0625 562.125 272.203125 560.40625 272.035156 C 557.007812 271.695312 539.855469 273.753906 536.609375 273.222656 " fill-opacity="1" fill-rule="nonzero"/><path fill="#3d251c" d="M 519.585938 280.613281 C 519.578125 280.613281 519.566406 280.609375 519.554688 280.609375 C 514.261719 280.132812 508.925781 279.371094 503.691406 278.339844 C 503.496094 278.304688 503.371094 278.113281 503.410156 277.917969 C 503.445312 277.722656 503.636719 277.59375 503.832031 277.636719 C 509.039062 278.65625 514.351562 279.417969 519.621094 279.894531 C 519.816406 279.910156 519.964844 280.085938 519.945312 280.285156 C 519.929688 280.472656 519.773438 280.613281 519.585938 280.613281 Z M 519.585938 280.613281 " fill-opacity="1" fill-rule="nonzero"/><path fill="#3d251c" d="M 518.871094 284.5 C 518.84375 284.5 518.820312 284.5 518.796875 284.492188 L 504.96875 281.636719 C 504.773438 281.597656 504.648438 281.40625 504.6875 281.210938 C 504.726562 281.015625 504.917969 280.886719 505.113281 280.929688 L 518.941406 283.789062 C 519.136719 283.828125 519.261719 284.019531 519.222656 284.214844 C 519.1875 284.382812 519.035156 284.5 518.871094 284.5 Z M 518.871094 284.5 " fill-opacity="1" fill-rule="nonzero"/><path fill="#fcfcf0" d="M 588.648438 269.859375 C 594.417969 241.820312 583.839844 207.320312 583.839844 207.320312 L 591.652344 196.890625 C 591.652344 196.890625 613.78125 199.28125 624.683594 228.222656 C 629.5625 241.175781 627.460938 261.925781 624.746094 275.5 C 613.238281 274.691406 601.804688 272.828125 588.648438 269.859375 " fill-opacity="1" fill-rule="nonzero"/><path fill="#f5d562" d="M 478.554688 230.917969 C 478.871094 229.441406 477.824219 227.816406 476.324219 227.449219 C 474.820312 227.078125 473.125 228.386719 472.664062 229.46875 C 472.167969 228.671875 471.269531 227.839844 470.011719 227.78125 C 468.75 227.722656 467.324219 228.285156 466.863281 229.203125 C 466.480469 228.65625 465.675781 228.09375 464.773438 228.074219 C 463.871094 228.050781 462.726562 228.585938 462.320312 229.089844 C 461.839844 228.695312 460.585938 228.332031 459.738281 228.65625 C 457.355469 229.574219 452.519531 235.152344 454.101562 236.578125 C 455.148438 237.519531 458.195312 236.480469 461.027344 234.207031 C 460.296875 235.292969 459.523438 239.644531 461.078125 240.34375 C 462.992188 241.199219 465.15625 238.460938 465.410156 238.285156 C 465.410156 238.609375 464.90625 240.90625 466.160156 241.230469 C 468.414062 241.8125 469.628906 239.816406 470.167969 239.328125 C 470.007812 240.109375 470.488281 241.996094 472.074219 242.199219 C 474.917969 242.5625 477.363281 236.4375 478.554688 230.917969 " fill-opacity="1" fill-rule="nonzero"/><path fill="#3d251c" d="M 470.398438 238.988281 C 470.367188 238.988281 470.332031 238.984375 470.296875 238.976562 C 470.105469 238.917969 469.996094 238.71875 470.054688 238.527344 L 472.457031 230.394531 C 472.511719 230.203125 472.714844 230.09375 472.90625 230.148438 C 473.097656 230.207031 473.203125 230.40625 473.148438 230.597656 L 470.746094 238.730469 C 470.699219 238.886719 470.554688 238.988281 470.398438 238.988281 Z M 470.398438 238.988281 " fill-opacity="1" fill-rule="nonzero"/><path fill="#3d251c" d="M 465.6875 237.703125 C 465.667969 237.703125 465.644531 237.699219 465.625 237.695312 C 465.429688 237.660156 465.296875 237.476562 465.332031 237.28125 C 465.742188 234.96875 466.195312 232.640625 466.679688 230.367188 C 466.71875 230.171875 466.910156 230.050781 467.105469 230.089844 C 467.300781 230.132812 467.425781 230.324219 467.382812 230.515625 C 466.902344 232.785156 466.449219 235.101562 466.042969 237.402344 C 466.011719 237.578125 465.859375 237.703125 465.6875 237.703125 Z M 465.6875 237.703125 " fill-opacity="1" fill-rule="nonzero"/><path fill="#3d251c" d="M 461.355469 233.746094 C 461.320312 233.746094 461.285156 233.742188 461.246094 233.730469 C 461.058594 233.671875 460.953125 233.46875 461.011719 233.277344 L 461.929688 230.335938 C 461.988281 230.144531 462.191406 230.035156 462.382812 230.097656 C 462.574219 230.15625 462.679688 230.359375 462.617188 230.550781 L 461.699219 233.496094 C 461.652344 233.648438 461.507812 233.746094 461.355469 233.746094 Z M 461.355469 233.746094 " fill-opacity="1" fill-rule="nonzero"/><path fill="#3d251c" d="M 541.664062 145.058594 C 538.511719 150.109375 543.464844 157.339844 548.714844 160.152344 C 551.300781 161.535156 557.183594 163.96875 558.542969 168.523438 C 559.714844 172.460938 562.4375 172.308594 563.363281 170.136719 C 565.046875 166.210938 571.53125 166.886719 572.261719 163.703125 C 576.40625 145.671875 545.523438 138.875 541.664062 145.058594 " fill-opacity="1" fill-rule="nonzero"/><path fill="#e88772" d="M 562.914062 171.269531 C 563.898438 167.988281 568.359375 163.113281 572.71875 165.691406 C 574.222656 166.578125 575.117188 168.304688 575.25 170.046875 C 575.449219 172.671875 571.75 182.589844 565.34375 180.839844 C 563.097656 180.226562 561.757812 175.105469 562.914062 171.269531 " fill-opacity="1" fill-rule="nonzero"/><path fill="#3d251c" d="M 564.585938 174.667969 C 564.582031 174.667969 564.574219 174.667969 564.570312 174.664062 C 564.371094 174.65625 564.21875 174.488281 564.226562 174.289062 C 564.371094 171.070312 567.496094 167.863281 570.53125 167.8125 C 570.535156 167.8125 570.535156 167.8125 570.539062 167.8125 C 570.734375 167.8125 570.894531 167.96875 570.898438 168.164062 C 570.902344 168.363281 570.742188 168.527344 570.542969 168.53125 C 567.898438 168.578125 565.074219 171.5 564.945312 174.320312 C 564.9375 174.515625 564.777344 174.667969 564.585938 174.667969 Z M 564.585938 174.667969 " fill-opacity="1" fill-rule="nonzero"/><path fill="#3d251c" d="M 563.585938 147.082031 C 553.820312 142.585938 552.402344 133.691406 554.523438 130.019531 C 559.890625 120.714844 572.921875 123.207031 578.660156 127.285156 C 583.523438 130.738281 586.253906 136.378906 585.46875 141.878906 C 584.363281 149.621094 576.632812 153.09375 563.585938 147.082031 " fill-opacity="1" fill-rule="nonzero"/><path fill="#3d251c" d="M 260.976562 360.40625 L 279.003906 360.40625 L 279.003906 562.628906 L 260.976562 562.628906 Z M 260.976562 360.40625 " fill-opacity="1" fill-rule="nonzero"/><path fill="#3d251c" d="M 706.410156 360.40625 L 724.4375 360.40625 L 724.4375 562.628906 L 706.410156 562.628906 Z M 706.410156 360.40625 " fill-opacity="1" fill-rule="nonzero"/><g clip-path="url(#fa13cd3113)"><path fill="#fcfcf0" d="M 252.628906 354.496094 L 732.785156 354.496094 L 732.785156 364.570312 L 252.628906 364.570312 Z M 252.628906 354.496094 " fill-opacity="1" fill-rule="nonzero"/></g><path fill="#e88772" d="M 227.339844 239.355469 L 221.253906 304.105469 L 226.007812 375.894531 L 209.570312 379 C 209.570312 379 193.238281 332.234375 193.164062 311.242188 C 193.125 300.394531 198.222656 240.566406 198.222656 240.566406 Z M 227.339844 239.355469 " fill-opacity="1" fill-rule="nonzero"/><path fill="#e88772" d="M 190.742188 559.121094 C 190.390625 559.113281 195.179688 543.570312 194.667969 542.371094 C 188.480469 527.839844 173.121094 477.015625 176.566406 450.570312 C 177.371094 444.378906 179.035156 438.277344 179.101562 432.027344 C 179.402344 404.757812 152.058594 382.496094 144.570312 338.597656 C 141.675781 321.640625 182.773438 303.785156 186.84375 316.667969 C 192.351562 334.101562 210.578125 394.425781 212.285156 424.945312 C 214.417969 463.046875 209.363281 507.503906 219.410156 542.667969 C 219.410156 542.667969 207.03125 559.515625 190.742188 559.121094 " fill-opacity="1" fill-rule="nonzero"/><path fill="#f5d562" d="M 188.855469 559.488281 L 190.558594 548.042969 C 190.648438 547.421875 191.234375 547 191.851562 547.109375 C 195.929688 547.828125 210.035156 549.5625 216.402344 540.621094 C 217.285156 539.378906 218.96875 539 220.269531 539.804688 C 228.011719 544.582031 233.4375 544.738281 242.882812 547.996094 C 248.445312 549.910156 249.496094 555.550781 249.972656 559.527344 Z M 188.855469 559.488281 " fill-opacity="1" fill-rule="nonzero"/><path fill="#fcfcf0" d="M 249.972656 559.527344 C 250.167969 561.148438 248.886719 562.574219 247.253906 562.574219 L 191.566406 562.628906 C 189.890625 562.632812 188.605469 561.144531 188.855469 559.488281 L 189.027344 558.328125 L 249.796875 558.269531 C 249.867188 558.707031 249.925781 559.136719 249.972656 559.527344 " fill-opacity="1" fill-rule="nonzero"/><path fill="#fcfcf0" d="M 232.550781 551.339844 C 232.507812 551.339844 232.460938 551.332031 232.417969 551.316406 C 232.234375 551.242188 232.144531 551.03125 232.214844 550.847656 L 234.351562 545.398438 C 234.425781 545.210938 234.632812 545.121094 234.820312 545.195312 C 235.003906 545.265625 235.097656 545.476562 235.023438 545.660156 L 232.886719 551.113281 C 232.828125 551.253906 232.695312 551.339844 232.550781 551.339844 Z M 232.550781 551.339844 " fill-opacity="1" fill-rule="nonzero"/><path fill="#fcfcf0" d="M 224.832031 548.949219 C 224.789062 548.949219 224.742188 548.941406 224.699219 548.925781 C 224.515625 548.851562 224.421875 548.640625 224.496094 548.457031 L 226.632812 543.003906 C 226.707031 542.820312 226.914062 542.730469 227.101562 542.800781 C 227.285156 542.875 227.375 543.082031 227.304688 543.269531 L 225.167969 548.71875 C 225.113281 548.863281 224.976562 548.949219 224.832031 548.949219 Z M 224.832031 548.949219 " fill-opacity="1" fill-rule="nonzero"/><path fill="#62c9f5" d="M 136.496094 324.832031 C 138.0625 361.804688 177.214844 413.824219 172.945312 430.113281 C 167.890625 449.417969 173.902344 486.980469 183.265625 552.785156 C 185.453125 552.972656 227.578125 540.882812 229.476562 541.363281 C 230.242188 539.871094 214.296875 457.675781 215.386719 428.613281 C 216.605469 396.054688 187.972656 307.234375 188.3125 304.394531 C 184.632812 305.40625 139.523438 323.996094 136.496094 324.832031 " fill-opacity="1" fill-rule="nonzero"/><path fill="#e88772" d="M 62.042969 541.101562 C 61.726562 540.945312 72.609375 528.863281 72.648438 527.558594 C 73.148438 511.769531 80.597656 459.203125 94.847656 436.660156 C 98.183594 431.382812 102.257812 426.550781 104.949219 420.910156 C 116.695312 396.296875 101.253906 364.59375 112.929688 321.617188 C 117.441406 305.019531 162.234375 306.113281 160.507812 319.511719 C 158.167969 337.644531 149.324219 400.042969 138.035156 428.445312 C 123.9375 463.90625 100.648438 502.109375 94.972656 538.238281 C 94.96875 538.238281 76.652344 548.316406 62.042969 541.101562 " fill-opacity="1" fill-rule="nonzero"/><path fill="#f5d562" d="M 60.609375 540.824219 L 66.890625 531.109375 C 67.230469 530.582031 67.9375 530.4375 68.457031 530.792969 C 71.871094 533.136719 83.996094 540.554688 93.488281 535.046875 C 94.808594 534.277344 96.5 534.632812 97.351562 535.902344 C 102.421875 543.453125 107.292969 545.839844 114.550781 552.710938 C 118.824219 556.761719 117.445312 562.328125 116.234375 566.144531 Z M 60.609375 540.824219 " fill-opacity="1" fill-rule="nonzero"/><g clip-path="url(#03bb3e57b0)"><path fill="#fcfcf0" d="M 116.238281 566.140625 C 115.742188 567.699219 113.992188 568.464844 112.5 567.792969 L 61.777344 544.804688 C 60.253906 544.113281 59.699219 542.230469 60.609375 540.824219 L 61.242188 539.839844 L 116.597656 564.925781 C 116.476562 565.351562 116.355469 565.765625 116.238281 566.140625 " fill-opacity="1" fill-rule="nonzero"/></g><path fill="#fcfcf0" d="M 103.910156 551.511719 C 103.816406 551.511719 103.722656 551.476562 103.652344 551.402344 C 103.511719 551.261719 103.515625 551.03125 103.65625 550.894531 L 107.855469 546.816406 C 108 546.675781 108.226562 546.679688 108.367188 546.820312 C 108.503906 546.964844 108.5 547.191406 108.359375 547.332031 L 104.160156 551.410156 C 104.09375 551.476562 104 551.511719 103.910156 551.511719 Z M 103.910156 551.511719 " fill-opacity="1" fill-rule="nonzero"/><path fill="#fcfcf0" d="M 97.871094 546.140625 C 97.777344 546.140625 97.683594 546.105469 97.613281 546.035156 C 97.472656 545.890625 97.476562 545.660156 97.617188 545.523438 L 101.820312 541.445312 C 101.960938 541.304688 102.191406 541.308594 102.328125 541.449219 C 102.46875 541.59375 102.464844 541.820312 102.324219 541.960938 L 98.121094 546.039062 C 98.050781 546.109375 97.960938 546.140625 97.871094 546.140625 Z M 97.871094 546.140625 " fill-opacity="1" fill-rule="nonzero"/><g clip-path="url(#39f450cafb)"><path fill="#62c9f5" d="M 110.3125 306.453125 C 96.179688 340.65625 110.894531 403.597656 100.171875 416.582031 C 87.464844 431.964844 77.117188 468.570312 57.925781 532.210938 C 59.832031 533.296875 103.132812 540.054688 104.652344 541.292969 C 105.976562 540.261719 126.089844 458.984375 139.300781 433.078125 C 154.105469 404.054688 165.5 311.429688 167 308.996094 C 163.238281 308.367188 111.84375 306.300781 110.3125 306.453125 " fill-opacity="1" fill-rule="nonzero"/></g><path fill="#fcfcf0" d="M 223.085938 213.09375 C 215.910156 200.929688 185.132812 178.683594 160.480469 185.625 C 122.652344 196.269531 111.953125 259.574219 108.164062 298.871094 C 107.734375 303.355469 173.492188 350.886719 179.773438 330.554688 C 185.269531 312.785156 204.59375 276.882812 204.59375 276.882812 L 229.121094 281.667969 C 229.121094 281.667969 235.046875 233.382812 223.085938 213.09375 " fill-opacity="1" fill-rule="nonzero"/><path fill="#f5d562" d="M 109.175781 309.441406 L 109.96875 297.699219 C 109.96875 297.699219 166.738281 225.390625 166.5625 224.5 C 166.3125 223.214844 214.304688 239.449219 214.703125 241.492188 C 215.21875 244.160156 193.839844 304.046875 194.90625 314.398438 C 196.191406 326.855469 219.871094 384.730469 225.304688 414.96875 C 177.277344 415.554688 132.484375 411.410156 130.859375 411.410156 C 133.296875 336.03125 109.175781 309.441406 109.175781 309.441406 " fill-opacity="1" fill-rule="nonzero"/><path fill="#e88772" d="M 209.523438 379.4375 C 203.425781 356.964844 193.726562 318.03125 194.933594 312.269531 C 195.914062 307.574219 216.324219 298.449219 219.941406 311.742188 C 222.363281 320.644531 222.464844 352.730469 224.257812 372.273438 C 220.421875 374.910156 216.585938 377.546875 209.523438 379.4375 " fill-opacity="1" fill-rule="nonzero"/><path fill="#fcfcf0" d="M 199.347656 347.433594 C 198.652344 351.070312 204.738281 369.484375 207.761719 380.519531 C 204.507812 386.5625 207.921875 392.695312 204.230469 397.320312 C 202.585938 399.382812 212.722656 413.761719 215.164062 414.871094 C 218.234375 416.269531 221.414062 408.074219 223.472656 401.546875 C 225.554688 394.945312 225.429688 384.882812 225.804688 379.230469 C 226.179688 373.664062 228.171875 343.480469 227.339844 341.804688 C 226.25 339.601562 199.964844 344.171875 199.347656 347.433594 " fill-opacity="1" fill-rule="nonzero"/><path fill="#3d251c" d="M 316.335938 532.574219 C 315.535156 532.574219 314.734375 532.242188 314.164062 531.589844 L 103.996094 291.335938 C 102.945312 290.140625 103.070312 288.316406 104.265625 287.265625 C 105.464844 286.21875 107.289062 286.339844 108.335938 287.539062 L 318.507812 527.792969 C 319.554688 528.988281 319.433594 530.8125 318.234375 531.859375 C 317.6875 532.339844 317.011719 532.574219 316.335938 532.574219 Z M 316.335938 532.574219 " fill-opacity="1" fill-rule="nonzero"/><path fill="#e88772" d="M 153.21875 212.308594 L 114.875 256.988281 L 141.085938 315.050781 L 121.820312 319.71875 C 121.820312 319.71875 78.785156 268.203125 83.257812 250.859375 C 85.726562 241.296875 130.558594 196.195312 130.558594 196.195312 Z M 153.21875 212.308594 " fill-opacity="1" fill-rule="nonzero"/><path fill="#fcfcf0" d="M 126.96875 284.128906 C 129.628906 284.636719 137.960938 300.859375 143.632812 310.566406 C 148.933594 319.636719 161.253906 339.984375 166.292969 350.792969 C 167.53125 353.453125 164.234375 354.777344 162.324219 351.910156 C 159.566406 347.765625 153.90625 340.828125 153.113281 338.761719 C 152.667969 339.6875 152.078125 343.75 149.3125 344.730469 C 146.53125 345.714844 144.835938 344.335938 144.71875 344.40625 C 142.253906 345.820312 140.195312 343.613281 139.820312 343.75 C 137.714844 344.515625 134.523438 343.328125 132.964844 339.738281 C 131.820312 337.097656 128.355469 327.359375 126.609375 325.71875 C 122.339844 321.699219 102.660156 305.550781 102.585938 303.082031 C 102.453125 298.820312 124.738281 283.703125 126.96875 284.128906 " fill-opacity="1" fill-rule="nonzero"/><path fill="#3d251c" d="M 144.675781 343.972656 C 144.476562 343.972656 144.316406 343.816406 144.3125 343.621094 L 144.210938 338.605469 C 144.207031 338.402344 144.363281 338.238281 144.5625 338.234375 C 144.566406 338.234375 144.566406 338.234375 144.570312 338.234375 C 144.765625 338.234375 144.925781 338.390625 144.929688 338.585938 L 145.035156 343.605469 C 145.039062 343.804688 144.878906 343.96875 144.683594 343.972656 C 144.679688 343.972656 144.675781 343.972656 144.675781 343.972656 Z M 144.675781 343.972656 " fill-opacity="1" fill-rule="nonzero"/><path fill="#3d251c" d="M 139.878906 343.28125 C 139.710938 343.28125 139.558594 343.160156 139.527344 342.988281 L 138.6875 338.570312 C 138.648438 338.375 138.777344 338.1875 138.972656 338.148438 C 139.167969 338.113281 139.355469 338.242188 139.394531 338.4375 L 140.234375 342.851562 C 140.269531 343.046875 140.140625 343.238281 139.945312 343.273438 C 139.925781 343.277344 139.902344 343.28125 139.878906 343.28125 Z M 139.878906 343.28125 " fill-opacity="1" fill-rule="nonzero"/><path fill="#fcfcf0" d="M 132.453125 248.203125 C 132.453125 248.203125 110.074219 226.738281 101.460938 215.621094 C 118.058594 201.125 130.882812 190.855469 155.503906 184.3125 C 170.113281 180.429688 186.976562 185.101562 194.828125 190.441406 C 173.601562 208.972656 132.453125 248.203125 132.453125 248.203125 " fill-opacity="1" fill-rule="nonzero"/><path fill="#3d251c" d="M 249.613281 168.390625 C 251.636719 162.128906 250.785156 149.734375 238.761719 142.1875 C 228.667969 135.851562 219.550781 133.730469 209.578125 139.613281 C 190.515625 150.859375 191.71875 174.5 202.335938 182.667969 C 215.660156 192.914062 242.835938 189.386719 249.613281 168.390625 " fill-opacity="1" fill-rule="nonzero"/><path fill="#e88772" d="M 216.867188 188.460938 C 216.027344 190.292969 206.328125 205.632812 202.941406 215.699219 C 201.75 215.066406 190.089844 200.625 185.257812 192.429688 C 192.816406 185.429688 198.226562 179.691406 201.65625 169.199219 C 201.886719 170.898438 210.804688 183.246094 216.867188 188.460938 " fill-opacity="1" fill-rule="nonzero"/><path fill="#e88772" d="M 238.859375 184.449219 C 241.699219 178.285156 247.09375 172.523438 245.605469 164.179688 C 242.847656 148.71875 223.734375 141.476562 213.304688 149.421875 C 206.804688 154.375 200.457031 166.066406 201.160156 175.90625 C 201.796875 184.839844 211.265625 199.675781 219.667969 200.40625 C 225.632812 200.925781 233.742188 195.5625 238.859375 184.449219 " fill-opacity="1" fill-rule="nonzero"/><path fill="#3d251c" d="M 224.828125 169.226562 C 225.652344 169.828125 225.210938 171.222656 224.761719 171.996094 C 224.4375 172.5625 223.605469 173.691406 222.53125 173.1875 C 221.714844 172.800781 221.703125 171.660156 222.59375 170.246094 C 223.503906 168.808594 224.507812 168.988281 224.828125 169.226562 " fill-opacity="1" fill-rule="nonzero"/><path fill="#3d251c" d="M 223.074219 173.671875 C 222.839844 173.671875 222.605469 173.621094 222.378906 173.511719 C 222.007812 173.335938 221.746094 173.03125 221.632812 172.636719 C 221.433594 171.957031 221.667969 171.042969 222.289062 170.054688 C 223.035156 168.882812 223.847656 168.707031 224.265625 168.707031 C 224.558594 168.707031 224.84375 168.789062 225.042969 168.9375 C 226.097656 169.707031 225.558594 171.339844 225.074219 172.179688 C 224.816406 172.628906 224.105469 173.671875 223.074219 173.671875 Z M 224.265625 169.425781 C 223.996094 169.425781 223.460938 169.558594 222.902344 170.441406 C 222.398438 171.238281 222.1875 171.964844 222.324219 172.433594 C 222.382812 172.632812 222.5 172.773438 222.6875 172.859375 C 222.820312 172.921875 222.945312 172.953125 223.074219 172.953125 C 223.746094 172.953125 224.300781 172.085938 224.453125 171.820312 C 224.847656 171.132812 225.21875 169.953125 224.617188 169.515625 C 224.558594 169.472656 224.433594 169.425781 224.265625 169.425781 Z M 224.265625 169.425781 " fill-opacity="1" fill-rule="nonzero"/><path fill="#e88772" d="M 226.796875 172.097656 C 224.757812 171.910156 221.441406 169.824219 220.003906 168.28125 C 220.003906 168.28125 222.652344 166.578125 225.308594 168.222656 C 227.652344 169.671875 226.796875 172.097656 226.796875 172.097656 " fill-opacity="1" fill-rule="nonzero"/><path fill="#3d251c" d="M 226.796875 172.457031 C 226.785156 172.457031 226.773438 172.457031 226.761719 172.457031 C 224.691406 172.265625 221.289062 170.1875 219.742188 168.527344 C 219.605469 168.382812 219.613281 168.152344 219.757812 168.015625 C 219.90625 167.882812 220.132812 167.890625 220.269531 168.035156 C 221.699219 169.570312 224.941406 171.566406 226.828125 171.738281 C 227.027344 171.757812 227.171875 171.929688 227.152344 172.128906 C 227.136719 172.316406 226.980469 172.457031 226.796875 172.457031 Z M 226.796875 172.457031 " fill-opacity="1" fill-rule="nonzero"/><path fill="#3d251c" d="M 220.964844 164.367188 C 220.570312 164.394531 220.507812 164.929688 220.878906 165.089844 C 225.570312 167.109375 228.378906 170.078125 228.96875 170.273438 C 229.449219 170.425781 230.105469 168.691406 229.644531 168.191406 C 226.617188 164.90625 223.1875 164.214844 220.964844 164.367188 " fill-opacity="1" fill-rule="nonzero"/><path fill="#3d251c" d="M 237.1875 176.191406 C 236.246094 175.800781 235.285156 176.902344 234.851562 177.683594 C 234.535156 178.257812 234 179.550781 234.988281 180.207031 C 235.742188 180.707031 236.722656 180.128906 237.472656 178.632812 C 238.226562 177.109375 237.558594 176.34375 237.1875 176.191406 " fill-opacity="1" fill-rule="nonzero"/><path fill="#3d251c" d="M 235.554688 180.742188 C 235.285156 180.742188 235.027344 180.664062 234.789062 180.503906 C 233.917969 179.925781 233.820312 178.804688 234.535156 177.507812 C 234.980469 176.695312 235.839844 175.746094 236.78125 175.746094 C 236.96875 175.746094 237.152344 175.78125 237.324219 175.855469 C 237.640625 175.988281 237.914062 176.296875 238.058594 176.679688 C 238.214844 177.09375 238.289062 177.792969 237.792969 178.789062 C 237.175781 180.03125 236.359375 180.742188 235.554688 180.742188 Z M 236.78125 176.46875 C 236.199219 176.46875 235.535156 177.1875 235.167969 177.855469 C 234.921875 178.304688 234.429688 179.398438 235.191406 179.902344 C 235.769531 180.292969 236.550781 179.671875 237.148438 178.46875 C 237.535156 177.703125 237.488281 177.210938 237.386719 176.933594 C 237.292969 176.679688 237.125 176.554688 237.050781 176.523438 C 236.960938 176.488281 236.875 176.46875 236.78125 176.46875 Z M 236.78125 176.46875 " fill-opacity="1" fill-rule="nonzero"/><path fill="#e88772" d="M 233.714844 175.996094 C 234.929688 177.640625 238.429688 179.398438 240.492188 179.828125 C 240.492188 179.828125 240.578125 176.683594 237.796875 175.261719 C 235.339844 174.007812 233.714844 175.996094 233.714844 175.996094 " fill-opacity="1" fill-rule="nonzero"/><path fill="#3d251c" d="M 240.492188 180.191406 C 240.46875 180.191406 240.445312 180.1875 240.417969 180.183594 C 238.199219 179.71875 234.660156 177.882812 233.421875 176.210938 C 233.304688 176.050781 233.339844 175.824219 233.5 175.707031 C 233.660156 175.589844 233.886719 175.621094 234.003906 175.78125 C 235.125 177.304688 238.511719 179.046875 240.566406 179.476562 C 240.761719 179.519531 240.886719 179.710938 240.84375 179.902344 C 240.808594 180.074219 240.660156 180.191406 240.492188 180.191406 Z M 240.492188 180.191406 " fill-opacity="1" fill-rule="nonzero"/><path fill="#3d251c" d="M 243.34375 176.984375 C 243.523438 177.335938 243.101562 177.664062 242.769531 177.429688 C 238.617188 174.460938 234.621094 173.597656 234.148438 173.191406 C 233.765625 172.863281 234.910156 171.398438 235.578125 171.535156 C 239.957031 172.425781 242.320312 175 243.34375 176.984375 " fill-opacity="1" fill-rule="nonzero"/><path fill="#3d251c" d="M 228.863281 185.664062 C 227.777344 185.664062 226.828125 185.523438 226.609375 185.492188 C 226.414062 185.460938 226.28125 185.273438 226.308594 185.078125 C 226.339844 184.882812 226.527344 184.75 226.722656 184.777344 C 228.410156 185.046875 231.277344 185.089844 231.808594 184.070312 C 232.226562 183.265625 231.964844 181.085938 231.683594 178.773438 C 231.53125 177.527344 231.378906 176.238281 231.292969 174.953125 C 231.28125 174.753906 231.429688 174.582031 231.628906 174.566406 C 231.824219 174.554688 232 174.707031 232.011719 174.90625 C 232.09375 176.167969 232.25 177.449219 232.402344 178.6875 C 232.71875 181.320312 232.96875 183.398438 232.449219 184.402344 C 231.917969 185.425781 230.277344 185.664062 228.863281 185.664062 Z M 228.863281 185.664062 " fill-opacity="1" fill-rule="nonzero"/><path fill="#3d251c" d="M 227.222656 191.148438 C 227.203125 191.148438 227.183594 191.148438 227.164062 191.144531 C 223.300781 190.511719 219.886719 187.910156 218.25 184.351562 C 218.167969 184.171875 218.246094 183.957031 218.425781 183.875 C 218.609375 183.792969 218.820312 183.871094 218.90625 184.050781 C 220.441406 187.394531 223.652344 189.835938 227.28125 190.433594 C 227.480469 190.464844 227.613281 190.652344 227.578125 190.847656 C 227.550781 191.023438 227.398438 191.148438 227.222656 191.148438 Z M 227.222656 191.148438 " fill-opacity="1" fill-rule="nonzero"/><path fill="#3d251c" d="M 241.996094 152.382812 C 242.460938 158.320312 234.730469 162.449219 228.777344 162.523438 C 225.84375 162.558594 219.5 162.003906 216.195312 165.421875 C 213.339844 168.371094 210.996094 166.980469 211.171875 164.625 C 211.492188 160.367188 205.425781 157.972656 206.246094 154.8125 C 210.886719 136.902344 241.421875 145.117188 241.996094 152.382812 " fill-opacity="1" fill-rule="nonzero"/><path fill="#e88772" d="M 211.050781 165.839844 C 211.691406 162.472656 209.980469 156.089844 204.921875 156.363281 C 203.179688 156.460938 201.589844 157.582031 200.667969 159.0625 C 199.285156 161.300781 197.992188 171.804688 204.480469 173.207031 C 206.753906 173.699219 210.308594 169.773438 211.050781 165.839844 " fill-opacity="1" fill-rule="nonzero"/><path fill="#3d251c" d="M 208.167969 168.121094 C 208.113281 168.121094 208.0625 168.109375 208.015625 168.085938 C 207.835938 168.003906 207.753906 167.789062 207.839844 167.609375 C 209.027344 165.046875 207.871094 161.152344 205.542969 159.890625 C 205.367188 159.796875 205.300781 159.578125 205.398438 159.402344 C 205.492188 159.226562 205.710938 159.160156 205.886719 159.257812 C 208.554688 160.703125 209.847656 164.992188 208.492188 167.914062 C 208.433594 168.042969 208.300781 168.121094 208.167969 168.121094 Z M 208.167969 168.121094 " fill-opacity="1" fill-rule="nonzero"/><path fill="#fcfcf0" d="M 211.726562 389.222656 C 207.460938 393.015625 210.570312 400.265625 215.183594 404.519531 C 214.40625 410.589844 215.316406 417.289062 217.847656 417.214844 C 221.558594 417.105469 223.316406 401.414062 220.128906 387.464844 C 219.613281 385.214844 214.335938 386.90625 211.726562 389.222656 " fill-opacity="1" fill-rule="nonzero"/><path fill="#3d251c" d="M 212.789062 413.015625 C 212.605469 413.015625 212.453125 412.878906 212.429688 412.695312 C 212.320312 411.75 212.546875 410.601562 212.804688 409.269531 C 213.320312 406.652344 213.957031 403.394531 212.132812 400.425781 C 210.625 397.96875 210.355469 393.148438 211.566406 390.308594 C 211.644531 390.125 211.855469 390.039062 212.039062 390.117188 C 212.222656 390.195312 212.308594 390.40625 212.230469 390.589844 C 211.117188 393.203125 211.367188 397.800781 212.746094 400.050781 C 214.71875 403.257812 214.050781 406.667969 213.515625 409.410156 C 213.265625 410.679688 213.050781 411.78125 213.144531 412.613281 C 213.167969 412.8125 213.027344 412.992188 212.828125 413.015625 C 212.816406 413.011719 212.800781 413.015625 212.789062 413.015625 Z M 212.789062 413.015625 " fill-opacity="1" fill-rule="nonzero"/><path fill="#62c9f5" d="M 313.046875 534.1875 L 299.207031 518.371094 C 297.261719 516.144531 297.488281 512.761719 299.714844 510.816406 L 300.605469 510.035156 C 302.832031 508.089844 306.214844 508.3125 308.160156 510.539062 L 321.996094 526.355469 C 323.945312 528.582031 323.71875 531.964844 321.492188 533.914062 L 320.601562 534.691406 C 318.375 536.640625 314.992188 536.414062 313.046875 534.1875 " fill-opacity="1" fill-rule="nonzero"/><path fill="#f5d562" d="M 309.277344 562.628906 C 309.277344 562.628906 296.546875 539.675781 306.042969 527.246094 C 313.675781 517.253906 330.625 518.835938 338.675781 528.480469 C 355.035156 548.070312 346.574219 545.835938 377.625 547.597656 C 395.195312 548.59375 397.105469 562.628906 397.105469 562.628906 Z M 309.277344 562.628906 " fill-opacity="1" fill-rule="nonzero"/><path fill="#3d251c" d="M 237.917969 149.640625 C 239.910156 160.589844 237.851562 165.125 236.582031 167.84375 C 235.941406 169.222656 236.105469 171.226562 238.511719 170.714844 C 241.421875 170.09375 242.429688 168.035156 244.328125 165.597656 C 244.941406 169.8125 241.550781 175.335938 243.125 177.15625 C 244.320312 178.539062 250.980469 170.011719 249.542969 160.355469 C 248.84375 155.640625 245.71875 151.351562 237.917969 149.640625 " fill-opacity="1" fill-rule="nonzero"/><path fill="#f5d562" d="M 165.226562 226.484375 C 170.269531 212.988281 171.148438 196.761719 167.253906 182.882812 C 167.289062 182.769531 172.96875 183.152344 173.015625 183.210938 C 176.980469 197.339844 176.550781 213.140625 171.085938 227.777344 C 170.6875 227.5625 165.964844 226.84375 165.226562 226.484375 " fill-opacity="1" fill-rule="nonzero"/><path fill="#f5d562" d="M 207.476562 243.554688 C 213.675781 230.546875 215.558594 216.136719 212.890625 201.96875 C 212.914062 201.902344 214.941406 203.589844 216.546875 205.121094 C 217.59375 206.117188 218.460938 207.167969 218.476562 207.195312 C 221.199219 221.613281 219.113281 229.511719 213.757812 245.667969 C 213.378906 245.417969 208.179688 243.976562 207.476562 243.554688 " fill-opacity="1" fill-rule="nonzero"/><path fill="#f5d562" d="M 132.734375 246.367188 C 132.664062 246.367188 132.59375 246.34375 132.53125 246.304688 C 132.367188 246.191406 132.328125 245.96875 132.4375 245.804688 C 138.355469 237.140625 145.421875 229.316406 153.4375 222.550781 C 153.589844 222.421875 153.816406 222.441406 153.945312 222.59375 C 154.074219 222.746094 154.054688 222.972656 153.902344 223.101562 C 145.933594 229.824219 138.914062 237.601562 133.03125 246.210938 C 132.964844 246.3125 132.851562 246.367188 132.734375 246.367188 Z M 132.734375 246.367188 " fill-opacity="1" fill-rule="nonzero"/><path fill="#fcfcf0" d="M 214.742188 416.238281 C 214.28125 417.675781 212.289062 418.273438 210.871094 417.660156 C 209.449219 417.046875 208.882812 414.980469 209.171875 413.839844 C 208.292969 414.175781 207.078125 414.300781 206.035156 413.585938 C 204.996094 412.871094 204.195312 411.5625 204.382812 410.554688 C 203.746094 410.757812 202.765625 410.71875 202.03125 410.191406 C 201.296875 409.667969 200.707031 408.550781 200.6875 407.902344 C 200.070312 407.929688 198.847656 407.464844 198.367188 406.691406 C 197.019531 404.523438 196.523438 397.160156 198.648438 396.976562 C 200.050781 396.855469 201.914062 398.96875 202.800781 402.488281 C 203.433594 401.054688 205.472656 397.507812 207.132812 397.890625 C 209.175781 398.359375 208.304688 401.824219 208.398438 402.113281 C 208.59375 401.855469 210.511719 399.609375 211.449219 400.152344 C 213.460938 401.320312 213.25 402.640625 212.949219 403.878906 C 213.296875 403.160156 213.871094 402.285156 215.257812 403.078125 C 217.742188 404.503906 216.539062 410.578125 214.742188 416.238281 " fill-opacity="1" fill-rule="nonzero"/><path fill="#3d251c" d="M 201.144531 406.890625 C 201.125 406.890625 201.101562 406.886719 201.082031 406.882812 C 200.886719 406.851562 200.753906 406.664062 200.789062 406.46875 C 200.882812 405.921875 202.746094 401.289062 204.269531 399.035156 C 205.273438 397.542969 206.601562 396.972656 207.652344 397.582031 C 209.125 398.429688 209.574219 401.410156 207.59375 405.453125 C 207.507812 405.632812 207.289062 405.707031 207.113281 405.621094 C 206.933594 405.53125 206.859375 405.316406 206.949219 405.136719 C 208.929688 401.089844 208.210938 398.738281 207.292969 398.207031 C 206.597656 397.800781 205.644531 398.285156 204.867188 399.4375 C 203.367188 401.660156 201.570312 406.179688 201.5 406.589844 C 201.46875 406.765625 201.316406 406.890625 201.144531 406.890625 Z M 201.144531 406.890625 " fill-opacity="1" fill-rule="nonzero"/><path fill="#fcfcf0" d="M 204.972656 409.734375 C 205.226562 409.289062 206.40625 406.6875 208.710938 402.214844 C 210.945312 397.871094 214.707031 400.964844 212.777344 405.6875 " fill-opacity="1" fill-rule="nonzero"/><path fill="#3d251c" d="M 204.972656 410.097656 C 204.914062 410.097656 204.851562 410.082031 204.796875 410.050781 C 204.625 409.953125 204.5625 409.730469 204.660156 409.558594 C 204.742188 409.410156 204.929688 409.023438 205.226562 408.410156 C 205.835938 407.144531 206.859375 405.023438 208.390625 402.050781 C 209.546875 399.800781 211.03125 399.492188 212.039062 399.957031 C 213.476562 400.617188 214.269531 402.992188 213.113281 405.824219 C 213.035156 406.011719 212.828125 406.097656 212.640625 406.023438 C 212.457031 405.949219 212.371094 405.738281 212.445312 405.554688 C 213.425781 403.152344 212.839844 401.121094 211.738281 400.613281 C 210.839844 400.199219 209.804688 400.875 209.03125 402.378906 C 207.503906 405.347656 206.484375 407.460938 205.878906 408.722656 C 205.570312 409.359375 205.375 409.761719 205.289062 409.914062 C 205.222656 410.03125 205.097656 410.097656 204.972656 410.097656 Z M 204.972656 410.097656 " fill-opacity="1" fill-rule="nonzero"/><path fill="#fcfcf0" d="M 209.570312 413.195312 C 210.574219 409.890625 211.464844 407.378906 212.425781 404.859375 C 213.71875 401.480469 217.140625 402.84375 216.578125 406.597656 C 216.230469 408.875 215.851562 412.726562 215.636719 413.441406 " fill-opacity="1" fill-rule="nonzero"/><path fill="#3d251c" d="M 215.636719 413.800781 C 215.601562 413.800781 215.566406 413.792969 215.53125 413.785156 C 215.339844 413.726562 215.230469 413.527344 215.289062 413.335938 C 215.40625 412.949219 215.601562 411.378906 215.785156 409.863281 C 215.925781 408.710938 216.074219 407.492188 216.21875 406.542969 C 216.492188 404.738281 215.761719 403.5625 214.898438 403.332031 C 214.066406 403.113281 213.230469 403.765625 212.761719 404.988281 C 211.652344 407.894531 210.800781 410.378906 209.914062 413.300781 C 209.855469 413.492188 209.65625 413.601562 209.464844 413.542969 C 209.277344 413.484375 209.167969 413.28125 209.226562 413.09375 C 210.117188 410.152344 210.972656 407.652344 212.089844 404.730469 C 212.828125 402.800781 214.160156 402.398438 215.082031 402.636719 C 216.21875 402.933594 217.285156 404.320312 216.929688 406.652344 C 216.789062 407.59375 216.640625 408.804688 216.5 409.949219 C 216.292969 411.640625 216.117188 413.097656 215.980469 413.546875 C 215.933594 413.699219 215.789062 413.800781 215.636719 413.800781 Z M 215.636719 413.800781 " fill-opacity="1" fill-rule="nonzero"/><path fill="#fcfcf0" d="M 328.757812 561.765625 C 328.683594 561.765625 328.609375 561.746094 328.546875 561.695312 C 327.976562 561.285156 314.578125 551.507812 314.578125 542.296875 C 314.578125 542.097656 314.742188 541.9375 314.941406 541.9375 C 315.136719 541.9375 315.300781 542.097656 315.300781 542.296875 C 315.300781 551.144531 328.832031 561.015625 328.96875 561.113281 C 329.132812 561.226562 329.167969 561.453125 329.050781 561.617188 C 328.980469 561.714844 328.871094 561.765625 328.757812 561.765625 Z M 328.757812 561.765625 " fill-opacity="1" fill-rule="nonzero"/><path fill="#fcfcf0" d="M 353.992188 561.765625 C 353.90625 561.765625 353.824219 561.738281 353.753906 561.679688 C 353.558594 561.507812 334.105469 544.652344 328.96875 538.933594 C 328.835938 538.785156 328.847656 538.558594 328.996094 538.425781 C 329.144531 538.292969 329.375 538.304688 329.507812 538.453125 C 334.613281 544.136719 354.03125 560.964844 354.226562 561.132812 C 354.378906 561.261719 354.394531 561.492188 354.261719 561.640625 C 354.191406 561.722656 354.09375 561.765625 353.992188 561.765625 Z M 353.992188 561.765625 " fill-opacity="1" fill-rule="nonzero"/><g fill="#2ec4b6" fill-opacity="1"><g transform="translate(235.558899, 77.748449)"><g><path d="M 33.375 -39.328125 C 34.59375 -38.703125 35.203125 -37.703125 35.203125 -36.328125 C 35.203125 -35.492188 34.90625 -34.6875 34.3125 -33.90625 C 33.6875 -33.070312 32.878906 -32.65625 31.890625 -32.65625 C 31.222656 -32.65625 30.554688 -32.832031 29.890625 -33.1875 C 27.953125 -34.09375 25.863281 -34.546875 23.625 -34.546875 C 20.863281 -34.546875 18.457031 -33.960938 16.40625 -32.796875 C 14.363281 -31.640625 12.789062 -30.007812 11.6875 -27.90625 C 10.59375 -25.800781 10.046875 -23.390625 10.046875 -20.671875 C 10.046875 -16.023438 11.296875 -12.5 13.796875 -10.09375 C 16.296875 -7.695312 19.570312 -6.5 23.625 -6.5 C 26.03125 -6.5 28.117188 -6.953125 29.890625 -7.859375 C 30.597656 -8.171875 31.226562 -8.328125 31.78125 -8.328125 C 32.800781 -8.328125 33.664062 -7.894531 34.375 -7.03125 C 34.96875 -6.28125 35.265625 -5.472656 35.265625 -4.609375 C 35.265625 -3.972656 35.101562 -3.398438 34.78125 -2.890625 C 34.46875 -2.378906 34.015625 -1.988281 33.421875 -1.71875 C 30.359375 -0.175781 27.09375 0.59375 23.625 0.59375 C 19.769531 0.59375 16.226562 -0.222656 13 -1.859375 C 9.769531 -3.492188 7.1875 -5.90625 5.25 -9.09375 C 3.320312 -12.28125 2.359375 -16.140625 2.359375 -20.671875 C 2.359375 -24.691406 3.273438 -28.296875 5.109375 -31.484375 C 6.941406 -34.671875 9.472656 -37.160156 12.703125 -38.953125 C 15.929688 -40.742188 19.570312 -41.640625 23.625 -41.640625 C 27.125 -41.640625 30.375 -40.867188 33.375 -39.328125 Z M 33.375 -39.328125 "/></g></g></g><g fill="#2ec4b6" fill-opacity="1"><g transform="translate(277.193598, 77.748449)"><g><path d="M 42.46875 -20.671875 C 42.46875 -16.773438 41.597656 -13.203125 39.859375 -9.953125 C 38.128906 -6.703125 35.738281 -4.128906 32.6875 -2.234375 C 29.632812 -0.347656 26.203125 0.59375 22.390625 0.59375 C 18.566406 0.59375 15.128906 -0.347656 12.078125 -2.234375 C 9.023438 -4.128906 6.640625 -6.703125 4.921875 -9.953125 C 3.210938 -13.203125 2.359375 -16.773438 2.359375 -20.671875 C 2.359375 -24.566406 3.210938 -28.140625 4.921875 -31.390625 C 6.640625 -34.640625 9.023438 -37.207031 12.078125 -39.09375 C 15.128906 -40.988281 18.566406 -41.9375 22.390625 -41.9375 C 26.203125 -41.9375 29.632812 -40.988281 32.6875 -39.09375 C 35.738281 -37.207031 38.128906 -34.640625 39.859375 -31.390625 C 41.597656 -28.140625 42.46875 -24.566406 42.46875 -20.671875 Z M 34.78125 -20.671875 C 34.78125 -23.304688 34.25 -25.695312 33.1875 -27.84375 C 32.125 -29.988281 30.644531 -31.691406 28.75 -32.953125 C 26.863281 -34.210938 24.742188 -34.84375 22.390625 -34.84375 C 19.984375 -34.84375 17.84375 -34.222656 15.96875 -32.984375 C 14.101562 -31.742188 12.648438 -30.039062 11.609375 -27.875 C 10.566406 -25.707031 10.046875 -23.304688 10.046875 -20.671875 C 10.046875 -18.035156 10.566406 -15.632812 11.609375 -13.46875 C 12.648438 -11.300781 14.101562 -9.597656 15.96875 -8.359375 C 17.84375 -7.117188 19.984375 -6.5 22.390625 -6.5 C 24.742188 -6.5 26.863281 -7.128906 28.75 -8.390625 C 30.644531 -9.648438 32.125 -11.351562 33.1875 -13.5 C 34.25 -15.644531 34.78125 -18.035156 34.78125 -20.671875 Z M 34.78125 -20.671875 "/></g></g></g><g fill="#2ec4b6" fill-opacity="1"><g transform="translate(326.62356, 77.748449)"><g><path d="M 40.28125 -41.40625 C 41.257812 -41.40625 42.113281 -41.054688 42.84375 -40.359375 C 43.570312 -39.671875 43.9375 -38.816406 43.9375 -37.796875 L 43.9375 -3.609375 C 43.9375 -2.578125 43.601562 -1.71875 42.9375 -1.03125 C 42.269531 -0.34375 41.382812 0 40.28125 0 C 39.175781 0 38.28125 -0.332031 37.59375 -1 C 36.90625 -1.675781 36.5625 -2.546875 36.5625 -3.609375 L 36.5625 -27.40625 L 26.8125 -12.515625 C 26.414062 -12.046875 25.960938 -11.660156 25.453125 -11.359375 C 24.941406 -11.066406 24.410156 -10.941406 23.859375 -10.984375 C 23.347656 -10.941406 22.835938 -11.066406 22.328125 -11.359375 C 21.816406 -11.660156 21.363281 -12.046875 20.96875 -12.515625 L 11.21875 -27.9375 L 11.21875 -3.609375 C 11.21875 -2.546875 10.898438 -1.675781 10.265625 -1 C 9.640625 -0.332031 8.816406 0 7.796875 0 C 6.804688 0 5.992188 -0.34375 5.359375 -1.03125 C 4.734375 -1.71875 4.421875 -2.578125 4.421875 -3.609375 L 4.421875 -37.796875 C 4.421875 -38.785156 4.785156 -39.632812 5.515625 -40.34375 C 6.242188 -41.050781 7.125 -41.40625 8.15625 -41.40625 C 8.738281 -41.40625 9.328125 -41.253906 9.921875 -40.953125 C 10.515625 -40.660156 10.96875 -40.28125 11.28125 -39.8125 L 24.15625 -20.015625 L 37.390625 -39.8125 C 37.703125 -40.28125 38.125 -40.660156 38.65625 -40.953125 C 39.1875 -41.253906 39.726562 -41.40625 40.28125 -41.40625 Z M 40.28125 -41.40625 "/></g></g></g><g fill="#2ec4b6" fill-opacity="1"><g transform="translate(379.596831, 77.748449)"><g><path d="M 27.8125 -6.796875 C 28.84375 -6.796875 29.703125 -6.445312 30.390625 -5.75 C 31.078125 -5.0625 31.421875 -4.265625 31.421875 -3.359375 C 31.421875 -2.378906 31.078125 -1.570312 30.390625 -0.9375 C 29.703125 -0.3125 28.84375 0 27.8125 0 L 8.03125 0 C 7.007812 0 6.148438 -0.34375 5.453125 -1.03125 C 4.765625 -1.71875 4.421875 -2.578125 4.421875 -3.609375 L 4.421875 -37.734375 C 4.421875 -38.765625 4.765625 -39.625 5.453125 -40.3125 C 6.148438 -41 7.007812 -41.34375 8.03125 -41.34375 L 27.8125 -41.34375 C 28.84375 -41.34375 29.703125 -41.015625 30.390625 -40.359375 C 31.078125 -39.710938 31.421875 -38.878906 31.421875 -37.859375 C 31.421875 -36.867188 31.082031 -36.066406 30.40625 -35.453125 C 29.738281 -34.847656 28.875 -34.546875 27.8125 -34.546875 L 11.8125 -34.546875 L 11.8125 -24.515625 L 25.15625 -24.515625 C 26.1875 -24.515625 27.046875 -24.1875 27.734375 -23.53125 C 28.421875 -22.882812 28.765625 -22.050781 28.765625 -21.03125 C 28.765625 -20.039062 28.425781 -19.238281 27.75 -18.625 C 27.082031 -18.019531 26.21875 -17.71875 25.15625 -17.71875 L 11.8125 -17.71875 L 11.8125 -6.796875 Z M 27.8125 -6.796875 "/></g></g></g><g fill="#2ec4b6" fill-opacity="1"><g transform="translate(417.9835, 77.748449)"><g><path d="M 22.140625 -41.34375 C 25.847656 -41.34375 29.03125 -40.425781 31.6875 -38.59375 C 34.34375 -36.757812 36.367188 -34.273438 37.765625 -31.140625 C 39.160156 -28.015625 39.859375 -24.523438 39.859375 -20.671875 C 39.859375 -16.816406 39.160156 -13.320312 37.765625 -10.1875 C 36.367188 -7.0625 34.34375 -4.582031 31.6875 -2.75 C 29.03125 -0.914062 25.847656 0 22.140625 0 L 8.03125 0 C 7.007812 0 6.148438 -0.34375 5.453125 -1.03125 C 4.765625 -1.71875 4.421875 -2.578125 4.421875 -3.609375 L 4.421875 -37.734375 C 4.421875 -38.765625 4.765625 -39.625 5.453125 -40.3125 C 6.148438 -41 7.007812 -41.34375 8.03125 -41.34375 Z M 21.5625 -6.796875 C 25.101562 -6.796875 27.757812 -8.101562 29.53125 -10.71875 C 31.300781 -13.332031 32.1875 -16.648438 32.1875 -20.671875 C 32.1875 -24.691406 31.289062 -28.007812 29.5 -30.625 C 27.707031 -33.238281 25.0625 -34.546875 21.5625 -34.546875 L 11.8125 -34.546875 L 11.8125 -6.796875 Z M 21.5625 -6.796875 "/></g></g></g><g fill="#2ec4b6" fill-opacity="1"><g transform="translate(464.815038, 77.748449)"><g><path d="M 42.46875 -20.671875 C 42.46875 -16.773438 41.597656 -13.203125 39.859375 -9.953125 C 38.128906 -6.703125 35.738281 -4.128906 32.6875 -2.234375 C 29.632812 -0.347656 26.203125 0.59375 22.390625 0.59375 C 18.566406 0.59375 15.128906 -0.347656 12.078125 -2.234375 C 9.023438 -4.128906 6.640625 -6.703125 4.921875 -9.953125 C 3.210938 -13.203125 2.359375 -16.773438 2.359375 -20.671875 C 2.359375 -24.566406 3.210938 -28.140625 4.921875 -31.390625 C 6.640625 -34.640625 9.023438 -37.207031 12.078125 -39.09375 C 15.128906 -40.988281 18.566406 -41.9375 22.390625 -41.9375 C 26.203125 -41.9375 29.632812 -40.988281 32.6875 -39.09375 C 35.738281 -37.207031 38.128906 -34.640625 39.859375 -31.390625 C 41.597656 -28.140625 42.46875 -24.566406 42.46875 -20.671875 Z M 34.78125 -20.671875 C 34.78125 -23.304688 34.25 -25.695312 33.1875 -27.84375 C 32.125 -29.988281 30.644531 -31.691406 28.75 -32.953125 C 26.863281 -34.210938 24.742188 -34.84375 22.390625 -34.84375 C 19.984375 -34.84375 17.84375 -34.222656 15.96875 -32.984375 C 14.101562 -31.742188 12.648438 -30.039062 11.609375 -27.875 C 10.566406 -25.707031 10.046875 -23.304688 10.046875 -20.671875 C 10.046875 -18.035156 10.566406 -15.632812 11.609375 -13.46875 C 12.648438 -11.300781 14.101562 -9.597656 15.96875 -8.359375 C 17.84375 -7.117188 19.984375 -6.5 22.390625 -6.5 C 24.742188 -6.5 26.863281 -7.128906 28.75 -8.390625 C 30.644531 -9.648438 32.125 -11.351562 33.1875 -13.5 C 34.25 -15.644531 34.78125 -18.035156 34.78125 -20.671875 Z M 34.78125 -20.671875 "/></g></g></g><g fill="#2ec4b6" fill-opacity="1"><g transform="translate(514.244988, 77.748449)"><g><path d="M 36.859375 -5.78125 C 37.367188 -5.46875 37.769531 -5.054688 38.0625 -4.546875 C 38.363281 -4.035156 38.515625 -3.503906 38.515625 -2.953125 C 38.515625 -2.242188 38.273438 -1.59375 37.796875 -1 C 37.203125 -0.289062 36.296875 0.0625 35.078125 0.0625 C 34.140625 0.0625 33.273438 -0.15625 32.484375 -0.59375 C 29.648438 -2.207031 28.234375 -5.492188 28.234375 -10.453125 C 28.234375 -11.867188 27.769531 -12.988281 26.84375 -13.8125 C 25.914062 -14.644531 24.585938 -15.0625 22.859375 -15.0625 L 11.8125 -15.0625 L 11.8125 -3.609375 C 11.8125 -2.546875 11.523438 -1.675781 10.953125 -1 C 10.378906 -0.332031 9.625 0 8.6875 0 C 7.539062 0 6.539062 -0.34375 5.6875 -1.03125 C 4.84375 -1.71875 4.421875 -2.578125 4.421875 -3.609375 L 4.421875 -37.734375 C 4.421875 -38.765625 4.765625 -39.625 5.453125 -40.3125 C 6.148438 -41 7.007812 -41.34375 8.03125 -41.34375 L 25.046875 -41.34375 C 27.085938 -41.34375 29.015625 -40.789062 30.828125 -39.6875 C 32.640625 -38.582031 34.085938 -37.066406 35.171875 -35.140625 C 36.253906 -33.210938 36.796875 -31.046875 36.796875 -28.640625 C 36.796875 -26.671875 36.265625 -24.75 35.203125 -22.875 C 34.140625 -21.007812 32.757812 -19.523438 31.0625 -18.421875 C 33.539062 -16.691406 34.898438 -14.367188 35.140625 -11.453125 C 35.253906 -10.828125 35.3125 -10.21875 35.3125 -9.625 C 35.476562 -8.40625 35.640625 -7.53125 35.796875 -7 C 35.953125 -6.46875 36.304688 -6.0625 36.859375 -5.78125 Z M 24.75 -21.140625 C 25.457031 -21.140625 26.144531 -21.472656 26.8125 -22.140625 C 27.476562 -22.816406 28.03125 -23.710938 28.46875 -24.828125 C 28.90625 -25.953125 29.125 -27.164062 29.125 -28.46875 C 29.125 -29.570312 28.90625 -30.582031 28.46875 -31.5 C 28.03125 -32.425781 27.476562 -33.164062 26.8125 -33.71875 C 26.144531 -34.269531 25.457031 -34.546875 24.75 -34.546875 L 11.8125 -34.546875 L 11.8125 -21.140625 Z M 24.75 -21.140625 "/></g></g></g></svg>