<svg xmlns="http://www.w3.org/2000/svg" xmlns:xlink="http://www.w3.org/1999/xlink" width="1052" zoomAndPan="magnify" viewBox="0 0 788.88 699.000001" height="932" preserveAspectRatio="xMidYMid meet" version="1.0"><defs><g/><clipPath id="6d142171bd"><path d="M 31.210938 20.96875 L 759.167969 20.96875 L 759.167969 91.09375 L 31.210938 91.09375 Z M 31.210938 20.96875 " clip-rule="nonzero"/></clipPath><clipPath id="04bcd4c408"><path d="M 1.0625 20.96875 L 70.019531 20.96875 L 70.019531 91.09375 L 1.0625 91.09375 Z M 1.0625 20.96875 " clip-rule="nonzero"/></clipPath><clipPath id="545a2eaa9a"><path d="M 35.542969 20.96875 C 16.5 20.96875 1.0625 36.667969 1.0625 56.03125 C 1.0625 75.398438 16.5 91.09375 35.542969 91.09375 C 54.585938 91.09375 70.019531 75.398438 70.019531 56.03125 C 70.019531 36.667969 54.585938 20.96875 35.542969 20.96875 Z M 35.542969 20.96875 " clip-rule="nonzero"/></clipPath><clipPath id="1227228db0"><path d="M 718.726562 20.96875 L 787.683594 20.96875 L 787.683594 91.09375 L 718.726562 91.09375 Z M 718.726562 20.96875 " clip-rule="nonzero"/></clipPath><clipPath id="7e4fe45b46"><path d="M 753.203125 20.96875 C 734.164062 20.96875 718.726562 36.667969 718.726562 56.03125 C 718.726562 75.398438 734.164062 91.09375 753.203125 91.09375 C 772.246094 91.09375 787.683594 75.398438 787.683594 56.03125 C 787.683594 36.667969 772.246094 20.96875 753.203125 20.96875 Z M 753.203125 20.96875 " clip-rule="nonzero"/></clipPath><clipPath id="0cabd759ea"><path d="M 372 117.90625 L 402 117.90625 L 402 147 L 372 147 Z M 372 117.90625 " clip-rule="nonzero"/></clipPath><clipPath id="e0b7789d62"><path d="M 146 403 L 658.726562 403 L 658.726562 412 L 146 412 Z M 146 403 " clip-rule="nonzero"/></clipPath></defs><g clip-path="url(#6d142171bd)"><path fill="#ffffff" d="M 31.210938 20.96875 L 759.167969 20.96875 L 759.167969 91.09375 L 31.210938 91.09375 Z M 31.210938 20.96875 " fill-opacity="1" fill-rule="nonzero"/></g><g clip-path="url(#04bcd4c408)"><g clip-path="url(#545a2eaa9a)"><path fill="#ffffff" d="M 1.0625 20.96875 L 70.019531 20.96875 L 70.019531 91.09375 L 1.0625 91.09375 Z M 1.0625 20.96875 " fill-opacity="1" fill-rule="nonzero"/></g></g><g clip-path="url(#1227228db0)"><g clip-path="url(#7e4fe45b46)"><path fill="#ffffff" d="M 718.726562 20.96875 L 787.683594 20.96875 L 787.683594 91.09375 L 718.726562 91.09375 Z M 718.726562 20.96875 " fill-opacity="1" fill-rule="nonzero"/></g></g><path fill="#e24747" d="M 340.609375 290.570312 C 340.304688 291.027344 338.910156 290.71875 336.820312 289.8125 C 333.9375 288.570312 329.730469 286.214844 325.222656 283.238281 C 320.382812 280.042969 316.332031 276.882812 314.148438 274.6875 C 312.816406 273.359375 312.171875 272.382812 312.441406 271.972656 C 312.703125 271.578125 313.773438 271.757812 315.40625 272.390625 C 318.273438 273.507812 322.867188 276.027344 327.828125 279.304688 C 332.402344 282.324219 336.269531 285.316406 338.527344 287.488281 C 340.105469 289.007812 340.902344 290.125 340.609375 290.570312 " fill-opacity="1" fill-rule="nonzero"/><path fill="#f0ac87" d="M 438.238281 615.015625 L 437.0625 633.867188 L 434.808594 669.925781 C 428.171875 676.824219 421.539062 676.824219 414.902344 669.925781 L 412.671875 634.207031 L 411.472656 615.015625 L 438.238281 615.015625 " fill-opacity="1" fill-rule="nonzero"/><path fill="#f15d5d" d="M 445.355469 688.417969 C 445.429688 689.292969 444.582031 690.042969 443.535156 690.042969 L 405.390625 690.042969 C 399.648438 690.441406 414.855469 669.132812 414.855469 669.132812 C 421.800781 670.613281 428.394531 670.496094 435.164062 668.988281 C 435.164062 668.988281 444.921875 682.496094 445.355469 688.417969 " fill-opacity="1" fill-rule="nonzero"/><path fill="#e24747" d="M 445.035156 686.691406 C 444.703125 687.085938 444.15625 687.351562 443.535156 687.351562 L 405.390625 687.351562 C 404.910156 687.382812 404.574219 687.261719 404.359375 687.011719 C 403.808594 688.910156 403.976562 690.140625 405.390625 690.042969 L 443.535156 690.042969 C 444.582031 690.042969 445.429688 689.292969 445.355469 688.417969 C 445.316406 687.894531 445.207031 687.316406 445.035156 686.691406 " fill-opacity="1" fill-rule="nonzero"/><path fill="#e24747" d="M 429.433594 682.878906 L 419.628906 682.878906 C 419.457031 682.878906 419.316406 682.738281 419.316406 682.566406 C 419.316406 682.394531 419.457031 682.25 419.628906 682.25 L 429.433594 682.25 C 429.613281 682.25 429.746094 682.394531 429.746094 682.566406 C 429.746094 682.738281 429.613281 682.878906 429.433594 682.878906 " fill-opacity="1" fill-rule="nonzero"/><path fill="#e24747" d="M 431.324219 674.410156 L 418.105469 674.410156 C 417.933594 674.410156 417.792969 674.269531 417.792969 674.097656 C 417.792969 673.921875 417.933594 673.777344 418.105469 673.777344 L 431.324219 673.777344 C 431.5 673.777344 431.640625 673.921875 431.640625 674.097656 C 431.640625 674.269531 431.5 674.410156 431.324219 674.410156 " fill-opacity="1" fill-rule="nonzero"/><path fill="#e24747" d="M 430.59375 678.648438 L 418.832031 678.648438 C 418.660156 678.648438 418.515625 678.507812 418.515625 678.332031 C 418.515625 678.15625 418.660156 678.015625 418.832031 678.015625 L 430.59375 678.015625 C 430.769531 678.015625 430.914062 678.15625 430.914062 678.332031 C 430.914062 678.507812 430.769531 678.648438 430.59375 678.648438 " fill-opacity="1" fill-rule="nonzero"/><path fill="#ce7f5f" d="M 438.238281 615.015625 L 437.0625 633.867188 C 425.863281 635.246094 417.652344 634.820312 412.671875 634.207031 L 411.472656 615.015625 L 438.238281 615.015625 " fill-opacity="1" fill-rule="nonzero"/><path fill="#f0ac87" d="M 315.96875 616.183594 L 312.316406 630.503906 L 302.707031 669.714844 C 292.867188 676.035156 286.039062 675.1875 282.8125 666.46875 L 286.6875 634.945312 L 289.066406 615.957031 L 289.664062 611.207031 L 304.277344 613.96875 L 315.238281 616.046875 L 315.96875 616.183594 " fill-opacity="1" fill-rule="nonzero"/><path fill="#f15d5d" d="M 306.929688 690.046875 L 257.832031 690.046875 C 256.371094 690.046875 255.652344 688.277344 256.691406 687.257812 C 259.421875 684.589844 262.199219 682.007812 265.046875 679.539062 C 265.140625 679.453125 265.234375 679.371094 265.332031 679.285156 C 265.429688 679.203125 265.527344 679.117188 265.625 679.035156 C 267.058594 677.800781 268.511719 676.589844 269.984375 675.414062 C 270.082031 675.332031 270.1875 675.253906 270.289062 675.171875 C 270.390625 675.089844 270.496094 675.007812 270.59375 674.925781 C 271.855469 673.933594 273.132812 672.957031 274.421875 672.003906 C 274.53125 671.925781 274.636719 671.84375 274.742188 671.765625 C 274.851562 671.6875 274.964844 671.609375 275.074219 671.53125 C 277.417969 669.820312 280.359375 668 282.8125 666.46875 C 289.742188 667.691406 295.738281 667.789062 303.476562 666.664062 L 308.898438 687.605469 C 309.175781 688.855469 308.21875 690.046875 306.929688 690.046875 " fill-opacity="1" fill-rule="nonzero"/><path fill="#e24747" d="M 308.675781 686.582031 C 308.332031 687.179688 307.691406 687.59375 306.929688 687.59375 L 257.832031 687.59375 C 257.398438 687.59375 257.03125 687.441406 256.753906 687.199219 C 256.734375 687.214844 256.714844 687.234375 256.691406 687.257812 C 255.652344 688.277344 256.371094 690.046875 257.832031 690.046875 L 306.929688 690.046875 C 308.21875 690.046875 309.175781 688.855469 308.898438 687.605469 L 308.675781 686.582031 " fill-opacity="1" fill-rule="nonzero"/><path fill="#e24747" d="M 274.5625 682.527344 C 274.519531 682.664062 274.386719 682.75 274.25 682.75 C 274.210938 682.75 274.179688 682.738281 274.136719 682.730469 L 265.046875 679.539062 C 265.140625 679.453125 265.234375 679.371094 265.332031 679.285156 C 265.429688 679.203125 265.527344 679.117188 265.625 679.035156 L 274.359375 682.101562 C 274.535156 682.160156 274.625 682.351562 274.5625 682.527344 " fill-opacity="1" fill-rule="nonzero"/><path fill="#e24747" d="M 276.660156 677.40625 C 276.613281 677.542969 276.480469 677.628906 276.347656 677.628906 C 276.308594 677.628906 276.273438 677.625 276.234375 677.609375 L 269.984375 675.414062 C 270.082031 675.332031 270.1875 675.253906 270.289062 675.171875 C 270.390625 675.089844 270.496094 675.007812 270.59375 674.925781 L 276.453125 676.984375 C 276.632812 677.042969 276.722656 677.234375 276.660156 677.40625 " fill-opacity="1" fill-rule="nonzero"/><path fill="#e24747" d="M 279.246094 673.347656 C 279.203125 673.484375 279.070312 673.570312 278.933594 673.570312 C 278.898438 673.570312 278.863281 673.566406 278.820312 673.550781 L 274.421875 672.003906 C 274.53125 671.925781 274.636719 671.84375 274.742188 671.765625 C 274.851562 671.6875 274.964844 671.609375 275.074219 671.53125 L 279.042969 672.921875 C 279.21875 672.980469 279.308594 673.171875 279.246094 673.347656 " fill-opacity="1" fill-rule="nonzero"/><path fill="#ce7f5f" d="M 315.238281 616.046875 L 312.316406 630.503906 L 286.6875 634.945312 L 289.066406 615.957031 L 304.277344 613.96875 L 315.238281 616.046875 " fill-opacity="1" fill-rule="nonzero"/><path fill="#3495c6" d="M 325.011719 613.003906 C 324.753906 614.722656 314.746094 614.667969 302.652344 612.886719 C 290.5625 611.101562 280.960938 608.257812 281.21875 606.535156 C 281.472656 604.8125 291.484375 604.867188 303.578125 606.652344 C 315.667969 608.4375 325.265625 611.28125 325.011719 613.003906 " fill-opacity="1" fill-rule="nonzero"/><path fill="#3495c6" d="M 446.691406 609.675781 C 446.691406 611.417969 436.78125 612.828125 424.558594 612.828125 C 412.332031 612.828125 402.421875 611.417969 402.421875 609.675781 C 402.421875 607.9375 412.332031 606.53125 424.558594 606.53125 C 436.78125 606.53125 446.691406 607.9375 446.691406 609.675781 " fill-opacity="1" fill-rule="nonzero"/><path fill="#f15d5d" d="M 463.109375 276.816406 C 462.644531 276.097656 460.65625 276.089844 457.785156 276.679688 C 454.828125 277.277344 450.9375 278.492188 446.789062 280.191406 C 441.191406 282.488281 434.257812 287.046875 434.25 287.050781 C 433.140625 288.007812 432.609375 288.8125 432.828125 289.351562 L 421.253906 268.367188 C 421.253906 268.367188 422.230469 277.777344 421.40625 285.417969 C 419.972656 298.761719 417.480469 311.164062 413.503906 322.261719 C 396.769531 327.941406 380.132812 328.015625 363.613281 322.261719 C 356.519531 313.777344 359.136719 262 359.136719 262 L 340.609375 290.570312 C 340.902344 290.125 340.105469 289.007812 338.527344 287.488281 C 336.269531 285.316406 332.402344 282.324219 327.828125 279.304688 C 322.867188 276.027344 318.273438 273.507812 315.40625 272.390625 C 313.773438 271.757812 312.703125 271.578125 312.441406 271.972656 C 312.6875 271.609375 330.734375 244.933594 336.828125 238.773438 C 342.964844 232.5625 346.832031 228.636719 354.382812 228.535156 C 356.320312 228.507812 358.4375 228.476562 360.699219 228.441406 C 363.359375 228.410156 366.203125 228.371094 369.167969 228.328125 C 382.613281 228.164062 398.460938 227.988281 409.964844 227.949219 C 412.15625 227.941406 414.195312 227.9375 416.023438 227.941406 C 416.828125 227.941406 417.632812 227.988281 418.4375 228.0625 C 426.652344 228.867188 434.722656 233.546875 439.953125 238.859375 C 445.289062 244.273438 462.023438 274.828125 463.109375 276.816406 " fill-opacity="1" fill-rule="nonzero"/><path fill="#ec6768" d="M 463.167969 276.921875 L 463.164062 276.921875 C 463.164062 276.914062 463.160156 276.902344 463.160156 276.898438 C 463.164062 276.914062 463.167969 276.921875 463.167969 276.921875 " fill-opacity="1" fill-rule="nonzero"/><path fill="#f0ac87" d="M 389.878906 239.359375 C 383.921875 239.359375 379.230469 234.289062 379.695312 228.355469 L 380.417969 219.15625 L 381.46875 205.742188 L 382.636719 190.886719 L 397.117188 190.886719 L 398.695312 210.910156 L 400.058594 228.355469 C 400.527344 234.289062 395.832031 239.359375 389.878906 239.359375 " fill-opacity="1" fill-rule="nonzero"/><path fill="#51a8dc" d="M 451.878906 418.4375 L 442.328125 610.546875 L 441.816406 620.925781 L 407.070312 620.925781 L 405.90625 600.386719 L 396.5625 435.835938 L 395.042969 409.011719 L 323.039062 606.945312 L 317.957031 620.925781 L 285.070312 620.925781 L 287.296875 608.699219 L 327.292969 389.441406 C 332.171875 356.25 343.292969 334.027344 363.332031 322.429688 C 358.679688 315.933594 354.820312 289.5625 352.796875 273.238281 C 351.898438 265.984375 357.503906 259.574219 364.792969 259.464844 C 364.855469 259.460938 364.917969 259.460938 364.984375 259.460938 L 411.121094 259.460938 C 418.492188 259.460938 424.207031 265.898438 423.3125 273.210938 C 421.34375 289.289062 417.699219 314.664062 413.503906 322.261719 C 438.238281 333.324219 451.878906 370.089844 451.878906 418.4375 " fill-opacity="1" fill-rule="nonzero"/><path fill="#3495c6" d="M 387.039062 327.570312 C 383.296875 327.570312 380.015625 327.257812 377.285156 326.828125 C 368.503906 325.457031 363.28125 322.636719 363.230469 322.609375 C 363.128906 322.558594 363.097656 322.429688 363.148438 322.332031 C 363.203125 322.226562 363.328125 322.191406 363.429688 322.246094 C 363.480469 322.277344 368.652344 325.0625 377.363281 326.421875 C 385.40625 327.679688 398.1875 327.941406 413.429688 322.070312 C 413.539062 322.027344 413.65625 322.082031 413.699219 322.1875 C 413.742188 322.292969 413.6875 322.417969 413.578125 322.457031 C 403.425781 326.367188 394.359375 327.570312 387.039062 327.570312 " fill-opacity="1" fill-rule="nonzero"/><path fill="#3495c6" d="M 413.738281 259.734375 C 413.738281 259.734375 413.441406 266.121094 412.546875 270.378906 C 412.0625 272.675781 410.597656 274.355469 407.449219 273.902344 C 404.1875 273.4375 403.160156 271.273438 403.5 268.988281 C 404.109375 264.949219 405.289062 259.460938 405.289062 259.460938 L 413.738281 259.734375 " fill-opacity="1" fill-rule="nonzero"/><path fill="#51a8dc" d="M 418.4375 228.0625 L 412.230469 269.894531 C 411.886719 272.183594 409.75 273.765625 407.460938 273.425781 C 405.160156 273.085938 403.582031 270.953125 403.917969 268.65625 L 409.964844 227.949219 C 412.15625 227.941406 414.195312 227.9375 416.023438 227.941406 C 416.828125 227.941406 417.632812 227.988281 418.4375 228.0625 " fill-opacity="1" fill-rule="nonzero"/><path fill="#3495c6" d="M 371.84375 274.105469 C 369.070312 274.542969 366.972656 272.527344 366.601562 270.230469 L 365.300781 259.449219 C 365.363281 259.445312 373.789062 259.460938 373.789062 259.460938 L 375.609375 269.101562 C 375.984375 271.390625 374.347656 273.710938 371.84375 274.105469 " fill-opacity="1" fill-rule="nonzero"/><path fill="#51a8dc" d="M 371.664062 273.710938 C 369.367188 274.050781 367.226562 272.46875 366.894531 270.175781 L 360.699219 228.441406 C 363.359375 228.410156 366.203125 228.371094 369.167969 228.328125 L 375.195312 268.945312 C 375.542969 271.238281 373.957031 273.371094 371.664062 273.710938 " fill-opacity="1" fill-rule="nonzero"/><path fill="#3495c6" d="M 372.734375 268.367188 C 372.734375 269.398438 371.898438 270.230469 370.871094 270.230469 C 369.839844 270.230469 369 269.398438 369 268.367188 C 369 267.335938 369.839844 266.503906 370.871094 266.503906 C 371.898438 266.503906 372.734375 267.335938 372.734375 268.367188 " fill-opacity="1" fill-rule="nonzero"/><path fill="#3495c6" d="M 410.015625 268.75 C 410.015625 269.777344 409.179688 270.613281 408.152344 270.613281 C 407.121094 270.613281 406.289062 269.777344 406.289062 268.75 C 406.289062 267.722656 407.121094 266.882812 408.152344 266.882812 C 409.179688 266.882812 410.015625 267.722656 410.015625 268.75 " fill-opacity="1" fill-rule="nonzero"/><path fill="#3495c6" d="M 388.054688 306.109375 C 381.480469 306.109375 376.152344 300.785156 376.152344 294.214844 L 376.152344 282.324219 L 399.957031 282.324219 L 399.957031 294.214844 C 399.957031 300.785156 394.625 306.109375 388.054688 306.109375 " fill-opacity="1" fill-rule="nonzero"/><path fill="#3495c6" d="M 404.597656 324.984375 C 404.546875 324.984375 404.484375 324.960938 404.445312 324.917969 C 404.367188 324.828125 404.378906 324.695312 404.46875 324.625 C 406.675781 322.71875 406.761719 318.734375 406.761719 318.695312 C 406.765625 318.582031 406.859375 318.488281 406.972656 318.488281 C 406.976562 318.488281 406.976562 318.488281 406.976562 318.488281 C 407.089844 318.492188 407.179688 318.585938 407.179688 318.699219 C 407.175781 318.871094 407.089844 322.910156 404.734375 324.933594 C 404.699219 324.972656 404.648438 324.984375 404.597656 324.984375 " fill-opacity="1" fill-rule="nonzero"/><path fill="#3495c6" d="M 374.988281 326.421875 C 374.933594 326.421875 374.878906 326.398438 374.839844 326.359375 C 372.792969 324.261719 373.015625 317.898438 373.023438 317.628906 C 373.03125 317.515625 373.121094 317.429688 373.242188 317.429688 C 373.355469 317.433594 373.445312 317.535156 373.441406 317.648438 C 373.4375 317.710938 373.210938 324.097656 375.136719 326.070312 C 375.214844 326.152344 375.214844 326.28125 375.132812 326.363281 C 375.09375 326.398438 375.039062 326.421875 374.988281 326.421875 " fill-opacity="1" fill-rule="nonzero"/><path fill="#3495c6" d="M 351.585938 356.390625 C 351.167969 356.390625 350.730469 356.378906 350.28125 356.34375 C 350.167969 356.335938 350.082031 356.242188 350.089844 356.125 C 350.09375 356.011719 350.195312 355.925781 350.308594 355.933594 C 355.679688 356.296875 359.71875 354.492188 362.320312 350.566406 C 364.269531 347.632812 364.632812 344.542969 364.640625 344.511719 C 364.648438 344.398438 364.753906 344.320312 364.867188 344.332031 C 364.976562 344.339844 365.058594 344.445312 365.050781 344.558594 C 365.03125 344.6875 364.671875 347.769531 362.675781 350.785156 C 360.949219 353.398438 357.648438 356.390625 351.585938 356.390625 " fill-opacity="1" fill-rule="nonzero"/><path fill="#3495c6" d="M 357.570312 364.804688 C 357.46875 364.804688 357.382812 364.734375 357.367188 364.632812 L 356.066406 357.820312 C 356.046875 357.707031 356.117188 357.597656 356.230469 357.574219 C 356.34375 357.554688 356.453125 357.628906 356.476562 357.738281 L 357.773438 364.554688 C 357.792969 364.667969 357.71875 364.777344 357.605469 364.800781 C 357.59375 364.800781 357.578125 364.804688 357.570312 364.804688 " fill-opacity="1" fill-rule="nonzero"/><path fill="#3495c6" d="M 365.335938 359.152344 C 365.269531 359.152344 365.203125 359.121094 365.164062 359.0625 L 361.769531 354.097656 C 361.707031 354.003906 361.730469 353.871094 361.824219 353.808594 C 361.917969 353.746094 362.046875 353.769531 362.109375 353.863281 L 365.507812 358.832031 C 365.570312 358.925781 365.546875 359.054688 365.453125 359.117188 C 365.417969 359.144531 365.375 359.152344 365.335938 359.152344 " fill-opacity="1" fill-rule="nonzero"/><path fill="#3495c6" d="M 370.304688 351.65625 C 370.273438 351.65625 370.238281 351.648438 370.207031 351.628906 L 365.230469 348.804688 C 365.132812 348.75 365.101562 348.625 365.15625 348.523438 C 365.210938 348.425781 365.339844 348.386719 365.441406 348.441406 L 370.410156 351.269531 C 370.507812 351.328125 370.542969 351.453125 370.484375 351.554688 C 370.449219 351.617188 370.382812 351.65625 370.304688 351.65625 " fill-opacity="1" fill-rule="nonzero"/><path fill="#3495c6" d="M 431.359375 356.980469 C 425.304688 356.980469 422 353.980469 420.269531 351.371094 C 418.277344 348.351562 417.914062 345.277344 417.898438 345.144531 C 417.886719 345.03125 417.96875 344.929688 418.082031 344.914062 C 418.195312 344.902344 418.296875 344.988281 418.3125 345.101562 C 418.316406 345.132812 418.679688 348.21875 420.628906 351.15625 C 423.226562 355.074219 427.269531 356.878906 432.640625 356.515625 C 432.757812 356.507812 432.851562 356.597656 432.863281 356.710938 C 432.871094 356.824219 432.78125 356.925781 432.667969 356.933594 C 432.21875 356.960938 431.785156 356.980469 431.359375 356.980469 " fill-opacity="1" fill-rule="nonzero"/><path fill="#3495c6" d="M 425.378906 365.386719 C 425.367188 365.386719 425.355469 365.386719 425.339844 365.382812 C 425.226562 365.367188 425.15625 365.257812 425.175781 365.144531 L 426.476562 358.324219 C 426.492188 358.214844 426.601562 358.140625 426.714844 358.160156 C 426.828125 358.179688 426.902344 358.289062 426.882812 358.402344 L 425.585938 365.222656 C 425.566406 365.320312 425.476562 365.386719 425.378906 365.386719 " fill-opacity="1" fill-rule="nonzero"/><path fill="#3495c6" d="M 417.609375 359.742188 C 417.570312 359.742188 417.527344 359.726562 417.496094 359.707031 C 417.402344 359.640625 417.375 359.511719 417.441406 359.414062 L 420.835938 354.453125 C 420.902344 354.355469 421.03125 354.328125 421.125 354.398438 C 421.21875 354.460938 421.246094 354.585938 421.179688 354.683594 L 417.785156 359.652344 C 417.742188 359.710938 417.679688 359.742188 417.609375 359.742188 " fill-opacity="1" fill-rule="nonzero"/><path fill="#3495c6" d="M 412.640625 352.238281 C 412.570312 352.238281 412.496094 352.203125 412.460938 352.136719 C 412.40625 352.035156 412.4375 351.910156 412.539062 351.855469 L 417.511719 349.03125 C 417.609375 348.972656 417.738281 349.007812 417.792969 349.105469 C 417.851562 349.207031 417.8125 349.332031 417.714844 349.390625 L 412.746094 352.214844 C 412.710938 352.230469 412.675781 352.238281 412.640625 352.238281 " fill-opacity="1" fill-rule="nonzero"/><path fill="#3495c6" d="M 405.847656 404.753906 L 396.5625 435.835938 L 395.042969 409.011719 C 395.042969 409.011719 399.699219 408.265625 405.847656 404.753906 " fill-opacity="1" fill-rule="nonzero"/><path fill="#e24747" d="M 459.910156 280.597656 C 457.378906 282.3125 453.582031 284.289062 449.203125 286.078125 C 443.78125 288.3125 438.789062 289.703125 435.765625 289.972656 C 434.128906 290.117188 433.066406 289.925781 432.828125 289.355469 C 432.609375 288.8125 433.140625 288.007812 434.25 287.050781 C 434.257812 287.039062 434.273438 287.035156 434.28125 287.027344 C 436.550781 285.074219 441.199219 282.484375 446.789062 280.191406 C 450.9375 278.492188 454.824219 277.273438 457.785156 276.679688 C 460.792969 276.066406 462.828125 276.097656 463.164062 276.921875 C 463.484375 277.695312 462.226562 279.039062 459.910156 280.597656 " fill-opacity="1" fill-rule="nonzero"/><path fill="#ce7f5f" d="M 398.695312 210.910156 L 380.417969 219.15625 L 381.46875 205.742188 Z M 398.695312 210.910156 " fill-opacity="1" fill-rule="nonzero"/><g clip-path="url(#0cabd759ea)"><path fill="#383336" d="M 400.351562 135.933594 C 398.414062 141.128906 395.34375 145.421875 395.34375 145.421875 L 387.3125 146.042969 L 383.753906 146.320312 C 383.753906 146.320312 383.542969 146.089844 383.175781 145.671875 C 381.949219 144.277344 379.007812 140.777344 376.558594 136.710938 C 371.585938 128.46875 368.644531 117.90625 386.207031 117.90625 C 403.636719 117.90625 403.320312 127.980469 400.351562 135.933594 " fill-opacity="1" fill-rule="nonzero"/></g><path fill="#ec6768" d="M 400.351562 135.933594 C 398.414062 141.128906 395.34375 145.421875 395.34375 145.421875 L 387.3125 146.042969 C 386.035156 145.9375 384.621094 145.808594 383.175781 145.671875 C 381.949219 144.277344 379.007812 140.777344 376.558594 136.710938 C 380.941406 135.539062 390.199219 133.753906 400.351562 135.933594 " fill-opacity="1" fill-rule="nonzero"/><path fill="#383336" d="M 373.023438 202.085938 C 363.5625 197.796875 340.082031 137.53125 389.667969 137.53125 C 434.949219 137.53125 417.6875 191 406.785156 200.238281 C 395.878906 209.472656 383.652344 205.582031 373.023438 202.085938 " fill-opacity="1" fill-rule="nonzero"/><path fill="#f0ac87" d="M 389.503906 213.589844 C 378.429688 213.589844 364.210938 198.910156 362.40625 192.007812 C 360.003906 182.765625 350.632812 139.375 389.503906 139.324219 C 428.371094 139.375 418.996094 182.765625 416.59375 192.007812 C 414.796875 198.910156 400.570312 213.589844 389.503906 213.589844 " fill-opacity="1" fill-rule="nonzero"/><path fill="#fef7f0" d="M 383.054688 177.46875 C 382.921875 178.171875 378.523438 180.335938 373.753906 179.449219 C 368.984375 178.5625 365.703125 174.691406 365.78125 174.261719 C 365.855469 173.855469 369.824219 171.667969 374.28125 172.164062 C 374.550781 172.191406 374.816406 172.234375 375.085938 172.28125 C 376.335938 172.515625 377.492188 172.933594 378.511719 173.441406 C 381.367188 174.859375 383.152344 176.953125 383.054688 177.46875 " fill-opacity="1" fill-rule="nonzero"/><path fill="#383336" d="M 383.058594 177.46875 C 383.070312 177.363281 383.027344 177.269531 382.988281 177.175781 C 382.949219 177.078125 382.894531 176.992188 382.839844 176.90625 C 382.730469 176.734375 382.605469 176.574219 382.472656 176.417969 C 382.207031 176.105469 381.917969 175.816406 381.613281 175.546875 C 381.003906 175 380.339844 174.523438 379.636719 174.105469 C 378.238281 173.269531 376.695312 172.671875 375.09375 172.390625 C 373.496094 172.121094 371.851562 172.207031 370.273438 172.542969 C 369.484375 172.710938 368.710938 172.953125 367.960938 173.246094 C 367.585938 173.390625 367.214844 173.554688 366.859375 173.738281 C 366.683594 173.828125 366.511719 173.929688 366.34375 174.03125 C 366.265625 174.085938 366.1875 174.140625 366.113281 174.199219 C 366.078125 174.226562 366.042969 174.257812 366.015625 174.28125 C 365.988281 174.304688 365.972656 174.347656 365.988281 174.296875 C 365.992188 174.25 365.988281 174.292969 366.003906 174.324219 C 366.023438 174.363281 366.046875 174.398438 366.070312 174.4375 C 366.113281 174.515625 366.167969 174.597656 366.226562 174.679688 C 366.339844 174.832031 366.46875 174.984375 366.597656 175.136719 C 366.867188 175.4375 367.152344 175.71875 367.449219 175.996094 C 368.042969 176.535156 368.679688 177.039062 369.359375 177.476562 C 370.707031 178.363281 372.210938 179.03125 373.796875 179.355469 C 375.390625 179.664062 377.046875 179.664062 378.65625 179.386719 C 379.460938 179.242188 380.253906 179.039062 381.015625 178.746094 C 381.402344 178.601562 381.777344 178.4375 382.132812 178.242188 C 382.3125 178.140625 382.488281 178.039062 382.65625 177.914062 C 382.738281 177.855469 382.8125 177.792969 382.890625 177.722656 C 382.957031 177.648438 383.035156 177.574219 383.058594 177.46875 Z M 383.058594 177.46875 C 383.035156 177.574219 382.957031 177.648438 382.890625 177.722656 C 382.816406 177.792969 382.738281 177.863281 382.65625 177.921875 C 382.492188 178.042969 382.316406 178.152344 382.140625 178.25 C 381.777344 178.445312 381.40625 178.613281 381.027344 178.761719 C 380.261719 179.058594 379.46875 179.28125 378.667969 179.441406 C 377.0625 179.761719 375.390625 179.824219 373.761719 179.554688 C 372.132812 179.277344 370.570312 178.648438 369.164062 177.777344 C 368.464844 177.335938 367.796875 176.839844 367.179688 176.289062 C 366.871094 176.007812 366.574219 175.71875 366.296875 175.40625 C 366.15625 175.25 366.023438 175.089844 365.898438 174.917969 C 365.828125 174.832031 365.769531 174.746094 365.710938 174.648438 C 365.683594 174.601562 365.65625 174.550781 365.628906 174.492188 C 365.617188 174.464844 365.601562 174.425781 365.589844 174.390625 C 365.582031 174.367188 365.570312 174.289062 365.574219 174.222656 C 365.59375 174.164062 365.628906 174.089844 365.652344 174.074219 C 365.675781 174.042969 365.703125 174.007812 365.71875 173.992188 C 365.765625 173.945312 365.8125 173.910156 365.855469 173.875 C 365.945312 173.804688 366.03125 173.746094 366.125 173.6875 C 366.304688 173.574219 366.488281 173.472656 366.675781 173.375 C 367.046875 173.1875 367.425781 173.019531 367.816406 172.871094 C 368.589844 172.574219 369.390625 172.355469 370.207031 172.195312 C 371.832031 171.890625 373.511719 171.855469 375.132812 172.1875 C 376.753906 172.515625 378.289062 173.175781 379.667969 174.054688 C 380.359375 174.488281 381.019531 174.980469 381.625 175.53125 C 381.925781 175.808594 382.214844 176.097656 382.480469 176.414062 C 382.609375 176.570312 382.738281 176.730469 382.84375 176.902344 C 382.898438 176.992188 382.949219 177.078125 382.988281 177.175781 C 383.03125 177.265625 383.070312 177.363281 383.058594 177.46875 " fill-opacity="1" fill-rule="nonzero"/><path fill="#383336" d="M 378.617188 174.199219 C 378.617188 175.660156 377.4375 176.84375 375.972656 176.84375 C 374.507812 176.84375 373.328125 175.660156 373.328125 174.199219 C 373.328125 173.382812 373.695312 172.648438 374.28125 172.164062 C 374.550781 172.191406 374.816406 172.234375 375.085938 172.28125 C 376.335938 172.515625 377.492188 172.933594 378.511719 173.441406 C 378.582031 173.683594 378.617188 173.9375 378.617188 174.199219 " fill-opacity="1" fill-rule="nonzero"/><path fill="#fef7f0" d="M 376.878906 174.179688 C 376.878906 174.683594 376.472656 175.089844 375.972656 175.089844 C 375.472656 175.089844 375.066406 174.683594 375.066406 174.179688 C 375.066406 173.683594 375.472656 173.277344 375.972656 173.277344 C 376.472656 173.277344 376.878906 173.683594 376.878906 174.179688 " fill-opacity="1" fill-rule="nonzero"/><path fill="#fef7f0" d="M 395.734375 177.46875 C 395.871094 178.171875 400.269531 180.335938 405.039062 179.445312 C 409.808594 178.5625 413.089844 174.691406 413.011719 174.261719 C 412.933594 173.855469 408.960938 171.667969 404.507812 172.164062 C 404.242188 172.191406 403.976562 172.234375 403.707031 172.28125 C 402.453125 172.515625 401.300781 172.933594 400.28125 173.441406 C 397.425781 174.859375 395.640625 176.949219 395.734375 177.46875 " fill-opacity="1" fill-rule="nonzero"/><path fill="#383336" d="M 395.734375 177.46875 C 395.71875 177.363281 395.761719 177.265625 395.800781 177.175781 C 395.84375 177.078125 395.890625 176.992188 395.945312 176.902344 C 396.054688 176.730469 396.183594 176.570312 396.3125 176.414062 C 396.574219 176.097656 396.867188 175.808594 397.167969 175.53125 C 397.769531 174.980469 398.429688 174.488281 399.125 174.054688 C 400.503906 173.175781 402.039062 172.515625 403.65625 172.1875 C 405.277344 171.855469 406.960938 171.890625 408.585938 172.195312 C 409.402344 172.355469 410.203125 172.574219 410.976562 172.871094 C 411.363281 173.019531 411.746094 173.1875 412.117188 173.375 C 412.300781 173.472656 412.488281 173.574219 412.667969 173.6875 C 412.757812 173.746094 412.84375 173.804688 412.933594 173.875 C 412.980469 173.910156 413.027344 173.945312 413.070312 173.992188 C 413.089844 174.007812 413.117188 174.042969 413.140625 174.074219 C 413.160156 174.089844 413.199219 174.164062 413.210938 174.222656 C 413.21875 174.285156 413.210938 174.367188 413.203125 174.390625 C 413.1875 174.425781 413.175781 174.464844 413.160156 174.492188 C 413.132812 174.550781 413.109375 174.601562 413.082031 174.648438 C 413.019531 174.746094 412.960938 174.832031 412.894531 174.917969 C 412.769531 175.089844 412.632812 175.25 412.496094 175.40625 C 412.214844 175.71875 411.917969 176.007812 411.609375 176.289062 C 410.992188 176.839844 410.328125 177.335938 409.628906 177.777344 C 408.21875 178.648438 406.660156 179.277344 405.03125 179.554688 C 403.398438 179.824219 401.730469 179.761719 400.125 179.441406 C 399.324219 179.28125 398.53125 179.058594 397.765625 178.761719 C 397.386719 178.613281 397.011719 178.445312 396.652344 178.25 C 396.476562 178.152344 396.300781 178.042969 396.136719 177.921875 C 396.054688 177.863281 395.972656 177.792969 395.902344 177.722656 C 395.832031 177.648438 395.757812 177.574219 395.734375 177.46875 Z M 395.734375 177.46875 C 395.757812 177.574219 395.832031 177.648438 395.902344 177.722656 C 395.976562 177.792969 396.054688 177.855469 396.136719 177.914062 C 396.304688 178.039062 396.476562 178.140625 396.65625 178.242188 C 397.015625 178.4375 397.390625 178.601562 397.773438 178.746094 C 398.535156 179.039062 399.332031 179.242188 400.132812 179.386719 C 401.742188 179.664062 403.398438 179.664062 404.992188 179.355469 C 406.582031 179.03125 408.085938 178.363281 409.433594 177.476562 C 410.113281 177.039062 410.75 176.535156 411.34375 175.996094 C 411.640625 175.71875 411.925781 175.4375 412.1875 175.136719 C 412.324219 174.984375 412.453125 174.832031 412.5625 174.679688 C 412.625 174.597656 412.675781 174.515625 412.722656 174.4375 C 412.746094 174.398438 412.769531 174.359375 412.78125 174.324219 C 412.804688 174.292969 412.800781 174.25 412.804688 174.296875 C 412.816406 174.347656 412.804688 174.304688 412.777344 174.28125 C 412.75 174.257812 412.714844 174.226562 412.675781 174.199219 C 412.605469 174.140625 412.527344 174.085938 412.445312 174.03125 C 412.277344 173.929688 412.105469 173.828125 411.929688 173.738281 C 411.574219 173.554688 411.207031 173.390625 410.832031 173.246094 C 410.078125 172.953125 409.304688 172.710938 408.519531 172.542969 C 406.9375 172.207031 405.296875 172.121094 403.695312 172.390625 C 402.097656 172.671875 400.554688 173.269531 399.15625 174.105469 C 398.453125 174.523438 397.789062 175 397.175781 175.546875 C 396.875 175.816406 396.585938 176.105469 396.316406 176.417969 C 396.1875 176.574219 396.058594 176.734375 395.953125 176.90625 C 395.898438 176.992188 395.84375 177.078125 395.800781 177.175781 C 395.765625 177.265625 395.71875 177.363281 395.734375 177.46875 " fill-opacity="1" fill-rule="nonzero"/><path fill="#383336" d="M 400.167969 174.199219 C 400.167969 175.660156 401.355469 176.84375 402.820312 176.84375 C 404.28125 176.84375 405.464844 175.660156 405.464844 174.199219 C 405.464844 173.382812 405.09375 172.648438 404.507812 172.164062 C 404.242188 172.191406 403.976562 172.234375 403.707031 172.28125 C 402.453125 172.515625 401.300781 172.933594 400.28125 173.441406 C 400.210938 173.683594 400.167969 173.9375 400.167969 174.199219 " fill-opacity="1" fill-rule="nonzero"/><path fill="#fef7f0" d="M 401.910156 174.179688 C 401.910156 174.683594 402.320312 175.089844 402.820312 175.089844 C 403.320312 175.089844 403.726562 174.683594 403.726562 174.179688 C 403.726562 173.683594 403.320312 173.277344 402.820312 173.277344 C 402.320312 173.277344 401.910156 173.683594 401.910156 174.179688 " fill-opacity="1" fill-rule="nonzero"/><path fill="#383336" d="M 381.40625 169.46875 L 382.023438 165.582031 L 380.953125 166.554688 L 379.835938 165.582031 C 379.835938 165.582031 371.136719 162.476562 364.628906 169.46875 C 364.628906 169.46875 375.25 166.265625 381.40625 169.46875 " fill-opacity="1" fill-rule="nonzero"/><path fill="#383336" d="M 395.683594 169.46875 L 395.070312 165.582031 L 396.136719 166.554688 L 397.253906 165.582031 C 397.253906 165.582031 405.953125 162.476562 412.460938 169.46875 C 412.460938 169.46875 401.839844 166.265625 395.683594 169.46875 " fill-opacity="1" fill-rule="nonzero"/><path fill="#383336" d="M 389.074219 200.335938 C 384.757812 200.335938 381.917969 197.574219 381.875 197.53125 C 381.796875 197.453125 381.796875 197.320312 381.875 197.242188 C 381.957031 197.160156 382.089844 197.160156 382.171875 197.242188 C 382.183594 197.253906 383.726562 198.773438 386.230469 199.523438 C 389.574219 200.527344 392.957031 199.75 396.277344 197.222656 C 396.367188 197.148438 396.5 197.167969 396.566406 197.257812 C 396.640625 197.355469 396.621094 197.480469 396.53125 197.550781 C 393.785156 199.640625 391.246094 200.335938 389.074219 200.335938 " fill-opacity="1" fill-rule="nonzero"/><path fill="#383336" d="M 389.109375 202.242188 C 387.910156 202.242188 387.265625 201.949219 387.230469 201.929688 C 387.125 201.878906 387.082031 201.753906 387.132812 201.652344 C 387.179688 201.550781 387.304688 201.503906 387.40625 201.554688 C 387.421875 201.558594 388.769531 202.164062 391.253906 201.539062 C 391.363281 201.511719 391.476562 201.578125 391.503906 201.691406 C 391.53125 201.796875 391.460938 201.910156 391.351562 201.941406 C 390.464844 202.164062 389.714844 202.242188 389.109375 202.242188 " fill-opacity="1" fill-rule="nonzero"/><path fill="#383336" d="M 388.269531 190.324219 C 387.746094 190.324219 387.253906 190.105469 386.890625 189.710938 C 386.480469 189.269531 386.308594 188.675781 386.421875 188.082031 L 389.304688 172.886719 C 389.320312 172.773438 389.429688 172.703125 389.542969 172.726562 C 389.65625 172.746094 389.730469 172.855469 389.710938 172.964844 L 386.828125 188.15625 C 386.742188 188.621094 386.871094 189.082031 387.195312 189.433594 C 387.519531 189.78125 387.972656 189.949219 388.441406 189.898438 L 391.890625 189.511719 C 392.003906 189.5 392.109375 189.585938 392.121094 189.699219 C 392.132812 189.8125 392.050781 189.914062 391.9375 189.925781 L 388.488281 190.308594 C 388.417969 190.316406 388.34375 190.324219 388.269531 190.324219 " fill-opacity="1" fill-rule="nonzero"/><path fill="#383336" d="M 365.78125 174.464844 C 365.730469 174.464844 365.675781 174.449219 365.632812 174.40625 L 363.851562 172.625 C 363.769531 172.542969 363.769531 172.414062 363.851562 172.332031 C 363.933594 172.25 364.0625 172.25 364.140625 172.332031 L 365.929688 174.113281 C 366.011719 174.195312 366.011719 174.324219 365.929688 174.40625 C 365.886719 174.449219 365.832031 174.464844 365.78125 174.464844 " fill-opacity="1" fill-rule="nonzero"/><path fill="#383336" d="M 366.714844 173.792969 C 366.640625 173.792969 366.566406 173.75 366.53125 173.679688 L 365.59375 171.84375 C 365.542969 171.738281 365.585938 171.613281 365.6875 171.5625 C 365.789062 171.511719 365.914062 171.554688 365.964844 171.652344 L 366.902344 173.488281 C 366.953125 173.59375 366.910156 173.714844 366.8125 173.769531 C 366.78125 173.785156 366.746094 173.792969 366.714844 173.792969 " fill-opacity="1" fill-rule="nonzero"/><path fill="#383336" d="M 413.011719 174.464844 C 412.949219 174.464844 412.894531 174.445312 412.855469 174.394531 C 412.777344 174.308594 412.785156 174.175781 412.875 174.105469 L 414.96875 172.324219 C 415.054688 172.246094 415.183594 172.253906 415.257812 172.34375 C 415.335938 172.429688 415.324219 172.5625 415.234375 172.636719 L 413.144531 174.417969 C 413.109375 174.453125 413.058594 174.464844 413.011719 174.464844 " fill-opacity="1" fill-rule="nonzero"/><path fill="#383336" d="M 412.382812 173.792969 C 412.351562 173.792969 412.320312 173.785156 412.289062 173.769531 C 412.1875 173.714844 412.144531 173.59375 412.199219 173.488281 L 413.128906 171.652344 C 413.183594 171.554688 413.304688 171.511719 413.410156 171.5625 C 413.511719 171.613281 413.550781 171.738281 413.5 171.84375 L 412.570312 173.679688 C 412.53125 173.75 412.457031 173.792969 412.382812 173.792969 " fill-opacity="1" fill-rule="nonzero"/><path fill="#f0ac87" d="M 355.363281 179.398438 C 356.632812 183.761719 360.34375 188.570312 362.972656 187.804688 C 365.601562 187.039062 364.332031 183.820312 363.058594 179.457031 C 361.792969 175.09375 362.15625 175.375 359.960938 171.539062 C 358.601562 169.167969 354.09375 175.035156 355.363281 179.398438 " fill-opacity="1" fill-rule="nonzero"/><path fill="#383336" d="M 360.515625 179.5625 C 360.472656 179.5625 360.425781 179.546875 360.390625 179.515625 C 360.375 179.507812 359.089844 178.507812 357.625 179.109375 C 357.519531 179.15625 357.398438 179.105469 357.351562 178.996094 C 357.3125 178.894531 357.363281 178.769531 357.464844 178.730469 C 358.550781 178.28125 359.523438 178.574219 360.101562 178.859375 C 359.6875 177.933594 358.691406 176.203125 357.058594 176.382812 C 356.945312 176.390625 356.839844 176.316406 356.828125 176.199219 C 356.820312 176.085938 356.894531 175.984375 357.011719 175.96875 C 359.558594 175.6875 360.671875 179.144531 360.714844 179.296875 C 360.742188 179.382812 360.710938 179.476562 360.632812 179.527344 C 360.601562 179.554688 360.558594 179.5625 360.515625 179.5625 " fill-opacity="1" fill-rule="nonzero"/><path fill="#f0ac87" d="M 423.632812 179.398438 C 422.363281 183.761719 418.65625 188.570312 416.027344 187.804688 C 413.398438 187.039062 414.664062 183.820312 415.9375 179.457031 C 417.207031 175.09375 416.84375 175.375 419.039062 171.539062 C 420.398438 169.167969 424.90625 175.035156 423.632812 179.398438 " fill-opacity="1" fill-rule="nonzero"/><path fill="#383336" d="M 418.480469 179.5625 C 418.4375 179.5625 418.398438 179.554688 418.367188 179.527344 C 418.289062 179.476562 418.253906 179.382812 418.28125 179.296875 C 418.328125 179.144531 419.441406 175.691406 421.988281 175.96875 C 422.101562 175.984375 422.179688 176.085938 422.167969 176.199219 C 422.160156 176.316406 422.058594 176.398438 421.941406 176.382812 C 420.308594 176.199219 419.308594 177.933594 418.898438 178.859375 C 419.476562 178.574219 420.449219 178.28125 421.53125 178.730469 C 421.636719 178.769531 421.6875 178.894531 421.648438 178.996094 C 421.601562 179.105469 421.480469 179.15625 421.375 179.109375 C 419.898438 178.507812 418.625 179.507812 418.609375 179.515625 C 418.570312 179.546875 418.523438 179.5625 418.480469 179.5625 " fill-opacity="1" fill-rule="nonzero"/><path fill="#383336" d="M 359.429688 170.992188 C 359.429688 170.992188 364.832031 164.003906 367.636719 157.070312 C 367.636719 157.070312 383.617188 157.414062 391.914062 151.632812 C 391.914062 151.632812 405.207031 159.46875 412.460938 158.722656 C 412.460938 158.722656 416.402344 168.34375 419.328125 171.191406 C 419.328125 171.191406 426.554688 138.113281 389.210938 138.113281 C 351.871094 138.113281 359.429688 170.992188 359.429688 170.992188 " fill-opacity="1" fill-rule="nonzero"/><path fill="#383336" d="M 391.914062 151.632812 C 391.914062 151.632812 390.351562 157.046875 378.617188 161.519531 C 378.617188 161.519531 381.074219 158.839844 381.539062 157.21875 C 381.539062 157.21875 378.175781 162.3125 373.328125 163.851562 C 373.328125 163.851562 376.386719 161.125 377.246094 158.699219 C 377.246094 158.699219 373.984375 163.070312 369 165.304688 C 369 165.304688 369.726562 164.339844 371.109375 161.585938 C 371.109375 161.585938 364.820312 168.496094 359.675781 171.191406 L 359.5625 170.320312 L 364.886719 155.414062 C 364.886719 155.414062 376.199219 151.167969 376.558594 151.167969 C 376.921875 151.167969 389.210938 148.839844 389.210938 148.839844 L 393.207031 149.628906 L 391.914062 151.632812 " fill-opacity="1" fill-rule="nonzero"/><path fill="#383336" d="M 391.914062 151.632812 C 391.914062 151.632812 393.488281 159.28125 401.140625 162.265625 C 401.140625 162.265625 399.183594 160.308594 399.09375 158.257812 C 399.09375 158.257812 401.332031 163.980469 407.582031 164.894531 C 407.582031 164.894531 405.867188 163.292969 405.464844 161.425781 C 405.464844 161.425781 413.699219 169.925781 419.328125 171.191406 L 417.480469 157.785156 L 409.917969 150.886719 L 396.402344 145.664062 L 391.914062 151.632812 " fill-opacity="1" fill-rule="nonzero"/><path fill="#383336" d="M 415.769531 169.289062 C 415.769531 169.289062 415.949219 200.335938 407.550781 212.648438 C 407.550781 212.648438 419.867188 196.15625 419.328125 171.191406 C 418.78125 146.226562 414.488281 163.25 414.488281 163.25 L 415.769531 169.289062 " fill-opacity="1" fill-rule="nonzero"/><path fill="#383336" d="M 358.835938 162.835938 C 358.835938 162.835938 355.140625 186.601562 369.445312 213.589844 C 369.445312 213.589844 360.390625 185.34375 363.171875 168.910156 C 365.957031 152.472656 358.835938 162.835938 358.835938 162.835938 " fill-opacity="1" fill-rule="nonzero"/><path fill="#3495c6" d="M 323.039062 606.945312 L 317.957031 620.925781 L 285.070312 620.925781 L 287.296875 608.699219 C 290.925781 609.316406 309.933594 612.140625 323.039062 606.945312 " fill-opacity="1" fill-rule="nonzero"/><path fill="#3495c6" d="M 442.328125 610.546875 L 441.816406 620.925781 L 407.070312 620.925781 L 405.90625 600.386719 C 410.742188 603.460938 424.796875 611.242188 442.328125 610.546875 " fill-opacity="1" fill-rule="nonzero"/><path fill="#51a8dc" d="M 443.761719 627.632812 C 429.554688 630.480469 417.050781 630.597656 405.1875 627.742188 C 403.558594 627.34375 402.421875 625.875 402.421875 624.195312 L 402.421875 609.699219 C 416.195312 613.214844 432.152344 612.828125 446.691406 609.699219 L 446.691406 624.054688 C 446.691406 625.792969 445.464844 627.292969 443.761719 627.632812 " fill-opacity="1" fill-rule="nonzero"/><path fill="#f15d5d" d="M 354.050781 363.992188 C 354.050781 363.992188 354.960938 362.820312 363.359375 363.675781 C 371.753906 364.535156 373.152344 365.960938 373.152344 365.960938 L 370.5 368.003906 L 358.058594 366.792969 L 355.726562 365.773438 L 354.050781 363.992188 " fill-opacity="1" fill-rule="nonzero"/><path fill="#51a8dc" d="M 319.488281 630.339844 C 305.011719 631.078125 292.628906 629.367188 281.3125 624.804688 C 279.753906 624.179688 278.847656 622.554688 279.09375 620.898438 L 281.214844 606.558594 C 294.320312 612.042969 310.164062 613.996094 325.007812 613.027344 L 322.910156 627.226562 C 322.652344 628.945312 321.222656 630.25 319.488281 630.339844 " fill-opacity="1" fill-rule="nonzero"/><path fill="#efc2c2" d="M 376.660156 366.726562 C 365.988281 364.207031 356.792969 363.832031 350.515625 364.035156 C 348.726562 364.09375 347.527344 362.21875 348.332031 360.621094 L 349.3125 358.667969 C 349.664062 357.96875 350.347656 357.484375 351.125 357.386719 C 368.789062 355.175781 376.0625 359.183594 379.054688 362.957031 C 380.453125 364.71875 378.847656 367.246094 376.660156 366.726562 Z M 421.164062 388.238281 C 420.625 387.144531 420.078125 386.078125 419.515625 385.042969 C 418.347656 382.867188 417.136719 380.824219 415.882812 378.894531 C 406.390625 364.285156 394.652344 356.480469 383.492188 352.480469 C 369.25 347.367188 355.953125 348.457031 349.492188 349.5 C 347.015625 349.902344 344.980469 351.675781 344.234375 354.070312 L 344.152344 354.328125 L 337.707031 374.9375 L 337.15625 376.691406 C 336.195312 379.761719 337.195312 383.023438 339.519531 385.042969 C 340.082031 385.535156 340.730469 385.957031 341.445312 386.28125 L 348.605469 389.546875 L 350.101562 390.230469 C 350.683594 390.492188 351.3125 390.628906 351.949219 390.628906 L 419.675781 390.628906 C 420.417969 390.628906 421 390.160156 421.230469 389.546875 C 421.375 389.140625 421.375 388.679688 421.164062 388.238281 " fill-opacity="1" fill-rule="nonzero"/><path fill="#e24747" d="M 463.15625 276.894531 C 463.144531 276.871094 463.132812 276.851562 463.113281 276.828125 C 463.132812 276.855469 463.144531 276.882812 463.15625 276.894531 " fill-opacity="1" fill-rule="nonzero"/><path fill="#f0ac87" d="M 521.808594 383.945312 C 515.765625 382.582031 512.894531 383.410156 508.886719 379.070312 C 507.210938 377.257812 480.207031 324.46875 480.207031 324.46875 L 459.414062 276.398438 C 458.910156 276.464844 458.363281 276.558594 457.785156 276.679688 C 454.828125 277.277344 450.9375 278.492188 446.789062 280.191406 C 442.097656 282.117188 436.777344 284.941406 434.453125 286.828125 L 459.03125 334.851562 L 459.65625 335.996094 C 459.738281 336.140625 459.832031 336.285156 459.9375 336.417969 L 468.046875 346.984375 C 470.753906 350.503906 473.441406 354.035156 476.167969 357.542969 C 476.167969 357.542969 495.085938 383.574219 496.796875 386.242188 C 498.535156 388.945312 500.847656 391.433594 504.75 391.433594 C 508.65625 391.433594 528.816406 391.441406 532.921875 391.441406 C 535.441406 391.441406 525.898438 384.867188 521.808594 383.945312 " fill-opacity="1" fill-rule="nonzero"/><path fill="#f0ac87" d="M 371.832031 349.496094 C 373.476562 349.773438 375.324219 350.152344 375.324219 350.152344 C 375.6875 348.371094 367.164062 343.027344 365.335938 341.980469 C 363.507812 340.9375 354.925781 339.050781 351.621094 335.917969 L 323.824219 307.460938 L 336.722656 289.945312 L 336.820312 289.8125 L 338.527344 287.488281 C 336.269531 285.316406 332.402344 282.324219 327.828125 279.304688 C 322.867188 276.027344 318.273438 273.507812 315.40625 272.390625 L 314.148438 274.6875 L 298.050781 304.015625 L 297.507812 305.140625 C 295.191406 309.945312 296.601562 315.859375 301.101562 319.054688 C 301.101562 319.054688 343.152344 346.503906 343.328125 346.617188 C 348.925781 356.367188 352.566406 361.667969 354.488281 360.558594 C 355.460938 359.996094 355.191406 359.355469 355.09375 359.195312 C 355.722656 360.226562 358.304688 364.203125 360.507812 363.746094 C 363.03125 363.226562 362.640625 361.703125 362.640625 361.703125 C 362.640625 361.703125 364.386719 364.167969 366.472656 363.269531 C 368.796875 362.269531 368.039062 360.722656 368.039062 360.722656 C 368.039062 360.722656 369.4375 363.445312 372.222656 362.53125 C 373.617188 362.074219 374.148438 361.128906 374.332031 360.292969 C 374.496094 359.566406 374.378906 358.804688 374.050781 358.136719 C 373.183594 356.335938 370.605469 349.964844 371.832031 349.496094 " fill-opacity="1" fill-rule="nonzero"/><path fill="#ce7f5f" d="M 355.09375 359.402344 C 355.027344 359.402344 354.960938 359.367188 354.917969 359.300781 L 352.828125 355.925781 C 352.769531 355.824219 352.796875 355.699219 352.894531 355.640625 C 352.992188 355.578125 353.121094 355.609375 353.179688 355.703125 L 355.269531 359.085938 C 355.335938 359.179688 355.304688 359.308594 355.203125 359.371094 C 355.171875 359.386719 355.136719 359.402344 355.09375 359.402344 " fill-opacity="1" fill-rule="nonzero"/><path fill="#f15d5d" d="M 421.230469 389.546875 C 421 390.160156 420.417969 390.628906 419.675781 390.628906 L 351.949219 390.628906 C 351.3125 390.628906 350.683594 390.492188 350.101562 390.230469 L 348.605469 389.546875 L 341.445312 386.28125 C 340.730469 385.957031 340.082031 385.535156 339.519531 385.042969 L 419.515625 385.042969 C 420.078125 386.078125 420.625 387.144531 421.164062 388.238281 C 421.375 388.679688 421.375 389.140625 421.230469 389.546875 " fill-opacity="1" fill-rule="nonzero"/><path fill="#ce7f5f" d="M 362.640625 361.910156 C 362.566406 361.910156 362.5 361.871094 362.457031 361.808594 L 359.484375 356.566406 C 359.429688 356.46875 359.460938 356.339844 359.5625 356.28125 C 359.660156 356.226562 359.789062 356.265625 359.847656 356.363281 L 362.820312 361.597656 C 362.878906 361.699219 362.84375 361.824219 362.742188 361.882812 C 362.710938 361.902344 362.675781 361.910156 362.640625 361.910156 " fill-opacity="1" fill-rule="nonzero"/><path fill="#ce7f5f" d="M 368.039062 360.929688 C 367.960938 360.929688 367.886719 360.890625 367.851562 360.8125 L 365.3125 355.707031 C 365.261719 355.609375 365.304688 355.480469 365.410156 355.433594 C 365.511719 355.378906 365.632812 355.421875 365.683594 355.523438 L 368.222656 360.632812 C 368.277344 360.730469 368.230469 360.859375 368.132812 360.90625 C 368.101562 360.921875 368.070312 360.929688 368.039062 360.929688 " fill-opacity="1" fill-rule="nonzero"/><path fill="#a9aeb7" d="M 421.230469 389.546875 C 421 390.160156 420.417969 390.628906 419.675781 390.628906 L 351.949219 390.628906 C 351.3125 390.628906 350.683594 390.492188 350.101562 390.230469 L 348.605469 389.546875 L 421.230469 389.546875 " fill-opacity="1" fill-rule="nonzero"/><path fill="#ce7f5f" d="M 532.460938 391.203125 C 532.40625 391.203125 532.351562 391.183594 532.3125 391.144531 C 529.664062 388.550781 524.914062 386.761719 524.867188 386.742188 C 524.761719 386.703125 524.707031 386.582031 524.746094 386.476562 C 524.785156 386.367188 524.90625 386.3125 525.015625 386.355469 C 525.210938 386.425781 529.886719 388.195312 532.605469 390.847656 C 532.683594 390.925781 532.683594 391.058594 532.605469 391.136719 C 532.5625 391.183594 532.507812 391.203125 532.460938 391.203125 " fill-opacity="1" fill-rule="nonzero"/><path fill="#ce7f5f" d="M 530.613281 391.203125 C 530.5625 391.203125 530.519531 391.1875 530.480469 391.15625 C 528.394531 389.488281 524.527344 388.339844 524.484375 388.324219 C 524.375 388.292969 524.3125 388.179688 524.34375 388.066406 C 524.375 387.960938 524.488281 387.894531 524.601562 387.929688 C 524.765625 387.976562 528.589844 389.113281 530.738281 390.832031 C 530.828125 390.902344 530.84375 391.035156 530.769531 391.125 C 530.730469 391.175781 530.671875 391.203125 530.613281 391.203125 " fill-opacity="1" fill-rule="nonzero"/><path fill="#ce7f5f" d="M 521.625 390.21875 C 520.648438 390.21875 519.417969 389.902344 517.90625 389.273438 C 516.367188 388.632812 514.347656 388.339844 514.328125 388.335938 C 514.210938 388.316406 514.136719 388.210938 514.152344 388.101562 C 514.167969 387.988281 514.269531 387.90625 514.390625 387.921875 C 514.46875 387.9375 516.476562 388.230469 518.0625 388.890625 C 520.082031 389.730469 521.542969 389.988281 522.539062 389.679688 C 522.648438 389.640625 522.761719 389.703125 522.796875 389.8125 C 522.832031 389.921875 522.769531 390.039062 522.660156 390.070312 C 522.355469 390.171875 522.007812 390.21875 521.625 390.21875 " fill-opacity="1" fill-rule="nonzero"/><path fill="#f15d5d" d="M 415.882812 378.894531 L 410.714844 378.894531 C 409.09375 378.894531 407.566406 378.128906 406.601562 376.832031 C 403.761719 373.035156 396.769531 364.800781 385.820312 359.078125 C 383.429688 357.828125 382.410156 354.949219 383.492188 352.480469 C 394.652344 356.480469 406.390625 364.285156 415.882812 378.894531 " fill-opacity="1" fill-rule="nonzero"/><path fill="#f15d5d" d="M 337.707031 382.382812 L 364.015625 382.460938 L 367.015625 379.730469 L 352.128906 379.730469 L 367.820312 379.039062 L 371.5 375.710938 L 362.082031 375.773438 L 372.136719 375.148438 L 379.839844 368.214844 L 337.707031 382.382812 " fill-opacity="1" fill-rule="nonzero"/><path fill="#efc2c2" d="M 391.910156 357.144531 C 391.910156 357.542969 392.101562 357.917969 392.417969 358.148438 L 395.996094 360.761719 C 396.820312 361.363281 397.972656 360.777344 397.972656 359.757812 L 397.972656 359.285156 C 397.972656 358.851562 397.742188 358.445312 397.371094 358.222656 L 393.792969 356.082031 C 392.960938 355.585938 391.910156 356.183594 391.910156 357.144531 " fill-opacity="1" fill-rule="nonzero"/><path fill="#efc2c2" d="M 407.605469 369.515625 C 407.605469 369.773438 407.695312 370.019531 407.859375 370.21875 L 409.105469 371.710938 C 409.761719 372.488281 411.03125 372.023438 411.03125 371.007812 L 411.03125 370.832031 C 411.03125 370.550781 410.921875 370.285156 410.730469 370.082031 L 409.484375 368.765625 C 408.804688 368.054688 407.605469 368.535156 407.605469 369.515625 " fill-opacity="1" fill-rule="nonzero"/><path fill="#cbced5" d="M 260.609375 409.324219 C 259.453125 409.324219 258.242188 409.234375 256.992188 409.046875 C 255.96875 408.894531 255.261719 407.945312 255.414062 406.925781 C 255.566406 405.910156 256.515625 405.203125 257.535156 405.355469 C 263.308594 406.207031 268.140625 404.734375 272.75 400.710938 C 277.015625 396.984375 280.523438 391.621094 284.238281 385.941406 C 289.5625 377.804688 295.066406 369.390625 303.429688 365.136719 C 315.339844 359.070312 324.988281 358.746094 330.976562 359.539062 C 337.597656 360.414062 341.375 362.792969 341.527344 362.894531 C 342.394531 363.449219 342.648438 364.601562 342.09375 365.46875 C 341.535156 366.339844 340.386719 366.589844 339.519531 366.035156 C 339.460938 366.003906 336.113281 363.941406 330.269531 363.210938 C 324.839844 362.53125 316.070312 362.886719 305.125 368.457031 C 297.648438 372.261719 292.421875 380.253906 287.367188 387.988281 C 280.492188 398.488281 273.410156 409.324219 260.609375 409.324219 " fill-opacity="1" fill-rule="nonzero"/><path fill="#a9aeb7" d="M 342.921875 365.070312 C 342.359375 366.792969 341.066406 367.917969 340.023438 367.582031 C 338.988281 367.242188 338.59375 365.574219 339.15625 363.855469 C 339.710938 362.132812 341.007812 361.011719 342.046875 361.347656 C 343.089844 361.683594 343.476562 363.355469 342.921875 365.070312 " fill-opacity="1" fill-rule="nonzero"/><path fill="#f15d5d" d="M 346.519531 358.636719 L 342.203125 372.726562 C 341.640625 374.570312 339.664062 375.589844 337.828125 374.980469 L 337.707031 374.9375 L 344.152344 354.328125 C 346.015625 354.839844 347.085938 356.792969 346.519531 358.636719 " fill-opacity="1" fill-rule="nonzero"/><path fill="#5aa030" d="M 246.984375 390.667969 C 246.984375 390.667969 261.496094 459.921875 245.925781 463.222656 C 208.136719 471.234375 215.320312 453.496094 219.699219 437.714844 C 228.160156 407.25 211.957031 390.667969 246.984375 390.667969 " fill-opacity="1" fill-rule="nonzero"/><path fill="#a9aeb7" d="M 454.921875 401.023438 L 439.945312 426.9375 L 418.230469 439.722656 L 441.289062 399.824219 L 450.167969 398.28125 L 454.921875 401.023438 " fill-opacity="1" fill-rule="nonzero"/><path fill="#a9aeb7" d="M 305.535156 434.214844 C 298.679688 430.71875 291.515625 427.074219 285.246094 423.902344 L 272.027344 401.023438 L 282.773438 394.824219 L 305.535156 434.214844 " fill-opacity="1" fill-rule="nonzero"/><g clip-path="url(#e0b7789d62)"><path fill="#a9aeb7" d="M 654.355469 411.9375 L 150.476562 411.9375 C 148.0625 411.9375 146.105469 409.980469 146.105469 407.570312 C 146.105469 405.160156 148.0625 403.203125 150.476562 403.203125 L 654.355469 403.203125 C 656.765625 403.203125 658.726562 405.160156 658.726562 407.570312 C 658.726562 409.980469 656.765625 411.9375 654.355469 411.9375 " fill-opacity="1" fill-rule="nonzero"/></g><path fill="#cbced5" d="M 449.550781 695.820312 C 446.582031 697.535156 442.789062 696.515625 441.074219 693.550781 L 438.464844 689.035156 L 428.554688 671.878906 L 364.484375 561.007812 L 363.476562 559.269531 L 362.949219 558.359375 L 357.320312 548.617188 L 356.3125 546.871094 L 355.789062 545.960938 L 285.246094 423.902344 L 272.027344 401.023438 L 282.773438 394.824219 L 305.535156 434.214844 L 362.957031 533.566406 L 363.476562 534.476562 L 364.484375 536.21875 L 370.113281 545.960938 L 370.640625 546.871094 L 371.644531 548.617188 L 439.734375 666.441406 L 448.769531 682.074219 L 451.820312 687.355469 C 453.53125 690.316406 452.515625 694.109375 449.550781 695.820312 " fill-opacity="1" fill-rule="nonzero"/><path fill="#a9aeb7" d="M 371.644531 548.617188 L 364.839844 560.402344 L 364.484375 561.007812 L 363.476562 559.269531 L 357.320312 548.617188 L 357.675781 548.003906 L 364.484375 536.21875 L 370.640625 546.871094 L 371.644531 548.617188 " fill-opacity="1" fill-rule="nonzero"/><path fill="#a9aeb7" d="M 370.113281 545.960938 L 369.882812 546.355469 L 362.949219 558.359375 L 357.320312 548.617188 L 356.3125 546.871094 L 355.789062 545.960938 L 362.726562 533.957031 L 362.957031 533.566406 L 363.476562 534.476562 L 364.484375 536.21875 L 370.113281 545.960938 " fill-opacity="1" fill-rule="nonzero"/><path fill="#cbced5" d="M 450.167969 398.28125 L 444.175781 394.824219 L 441.289062 399.824219 L 418.230469 439.722656 L 363.476562 534.476562 L 356.3125 546.871094 L 287.429688 666.074219 L 277.449219 683.34375 L 275.128906 687.355469 C 274.566406 688.332031 274.300781 689.394531 274.300781 690.449219 C 274.300781 692.59375 275.410156 694.671875 277.402344 695.820312 C 280.371094 697.535156 284.160156 696.515625 285.875 693.554688 L 288.714844 688.644531 L 297.65625 673.171875 L 363.476562 559.269531 L 370.640625 546.871094 L 439.945312 426.9375 L 454.921875 401.023438 L 450.167969 398.28125 " fill-opacity="1" fill-rule="nonzero"/><path fill="#383631" d="M 367.421875 546.871094 C 367.421875 549.050781 365.65625 550.816406 363.476562 550.816406 C 361.292969 550.816406 359.53125 549.050781 359.53125 546.871094 C 359.53125 544.695312 361.292969 542.925781 363.476562 542.925781 C 365.65625 542.925781 367.421875 544.695312 367.421875 546.871094 " fill-opacity="1" fill-rule="nonzero"/><path fill="#f7c028" d="M 597.816406 399.117188 C 597.816406 401.453125 596.871094 403.5625 595.339844 405.097656 C 593.8125 406.625 591.699219 407.570312 589.359375 407.570312 L 140.46875 407.570312 C 135.796875 407.570312 132.007812 403.785156 132.007812 399.117188 C 132.007812 396.78125 132.953125 394.667969 134.484375 393.140625 C 136.015625 391.613281 138.132812 390.667969 140.46875 390.667969 L 589.359375 390.667969 C 594.035156 390.667969 597.816406 394.449219 597.816406 399.117188 " fill-opacity="1" fill-rule="nonzero"/><path fill="#a9aeb7" d="M 449.550781 695.820312 C 446.582031 697.535156 442.789062 696.515625 441.074219 693.550781 L 438.464844 689.035156 C 440.628906 689.542969 442.8125 689.328125 444.695312 688.242188 C 446.910156 686.96875 448.292969 684.71875 448.769531 682.074219 L 451.820312 687.355469 C 453.53125 690.316406 452.515625 694.109375 449.550781 695.820312 " fill-opacity="1" fill-rule="nonzero"/><path fill="#a9aeb7" d="M 288.714844 688.644531 L 285.875 693.554688 C 284.160156 696.515625 280.371094 697.535156 277.402344 695.820312 C 275.410156 694.671875 274.300781 692.59375 274.300781 690.449219 C 274.300781 689.394531 274.566406 688.332031 275.128906 687.355469 L 277.449219 683.34375 C 278.09375 685.429688 279.363281 687.175781 281.214844 688.242188 C 283.464844 689.539062 286.152344 689.597656 288.714844 688.644531 " fill-opacity="1" fill-rule="nonzero"/><path fill="#eaad18" d="M 596.726562 403.273438 C 596.351562 403.941406 595.878906 404.558594 595.339844 405.097656 C 593.8125 406.625 591.699219 407.570312 589.359375 407.570312 L 140.46875 407.570312 C 137.308594 407.570312 134.550781 405.835938 133.101562 403.273438 L 596.726562 403.273438 " fill-opacity="1" fill-rule="nonzero"/><path fill="#6cba42" d="M 497.671875 475.929688 L 497.667969 475.929688 C 495.535156 477.308594 492.277344 477.894531 487.648438 477.535156 C 441.828125 473.953125 432.539062 491.007812 423.496094 503.59375 C 423.492188 503.601562 423.492188 503.605469 423.492188 503.605469 C 417.84375 511.460938 412.289062 517.582031 397.984375 515.847656 C 378.546875 513.492188 363.417969 505.457031 348.898438 496.785156 C 335.617188 488.855469 322.839844 480.394531 307.75 475.28125 C 294.085938 470.648438 273.351562 478.671875 256.042969 486.253906 C 233.355469 496.203125 216.5625 505.394531 229.367188 484.296875 C 242.273438 463.015625 246.003906 431.035156 246.832031 407.570312 C 247.058594 401.171875 247.066406 395.40625 246.984375 390.667969 L 464.132812 390.667969 C 465.839844 395.835938 468.472656 401.574219 471.5625 407.570312 C 485.796875 435.144531 509.753906 468.132812 497.671875 475.929688 " fill-opacity="1" fill-rule="nonzero"/><path fill="#5aa030" d="M 348.898438 496.78125 C 335.613281 488.855469 322.839844 480.394531 307.75 475.28125 C 294.085938 470.648438 273.351562 478.671875 256.042969 486.253906 C 300.667969 458.921875 284.519531 400.132812 284.074219 398.542969 C 292.167969 421.640625 348.457031 496.199219 348.898438 496.78125 " fill-opacity="1" fill-rule="nonzero"/><path fill="#5aa030" d="M 497.671875 475.929688 C 495.539062 477.304688 492.28125 477.894531 487.648438 477.535156 C 441.828125 473.949219 432.539062 491.007812 423.492188 503.59375 C 423.675781 502.902344 438.820312 444.042969 428.890625 422.851562 C 432.441406 429.773438 456.671875 473.929688 497.667969 475.929688 L 497.671875 475.929688 " fill-opacity="1" fill-rule="nonzero"/><path fill="#b231bc" d="M 218.546875 390.667969 L 146.796875 390.667969 C 143.269531 390.667969 140.410156 387.808594 140.410156 384.285156 L 140.410156 382.695312 C 140.410156 379.167969 143.269531 376.3125 146.796875 376.3125 L 218.546875 376.3125 C 222.070312 376.3125 224.9375 379.167969 224.9375 382.695312 L 224.9375 384.285156 C 224.9375 387.808594 222.070312 390.667969 218.546875 390.667969 " fill-opacity="1" fill-rule="nonzero"/><path fill="#9724a3" d="M 218.546875 388.476562 L 146.796875 388.476562 C 143.367188 388.476562 140.582031 385.78125 140.421875 382.394531 C 140.417969 382.496094 140.410156 382.597656 140.410156 382.695312 L 140.410156 384.285156 C 140.410156 387.808594 143.269531 390.667969 146.796875 390.667969 L 218.546875 390.667969 C 222.070312 390.667969 224.9375 387.808594 224.9375 384.285156 L 224.9375 382.695312 C 224.9375 382.597656 224.925781 382.496094 224.917969 382.394531 C 224.757812 385.78125 221.972656 388.476562 218.546875 388.476562 " fill-opacity="1" fill-rule="nonzero"/><path fill="#51a8dc" d="M 218.546875 376.3125 L 146.796875 376.3125 C 143.269531 376.3125 140.410156 373.453125 140.410156 369.929688 L 140.410156 368.34375 C 140.410156 364.820312 143.269531 361.957031 146.796875 361.957031 L 218.546875 361.957031 C 222.070312 361.957031 224.9375 364.820312 224.9375 368.34375 L 224.9375 369.929688 C 224.9375 373.453125 222.070312 376.3125 218.546875 376.3125 " fill-opacity="1" fill-rule="nonzero"/><path fill="#3495c6" d="M 218.546875 374.125 L 146.796875 374.125 C 143.367188 374.125 140.582031 371.425781 140.421875 368.042969 C 140.417969 368.140625 140.410156 368.242188 140.410156 368.34375 L 140.410156 369.929688 C 140.410156 373.453125 143.269531 376.3125 146.796875 376.3125 L 218.546875 376.3125 C 222.070312 376.3125 224.9375 373.453125 224.9375 369.929688 L 224.9375 368.34375 C 224.9375 368.242188 224.925781 368.140625 224.917969 368.042969 C 224.757812 371.425781 221.972656 374.125 218.546875 374.125 " fill-opacity="1" fill-rule="nonzero"/><path fill="#f15d5d" d="M 218.546875 361.957031 L 146.796875 361.957031 C 143.269531 361.957031 140.410156 359.097656 140.410156 355.574219 L 140.410156 353.988281 C 140.410156 350.464844 143.269531 347.605469 146.796875 347.605469 L 218.546875 347.605469 C 222.070312 347.605469 224.9375 350.464844 224.9375 353.988281 L 224.9375 355.574219 C 224.9375 359.097656 222.070312 361.957031 218.546875 361.957031 " fill-opacity="1" fill-rule="nonzero"/><path fill="#e24747" d="M 218.546875 359.769531 L 146.796875 359.769531 C 143.367188 359.769531 140.582031 357.070312 140.421875 353.6875 C 140.417969 353.785156 140.410156 353.886719 140.410156 353.988281 L 140.410156 355.574219 C 140.410156 359.097656 143.269531 361.957031 146.796875 361.957031 L 218.546875 361.957031 C 222.070312 361.957031 224.9375 359.097656 224.9375 355.574219 L 224.9375 353.988281 C 224.9375 353.886719 224.925781 353.785156 224.917969 353.6875 C 224.757812 357.070312 221.972656 359.769531 218.546875 359.769531 " fill-opacity="1" fill-rule="nonzero"/><path fill="#6cba42" d="M 218.546875 347.605469 L 146.796875 347.605469 C 143.269531 347.605469 140.410156 344.742188 140.410156 341.21875 L 140.410156 339.632812 C 140.410156 336.109375 143.269531 333.25 146.796875 333.25 L 218.546875 333.25 C 222.070312 333.25 224.9375 336.109375 224.9375 339.632812 L 224.9375 341.21875 C 224.9375 344.742188 222.070312 347.605469 218.546875 347.605469 " fill-opacity="1" fill-rule="nonzero"/><path fill="#6cba42" d="M 218.546875 345.414062 L 146.796875 345.414062 C 143.367188 345.414062 140.582031 342.71875 140.421875 339.332031 C 140.417969 339.433594 140.410156 339.535156 140.410156 339.632812 L 140.410156 341.21875 C 140.410156 344.742188 143.269531 347.605469 146.796875 347.605469 L 218.546875 347.605469 C 222.070312 347.605469 224.9375 344.742188 224.9375 341.21875 L 224.9375 339.632812 C 224.9375 339.535156 224.925781 339.433594 224.917969 339.332031 C 224.757812 342.71875 221.972656 345.414062 218.546875 345.414062 " fill-opacity="1" fill-rule="nonzero"/><g fill="#2ec4b6" fill-opacity="1"><g transform="translate(308.913324, 77.739691)"><g><path d="M 36.84375 -5.78125 C 37.351562 -5.46875 37.753906 -5.054688 38.046875 -4.546875 C 38.347656 -4.035156 38.5 -3.503906 38.5 -2.953125 C 38.5 -2.242188 38.265625 -1.59375 37.796875 -1 C 37.203125 -0.289062 36.296875 0.0625 35.078125 0.0625 C 34.128906 0.0625 33.257812 -0.15625 32.46875 -0.59375 C 29.632812 -2.207031 28.21875 -5.492188 28.21875 -10.453125 C 28.21875 -11.867188 27.753906 -12.988281 26.828125 -13.8125 C 25.910156 -14.644531 24.582031 -15.0625 22.84375 -15.0625 L 11.8125 -15.0625 L 11.8125 -3.609375 C 11.8125 -2.535156 11.523438 -1.664062 10.953125 -1 C 10.378906 -0.332031 9.625 0 8.6875 0 C 7.539062 0 6.539062 -0.34375 5.6875 -1.03125 C 4.84375 -1.71875 4.421875 -2.578125 4.421875 -3.609375 L 4.421875 -37.734375 C 4.421875 -38.753906 4.765625 -39.609375 5.453125 -40.296875 C 6.148438 -40.984375 7.007812 -41.328125 8.03125 -41.328125 L 25.03125 -41.328125 C 27.082031 -41.328125 29.007812 -40.773438 30.8125 -39.671875 C 32.625 -38.578125 34.070312 -37.0625 35.15625 -35.125 C 36.238281 -33.195312 36.78125 -31.035156 36.78125 -28.640625 C 36.78125 -26.671875 36.25 -24.75 35.1875 -22.875 C 34.125 -21.007812 32.75 -19.523438 31.0625 -18.421875 C 33.539062 -16.691406 34.898438 -14.367188 35.140625 -11.453125 C 35.253906 -10.828125 35.3125 -10.21875 35.3125 -9.625 C 35.46875 -8.40625 35.625 -7.53125 35.78125 -7 C 35.9375 -6.46875 36.289062 -6.0625 36.84375 -5.78125 Z M 24.734375 -21.140625 C 25.441406 -21.140625 26.128906 -21.472656 26.796875 -22.140625 C 27.472656 -22.804688 28.023438 -23.703125 28.453125 -24.828125 C 28.890625 -25.953125 29.109375 -27.160156 29.109375 -28.453125 C 29.109375 -29.554688 28.890625 -30.570312 28.453125 -31.5 C 28.023438 -32.425781 27.472656 -33.164062 26.796875 -33.71875 C 26.128906 -34.269531 25.441406 -34.546875 24.734375 -34.546875 L 11.8125 -34.546875 L 11.8125 -21.140625 Z M 24.734375 -21.140625 "/></g></g></g><g fill="#2ec4b6" fill-opacity="1"><g transform="translate(354.086219, 77.739691)"><g><path d="M 42.453125 -20.671875 C 42.453125 -16.773438 41.585938 -13.203125 39.859375 -9.953125 C 38.128906 -6.703125 35.738281 -4.128906 32.6875 -2.234375 C 29.632812 -0.347656 26.195312 0.59375 22.375 0.59375 C 18.5625 0.59375 15.128906 -0.347656 12.078125 -2.234375 C 9.023438 -4.128906 6.640625 -6.703125 4.921875 -9.953125 C 3.210938 -13.203125 2.359375 -16.773438 2.359375 -20.671875 C 2.359375 -24.566406 3.210938 -28.132812 4.921875 -31.375 C 6.640625 -34.625 9.023438 -37.191406 12.078125 -39.078125 C 15.128906 -40.972656 18.5625 -41.921875 22.375 -41.921875 C 26.195312 -41.921875 29.632812 -40.972656 32.6875 -39.078125 C 35.738281 -37.191406 38.128906 -34.625 39.859375 -31.375 C 41.585938 -28.132812 42.453125 -24.566406 42.453125 -20.671875 Z M 34.78125 -20.671875 C 34.78125 -23.304688 34.25 -25.695312 33.1875 -27.84375 C 32.125 -29.988281 30.644531 -31.691406 28.75 -32.953125 C 26.863281 -34.210938 24.738281 -34.84375 22.375 -34.84375 C 19.976562 -34.84375 17.84375 -34.222656 15.96875 -32.984375 C 14.101562 -31.742188 12.644531 -30.039062 11.59375 -27.875 C 10.550781 -25.707031 10.03125 -23.304688 10.03125 -20.671875 C 10.03125 -18.023438 10.550781 -15.617188 11.59375 -13.453125 C 12.644531 -11.296875 14.101562 -9.597656 15.96875 -8.359375 C 17.84375 -7.117188 19.976562 -6.5 22.375 -6.5 C 24.738281 -6.5 26.863281 -7.128906 28.75 -8.390625 C 30.644531 -9.648438 32.125 -11.347656 33.1875 -13.484375 C 34.25 -15.628906 34.78125 -18.023438 34.78125 -20.671875 Z M 34.78125 -20.671875 "/></g></g></g><g fill="#2ec4b6" fill-opacity="1"><g transform="translate(403.5106, 77.739691)"><g><path d="M 21.5 -41.328125 C 23.5 -41.328125 25.40625 -40.726562 27.21875 -39.53125 C 29.03125 -38.332031 30.488281 -36.71875 31.59375 -34.6875 C 32.695312 -32.664062 33.25 -30.453125 33.25 -28.046875 C 33.25 -25.679688 32.695312 -23.472656 31.59375 -21.421875 C 30.488281 -19.378906 29.03125 -17.757812 27.21875 -16.5625 C 25.40625 -15.363281 23.5 -14.765625 21.5 -14.765625 L 11.21875 -14.765625 L 11.21875 -3.609375 C 11.21875 -2.535156 10.898438 -1.664062 10.265625 -1 C 9.640625 -0.332031 8.816406 0 7.796875 0 C 6.804688 0 5.992188 -0.34375 5.359375 -1.03125 C 4.734375 -1.71875 4.421875 -2.578125 4.421875 -3.609375 L 4.421875 -37.734375 C 4.421875 -38.753906 4.765625 -39.609375 5.453125 -40.296875 C 6.148438 -40.984375 7.007812 -41.328125 8.03125 -41.328125 Z M 21.5 -21.5 C 22.238281 -21.5 22.972656 -21.8125 23.703125 -22.4375 C 24.429688 -23.0625 25.019531 -23.875 25.46875 -24.875 C 25.925781 -25.882812 26.15625 -26.941406 26.15625 -28.046875 C 26.15625 -29.148438 25.925781 -30.203125 25.46875 -31.203125 C 25.019531 -32.210938 24.429688 -33.019531 23.703125 -33.625 C 22.972656 -34.238281 22.238281 -34.546875 21.5 -34.546875 L 11.21875 -34.546875 L 11.21875 -21.5 Z M 21.5 -21.5 "/></g></g></g><g fill="#2ec4b6" fill-opacity="1"><g transform="translate(443.723432, 77.739691)"><g><path d="M 36.84375 -4.609375 C 37.039062 -4.097656 37.140625 -3.625 37.140625 -3.1875 C 37.140625 -2.164062 36.804688 -1.328125 36.140625 -0.671875 C 35.472656 -0.0234375 34.703125 0.296875 33.828125 0.296875 C 33.117188 0.296875 32.476562 0.0820312 31.90625 -0.34375 C 31.34375 -0.78125 30.90625 -1.375 30.59375 -2.125 L 27.515625 -9.265625 L 9.921875 -9.265625 L 6.84375 -2.0625 C 6.570312 -1.3125 6.148438 -0.726562 5.578125 -0.3125 C 5.003906 0.09375 4.382812 0.296875 3.71875 0.296875 C 2.695312 0.296875 1.921875 0.0195312 1.390625 -0.53125 C 0.859375 -1.082031 0.59375 -1.832031 0.59375 -2.78125 C 0.59375 -3.132812 0.648438 -3.503906 0.765625 -3.890625 L 15.46875 -39.203125 C 15.78125 -39.992188 16.25 -40.601562 16.875 -41.03125 C 17.507812 -41.46875 18.222656 -41.644531 19.015625 -41.5625 C 19.722656 -41.5625 20.378906 -41.351562 20.984375 -40.9375 C 21.597656 -40.53125 22.039062 -39.953125 22.3125 -39.203125 Z M 12.8125 -16.0625 L 24.625 -16.0625 L 18.65625 -29.875 Z M 12.8125 -16.0625 "/></g></g></g></svg>