<svg xmlns="http://www.w3.org/2000/svg" xmlns:xlink="http://www.w3.org/1999/xlink" width="1052" zoomAndPan="magnify" viewBox="0 0 788.88 603.000004" height="804" preserveAspectRatio="xMidYMid meet" version="1.0"><defs><g/><clipPath id="ab79d4195e"><path d="M 31.292969 20.964844 L 759.085938 20.964844 L 759.085938 91.074219 L 31.292969 91.074219 Z M 31.292969 20.964844 " clip-rule="nonzero"/></clipPath><clipPath id="fb0479e60c"><path d="M 1.152344 20.964844 L 70.09375 20.964844 L 70.09375 91.074219 L 1.152344 91.074219 Z M 1.152344 20.964844 " clip-rule="nonzero"/></clipPath><clipPath id="af1f664561"><path d="M 35.625 20.964844 C 16.585938 20.964844 1.152344 36.660156 1.152344 56.019531 C 1.152344 75.378906 16.585938 91.074219 35.625 91.074219 C 54.660156 91.074219 70.09375 75.378906 70.09375 56.019531 C 70.09375 36.660156 54.660156 20.964844 35.625 20.964844 Z M 35.625 20.964844 " clip-rule="nonzero"/></clipPath><clipPath id="e341db0e21"><path d="M 718.652344 20.964844 L 787.59375 20.964844 L 787.59375 91.074219 L 718.652344 91.074219 Z M 718.652344 20.964844 " clip-rule="nonzero"/></clipPath><clipPath id="4b07f94d8a"><path d="M 753.121094 20.964844 C 734.085938 20.964844 718.652344 36.660156 718.652344 56.019531 C 718.652344 75.378906 734.085938 91.074219 753.121094 91.074219 C 772.160156 91.074219 787.59375 75.378906 787.59375 56.019531 C 787.59375 36.660156 772.160156 20.964844 753.121094 20.964844 Z M 753.121094 20.964844 " clip-rule="nonzero"/></clipPath><clipPath id="337ec2d701"><path d="M 684 571 L 746.671875 571 L 746.671875 592 L 684 592 Z M 684 571 " clip-rule="nonzero"/></clipPath><clipPath id="9c10ee6747"><path d="M 684 590 L 746.671875 590 L 746.671875 595 L 684 595 Z M 684 590 " clip-rule="nonzero"/></clipPath><clipPath id="39a8d162e7"><path d="M 44 568 L 110 568 L 110 601.726562 L 44 601.726562 Z M 44 568 " clip-rule="nonzero"/></clipPath></defs><g clip-path="url(#ab79d4195e)"><path fill="#ffffff" d="M 31.292969 20.964844 L 759.085938 20.964844 L 759.085938 91.074219 L 31.292969 91.074219 Z M 31.292969 20.964844 " fill-opacity="1" fill-rule="nonzero"/></g><g clip-path="url(#fb0479e60c)"><g clip-path="url(#af1f664561)"><path fill="#ffffff" d="M 1.152344 20.964844 L 70.09375 20.964844 L 70.09375 91.074219 L 1.152344 91.074219 Z M 1.152344 20.964844 " fill-opacity="1" fill-rule="nonzero"/></g></g><g clip-path="url(#e341db0e21)"><g clip-path="url(#4b07f94d8a)"><path fill="#ffffff" d="M 718.652344 20.964844 L 787.59375 20.964844 L 787.59375 91.074219 L 718.652344 91.074219 Z M 718.652344 20.964844 " fill-opacity="1" fill-rule="nonzero"/></g></g><path fill="#fcfcf0" d="M 273.589844 594.550781 C 269.964844 594.550781 267.273438 591.191406 268.0625 587.65625 L 282.972656 520.953125 C 283.550781 518.367188 285.847656 516.53125 288.496094 516.53125 C 292.121094 516.53125 294.8125 519.886719 294.023438 523.421875 L 279.113281 590.125 C 278.535156 592.710938 276.242188 594.550781 273.589844 594.550781 " fill-opacity="1" fill-rule="nonzero"/><path fill="#fcfcf0" d="M 448.4375 594.550781 C 452.0625 594.550781 454.753906 591.191406 453.964844 587.65625 L 439.054688 520.953125 C 438.476562 518.367188 436.179688 516.53125 433.53125 516.53125 C 429.90625 516.53125 427.214844 519.886719 428.003906 523.421875 L 442.910156 590.125 C 443.488281 592.710938 445.785156 594.550781 448.4375 594.550781 " fill-opacity="1" fill-rule="nonzero"/><path fill="#fcfcf0" d="M 551.777344 594.550781 C 555.402344 594.550781 558.09375 591.191406 557.304688 587.65625 L 542.394531 520.953125 C 541.816406 518.367188 539.519531 516.53125 536.871094 516.53125 C 533.246094 516.53125 530.554688 519.886719 531.34375 523.421875 L 546.253906 590.125 C 546.832031 592.710938 549.125 594.550781 551.777344 594.550781 " fill-opacity="1" fill-rule="nonzero"/><path fill="#f5d562" d="M 270.105469 511.601562 L 270.105469 337.492188 C 270.105469 322.3125 282.417969 310.003906 297.605469 310.003906 L 458.308594 310.003906 C 473.496094 310.003906 485.808594 322.3125 485.808594 337.492188 L 485.808594 511.597656 C 485.808594 526.78125 473.496094 539.085938 458.308594 539.085938 L 297.605469 539.085938 C 282.417969 539.085938 270.105469 526.78125 270.105469 511.601562 " fill-opacity="1" fill-rule="nonzero"/><path fill="#f5d562" d="M 270.105469 511.601562 L 270.105469 421.324219 C 270.105469 406.144531 282.417969 393.835938 297.605469 393.835938 L 547.15625 393.835938 C 562.34375 393.835938 574.652344 406.144531 574.652344 421.324219 L 574.652344 511.601562 C 574.652344 526.78125 562.34375 539.089844 547.15625 539.089844 L 297.605469 539.089844 C 282.417969 539.085938 270.105469 526.78125 270.105469 511.601562 " fill-opacity="1" fill-rule="nonzero"/><path fill="#fcfcf0" d="M 570.574219 493.25 C 570.34375 493.25 570.15625 493.066406 570.15625 492.835938 C 570.15625 479.894531 559.625 469.367188 546.679688 469.367188 L 412.628906 469.367188 C 412.398438 469.367188 412.214844 469.183594 412.214844 468.953125 C 412.214844 468.722656 412.398438 468.535156 412.628906 468.535156 L 546.679688 468.535156 C 560.082031 468.535156 570.988281 479.4375 570.988281 492.835938 C 570.988281 493.066406 570.800781 493.25 570.574219 493.25 Z M 570.574219 493.25 " fill-opacity="1" fill-rule="nonzero"/><path fill="#f799c5" d="M 384.34375 470.519531 C 384.34375 470.519531 372.703125 455.234375 364.097656 416.449219 C 356.792969 383.507812 358.796875 362.945312 358.796875 362.945312 C 358.796875 362.945312 389.355469 355.910156 424.160156 356.777344 C 461.886719 357.71875 493.742188 366.730469 493.742188 366.730469 C 493.742188 366.730469 502.777344 384.71875 508.960938 418.003906 C 515.191406 451.527344 516.453125 476.199219 516.453125 476.199219 C 516.453125 476.199219 483.5 480.320312 446.507812 479.0625 C 411.214844 477.867188 384.34375 470.519531 384.34375 470.519531 " fill-opacity="1" fill-rule="nonzero"/><path fill="#f5d562" d="M 385.128906 393.835938 L 323.78125 393.835938 L 323.78125 337.492188 C 323.78125 322.3125 311.46875 310.003906 296.285156 310.003906 L 278.210938 310.003906 C 263.023438 310.003906 250.714844 322.3125 250.714844 337.492188 L 250.714844 511.597656 C 250.714844 526.78125 263.023438 539.085938 278.210938 539.085938 L 385.128906 539.085938 C 400.316406 539.085938 412.628906 526.78125 412.628906 511.597656 L 412.628906 421.324219 C 412.628906 406.144531 400.316406 393.835938 385.128906 393.835938 " fill-opacity="1" fill-rule="nonzero"/><path fill="#fcfcf0" d="M 356.152344 394.25 L 254.996094 394.25 C 254.769531 394.25 254.582031 394.066406 254.582031 393.835938 C 254.582031 393.605469 254.765625 393.421875 254.996094 393.421875 L 356.152344 393.421875 C 356.378906 393.421875 356.566406 393.605469 356.566406 393.835938 C 356.566406 394.066406 356.378906 394.25 356.152344 394.25 Z M 356.152344 394.25 " fill-opacity="1" fill-rule="nonzero"/><path fill="#fcfcf0" d="M 323.78125 394.25 C 323.554688 394.25 323.367188 394.066406 323.367188 393.835938 L 323.367188 337.492188 C 323.367188 325.566406 315.71875 315.175781 304.335938 311.636719 C 304.117188 311.570312 303.996094 311.335938 304.0625 311.117188 C 304.132812 310.902344 304.363281 310.777344 304.582031 310.84375 C 316.316406 314.492188 324.195312 325.203125 324.195312 337.492188 L 324.195312 393.835938 C 324.199219 394.066406 324.011719 394.25 323.78125 394.25 Z M 323.78125 394.25 " fill-opacity="1" fill-rule="nonzero"/><path fill="#fcfcf0" d="M 412.628906 536.203125 C 412.398438 536.203125 412.210938 536.015625 412.210938 535.789062 L 412.210938 480.023438 C 412.210938 479.796875 412.398438 479.609375 412.628906 479.609375 C 412.859375 479.609375 413.042969 479.792969 413.042969 480.023438 L 413.042969 535.789062 C 413.042969 536.015625 412.859375 536.203125 412.628906 536.203125 Z M 412.628906 536.203125 " fill-opacity="1" fill-rule="nonzero"/><path fill="#fcfcf0" d="M 458.863281 417.253906 C 454.898438 417.796875 451.972656 413.679688 453.753906 410.097656 C 454.8125 407.96875 457.027344 404.574219 459.632812 400.839844 C 468.5 388.117188 482.304688 379.695312 497.671875 377.589844 L 550.015625 370.417969 C 552.789062 370.039062 555.347656 371.976562 555.726562 374.75 C 556.105469 377.523438 554.167969 380.082031 551.394531 380.460938 L 528.132812 383.644531 L 522.675781 401.296875 C 521.253906 405.894531 517.296875 409.25 512.527344 409.902344 Z M 458.863281 417.253906 " fill-opacity="1" fill-rule="nonzero"/><path fill="#f5d562" d="M 456.542969 405.820312 C 456.339844 405.820312 456.160156 405.671875 456.132812 405.460938 C 456.101562 405.234375 456.261719 405.027344 456.488281 404.996094 L 499.761719 399.070312 C 503.441406 398.566406 506.527344 395.949219 507.625 392.402344 L 512.902344 375.324219 C 512.972656 375.105469 513.203125 374.980469 513.421875 375.050781 C 513.640625 375.117188 513.765625 375.351562 513.695312 375.570312 L 508.417969 392.648438 C 507.226562 396.5 503.871094 399.34375 499.875 399.890625 L 456.601562 405.816406 C 456.582031 405.820312 456.5625 405.820312 456.542969 405.820312 Z M 456.542969 405.820312 " fill-opacity="1" fill-rule="nonzero"/><path fill="#e88772" d="M 552.660156 206.027344 C 552.660156 206.027344 550.550781 210.25 549.347656 211.957031 C 547.941406 213.953125 547.636719 215.140625 549.550781 215.867188 C 552.5 216.980469 557.410156 218.179688 557.410156 218.179688 L 557.480469 210.574219 Z M 552.660156 206.027344 " fill-opacity="1" fill-rule="nonzero"/><path fill="#e88772" d="M 552.707031 207.332031 C 549.398438 200.257812 545.871094 194.089844 549.230469 184.929688 C 555.453125 167.957031 580.355469 163.671875 590.59375 174.769531 C 596.972656 181.683594 602.710938 197.660156 597.496094 209.871094 C 593.445312 219.351562 578.753906 229.605469 566.699219 230.519531 C 559.039062 231.097656 552.773438 211.164062 552.773438 211.164062 C 552.773438 211.164062 553.066406 207.972656 552.707031 207.332031 " fill-opacity="1" fill-rule="nonzero"/><path fill="#3d251c" d="M 556.121094 200.042969 C 555.070312 200.5625 555.292969 202.230469 555.644531 203.199219 C 555.898438 203.90625 556.796875 205.558594 557.933594 204.992188 C 559.039062 204.441406 559.125 203.273438 558.398438 201.492188 C 557.65625 199.683594 556.539062 199.839844 556.121094 200.042969 " fill-opacity="1" fill-rule="nonzero"/><path fill="#3d251c" d="M 557.464844 205.523438 C 556.34375 205.523438 555.546875 204.152344 555.253906 203.339844 C 554.875 202.289062 554.589844 200.335938 555.941406 199.671875 C 556.0625 199.609375 556.320312 199.507812 556.664062 199.507812 C 557.175781 199.507812 558.128906 199.746094 558.78125 201.332031 C 559.09375 202.09375 560.042969 204.410156 558.121094 205.363281 C 557.90625 205.472656 557.6875 205.523438 557.464844 205.523438 Z M 556.664062 200.339844 C 556.484375 200.339844 556.355469 200.394531 556.304688 200.417969 C 555.542969 200.792969 555.722656 202.203125 556.03125 203.058594 C 556.28125 203.738281 556.886719 204.695312 557.464844 204.695312 C 557.558594 204.695312 557.652344 204.671875 557.75 204.621094 C 558.320312 204.335938 558.871094 203.742188 558.011719 201.648438 C 557.660156 200.792969 557.195312 200.339844 556.664062 200.339844 Z M 556.664062 200.339844 " fill-opacity="1" fill-rule="nonzero"/><path fill="#e88772" d="M 554.136719 202.894531 C 556.675781 202.761719 560.0625 201.800781 561.851562 199.484375 C 561.851562 199.484375 559.8125 197.078125 555.945312 198.691406 C 552.597656 200.085938 554.136719 202.894531 554.136719 202.894531 " fill-opacity="1" fill-rule="nonzero"/><path fill="#3d251c" d="M 554.136719 203.308594 C 553.929688 203.308594 553.753906 203.15625 553.726562 202.945312 C 553.695312 202.71875 553.855469 202.511719 554.082031 202.480469 C 556.742188 202.136719 560.152344 201.03125 561.75 198.960938 C 561.890625 198.78125 562.148438 198.746094 562.332031 198.886719 C 562.515625 199.023438 562.546875 199.285156 562.40625 199.46875 C 560.203125 202.328125 555.558594 203.128906 554.191406 203.304688 C 554.171875 203.308594 554.152344 203.308594 554.136719 203.308594 Z M 554.136719 203.308594 " fill-opacity="1" fill-rule="nonzero"/><path fill="#3d251c" d="M 561.65625 195.785156 C 557.945312 196.660156 554.894531 197.617188 551.96875 199.703125 C 551.785156 199.785156 550.671875 197.925781 551.171875 197.484375 C 554.320312 194.699219 557.804688 194.285156 561.65625 195.203125 C 561.960938 195.273438 561.960938 195.714844 561.65625 195.785156 " fill-opacity="1" fill-rule="nonzero"/><path fill="#3d251c" d="M 560.601562 222.402344 C 560.4375 222.402344 560.28125 222.304688 560.21875 222.140625 C 560.132812 221.925781 560.238281 221.6875 560.453125 221.601562 C 562.277344 220.882812 563.792969 219.453125 564.5 217.785156 C 564.589844 217.574219 564.832031 217.476562 565.042969 217.5625 C 565.253906 217.652344 565.351562 217.894531 565.265625 218.109375 C 564.472656 219.980469 562.789062 221.574219 560.757812 222.375 C 560.707031 222.394531 560.652344 222.402344 560.601562 222.402344 Z M 560.601562 222.402344 " fill-opacity="1" fill-rule="nonzero"/><path fill="#e88772" d="M 576.277344 217.3125 C 579.417969 225.855469 584.203125 235.738281 589.578125 243.09375 C 597.996094 240.230469 607.1875 235.105469 614.441406 230.035156 C 605.804688 224.511719 598.78125 215.886719 595.945312 205.996094 C 590.535156 210.25 583.773438 213.042969 576.277344 217.3125 " fill-opacity="1" fill-rule="nonzero"/><path fill="#f799c5" d="M 672.292969 380.136719 C 654.398438 412.832031 617.015625 449.742188 625.476562 482.8125 C 653.234375 480.300781 681.160156 480.382812 708.90625 483.058594 C 696.367188 447.875 683.828125 412.691406 672.292969 380.136719 " fill-opacity="1" fill-rule="nonzero"/><path fill="#e88772" d="M 743.738281 580.363281 C 744.109375 580.242188 741.421875 576.402344 741.460938 574.953125 C 741.914062 557.351562 740.625 501.238281 726.234375 475.332031 C 722.867188 469.269531 718.652344 463.65625 716.019531 457.222656 C 704.546875 429.160156 721.464844 386.058594 711.242188 337.558594 C 707.292969 318.828125 658.667969 315.835938 659.726562 330.84375 C 661.167969 351.160156 673.394531 415.628906 681.390625 448.683594 C 690.769531 487.425781 711.777344 532.917969 715.777344 573.449219 C 715.773438 573.449219 729.601562 584.992188 743.738281 580.363281 " fill-opacity="1" fill-rule="nonzero"/><path fill="#e88772" d="M 640.40625 330.453125 C 631.78125 348.902344 611.117188 411.179688 602.03125 443.957031 C 591.382812 482.371094 587.617188 532.332031 571.402344 569.695312 C 568.691406 575.941406 548.457031 577.71875 540.480469 585.566406 C 538.300781 587.707031 539.859375 591.421875 542.914062 591.421875 C 553.445312 591.421875 576.363281 591.382812 589.117188 591.359375 C 594.171875 591.347656 598.101562 586.953125 597.539062 581.933594 C 597.066406 577.71875 596.601562 574.742188 597.339844 573.492188 C 606.296875 558.335938 628.234375 518.667969 628.257812 489.035156 C 628.261719 482.101562 627.308594 475.148438 628.136719 468.246094 C 631.757812 438.148438 667.503906 408.703125 682.15625 361.351562 C 687.820312 343.0625 646.777344 316.820312 640.40625 330.453125 " fill-opacity="1" fill-rule="nonzero"/><path fill="#f5d562" d="M 599.769531 591.382812 L 598.042969 579.855469 C 597.949219 579.226562 597.359375 578.804688 596.734375 578.914062 C 592.625 579.644531 578.410156 581.410156 571.988281 572.40625 C 571.09375 571.15625 569.398438 570.777344 568.085938 571.585938 C 560.292969 576.40625 553.457031 574.628906 544.296875 578.816406 C 540.070312 580.753906 538.648438 587.480469 538.171875 591.484375 Z M 599.769531 591.382812 " fill-opacity="1" fill-rule="nonzero"/><path fill="#fcfcf0" d="M 538.171875 591.484375 C 537.976562 593.117188 539.265625 594.550781 540.914062 594.550781 L 597.039062 594.550781 C 598.726562 594.550781 600.019531 593.050781 599.769531 591.382812 L 599.59375 590.214844 L 538.347656 590.214844 C 538.277344 590.660156 538.21875 591.085938 538.171875 591.484375 " fill-opacity="1" fill-rule="nonzero"/><path fill="#fcfcf0" d="M 556.121094 582.011719 C 555.980469 582.011719 555.839844 581.9375 555.761719 581.804688 L 552.628906 576.324219 C 552.515625 576.125 552.582031 575.871094 552.78125 575.757812 C 552.976562 575.644531 553.234375 575.710938 553.347656 575.910156 L 556.484375 581.390625 C 556.597656 581.589844 556.527344 581.84375 556.328125 581.957031 C 556.265625 581.992188 556.195312 582.011719 556.121094 582.011719 Z M 556.121094 582.011719 " fill-opacity="1" fill-rule="nonzero"/><path fill="#fcfcf0" d="M 564.234375 580.414062 C 564.09375 580.414062 563.953125 580.339844 563.875 580.207031 L 560.738281 574.726562 C 560.625 574.527344 560.695312 574.273438 560.894531 574.160156 C 561.089844 574.046875 561.347656 574.117188 561.460938 574.316406 L 564.59375 579.796875 C 564.710938 579.996094 564.640625 580.246094 564.441406 580.359375 C 564.375 580.398438 564.304688 580.414062 564.234375 580.414062 Z M 564.234375 580.414062 " fill-opacity="1" fill-rule="nonzero"/><g clip-path="url(#337ec2d701)"><path fill="#f5d562" d="M 746.230469 591.382812 L 744.503906 579.855469 C 744.410156 579.226562 743.820312 578.804688 743.195312 578.914062 C 739.089844 579.644531 724.871094 581.410156 718.449219 572.40625 C 717.554688 571.15625 715.859375 570.777344 714.550781 571.585938 C 706.753906 576.40625 699.917969 574.628906 690.757812 578.816406 C 686.53125 580.753906 685.109375 587.480469 684.632812 591.484375 Z M 746.230469 591.382812 " fill-opacity="1" fill-rule="nonzero"/></g><g clip-path="url(#9c10ee6747)"><path fill="#fcfcf0" d="M 684.632812 591.484375 C 684.4375 593.117188 685.726562 594.550781 687.375 594.550781 L 743.5 594.550781 C 745.1875 594.550781 746.480469 593.050781 746.230469 591.382812 L 746.054688 590.214844 L 684.808594 590.214844 C 684.738281 590.660156 684.679688 591.085938 684.632812 591.484375 " fill-opacity="1" fill-rule="nonzero"/></g><path fill="#fcfcf0" d="M 702.585938 582.011719 C 702.441406 582.011719 702.300781 581.9375 702.226562 581.804688 L 699.089844 576.324219 C 698.976562 576.125 699.046875 575.871094 699.246094 575.757812 C 699.441406 575.644531 699.695312 575.710938 699.808594 575.910156 L 702.945312 581.390625 C 703.058594 581.589844 702.992188 581.84375 702.792969 581.957031 C 702.726562 581.992188 702.65625 582.011719 702.585938 582.011719 Z M 702.585938 582.011719 " fill-opacity="1" fill-rule="nonzero"/><path fill="#fcfcf0" d="M 710.695312 580.414062 C 710.554688 580.414062 710.414062 580.339844 710.335938 580.207031 L 707.203125 574.726562 C 707.089844 574.527344 707.15625 574.273438 707.355469 574.160156 C 707.554688 574.046875 707.808594 574.117188 707.921875 574.316406 L 711.058594 579.796875 C 711.171875 579.996094 711.101562 580.246094 710.902344 580.359375 C 710.835938 580.398438 710.765625 580.414062 710.695312 580.414062 Z M 710.695312 580.414062 " fill-opacity="1" fill-rule="nonzero"/><path fill="#fcfcf0" d="M 660.15625 323.941406 C 664.902344 399.589844 677.894531 457.308594 701.742188 528.84375 C 705.859375 526.457031 741.503906 521.648438 743.773438 520.113281 C 735.386719 456.128906 718.984375 462.660156 716 439.875 C 713.355469 419.699219 727.242188 371.207031 717.921875 343.863281 C 712.511719 327.992188 684.09375 302.050781 684.09375 302.050781 C 684.09375 302.050781 668.542969 317.460938 660.15625 323.941406 " fill-opacity="1" fill-rule="nonzero"/><path fill="#fcfcf0" d="M 642.996094 325.566406 C 610.691406 394.144531 595.328125 446.324219 581.742188 520.492188 C 586.503906 520.378906 621.460938 529.09375 624.191406 528.835938 C 642.15625 482.878906 627.679688 475.457031 636.046875 454.054688 C 642.148438 438.4375 651.394531 424.3125 660.695312 410.359375 C 669.992188 396.402344 679.089844 381.894531 683.101562 365.613281 C 687.117188 349.332031 685.300781 330.765625 674.523438 317.914062 C 664 320.921875 653.472656 323.929688 642.996094 325.566406 " fill-opacity="1" fill-rule="nonzero"/><path fill="#f799c5" d="M 670.101562 395.980469 C 670.035156 395.980469 669.964844 395.960938 669.902344 395.925781 C 669.699219 395.816406 669.628906 395.5625 669.742188 395.363281 C 672.859375 389.765625 675.957031 387.179688 678.957031 384.679688 C 682 382.144531 685.148438 379.519531 688.40625 373.667969 C 692.71875 365.925781 691.316406 355.339844 691.300781 355.234375 C 691.269531 355.007812 691.429688 354.796875 691.65625 354.769531 C 691.878906 354.734375 692.089844 354.894531 692.121094 355.121094 C 692.183594 355.566406 693.582031 366.082031 689.128906 374.070312 C 685.792969 380.054688 682.585938 382.730469 679.484375 385.316406 C 676.410156 387.882812 673.503906 390.304688 670.460938 395.765625 C 670.390625 395.902344 670.25 395.980469 670.101562 395.980469 Z M 670.101562 395.980469 " fill-opacity="1" fill-rule="nonzero"/><path fill="#f5d562" d="M 579.878906 246.996094 C 583.535156 220.269531 605.128906 201.589844 647.105469 238.113281 C 668.910156 257.089844 689.886719 305.835938 715.480469 331.421875 C 699.871094 354.722656 655.628906 365.847656 624.597656 361.664062 C 629.296875 331.175781 618.191406 321.910156 603.179688 308.28125 C 590.183594 296.488281 574.96875 282.855469 579.878906 246.996094 " fill-opacity="1" fill-rule="nonzero"/><path fill="#f799c5" d="M 608.230469 310.753906 C 608.230469 310.753906 621.375 329.574219 621.871094 337.089844 C 622.429688 345.644531 579.371094 468.761719 578.933594 478.917969 C 578.515625 488.699219 619.542969 486.828125 619.542969 486.828125 C 619.542969 486.828125 673.207031 347.429688 682.695312 331.03125 C 685.789062 325.679688 702.210938 315.835938 702.210938 315.835938 C 702.210938 315.835938 699.917969 312.464844 698.832031 311.21875 C 696.203125 312.421875 684.222656 320.960938 678.582031 322.042969 C 660.601562 325.5 627.917969 315.921875 608.691406 300.125 C 608.039062 303.835938 608.230469 310.753906 608.230469 310.753906 " fill-opacity="1" fill-rule="nonzero"/><path fill="#e88772" d="M 586.394531 249.039062 L 589.234375 323.765625 L 549.136719 366.332031 L 559.207031 377.425781 C 559.207031 377.425781 610.238281 345.550781 613.738281 328.078125 C 617.730469 308.128906 614.949219 258.652344 614.949219 258.652344 Z M 586.394531 249.039062 " fill-opacity="1" fill-rule="nonzero"/><path fill="#f799c5" d="M 572.761719 338.617188 C 570.128906 338.039062 556.230469 358.632812 546.722656 364.628906 C 537.371094 370.523438 531.746094 375.871094 529.707031 382.679688 C 528.765625 385.835938 530.109375 387.171875 531.386719 387.296875 C 533.027344 387.453125 534.085938 386.546875 534.085938 386.546875 C 534.085938 386.546875 534.050781 387.628906 535.925781 388.332031 C 537.738281 389.015625 538.652344 388.382812 538.730469 388.488281 C 540.429688 390.746094 543.179688 389.539062 543.46875 389.808594 C 545.09375 391.332031 547.328125 390.898438 549.695312 389.175781 C 552.007812 387.488281 555.972656 381.585938 560.542969 378.253906 C 564.824219 375.128906 586.6875 363.148438 588.988281 359.441406 C 591.222656 355.839844 574.96875 339.105469 572.761719 338.617188 " fill-opacity="1" fill-rule="nonzero"/><path fill="#3d251c" d="M 538.855469 388.332031 C 538.800781 388.332031 538.746094 388.320312 538.691406 388.300781 C 538.480469 388.210938 538.382812 387.96875 538.472656 387.753906 L 540.023438 384.101562 C 540.113281 383.890625 540.359375 383.792969 540.570312 383.882812 C 540.78125 383.972656 540.878906 384.214844 540.789062 384.425781 L 539.238281 388.078125 C 539.167969 388.238281 539.015625 388.332031 538.855469 388.332031 Z M 538.855469 388.332031 " fill-opacity="1" fill-rule="nonzero"/><path fill="#3d251c" d="M 534.523438 386.203125 C 534.46875 386.203125 534.414062 386.191406 534.363281 386.167969 C 534.148438 386.078125 534.050781 385.835938 534.140625 385.625 L 535.695312 381.972656 C 535.785156 381.757812 536.03125 381.660156 536.238281 381.75 C 536.453125 381.839844 536.550781 382.082031 536.460938 382.296875 L 534.90625 385.949219 C 534.839844 386.109375 534.6875 386.203125 534.523438 386.203125 Z M 534.523438 386.203125 " fill-opacity="1" fill-rule="nonzero"/><path fill="#3d251c" d="M 543.628906 389.59375 C 543.546875 389.59375 543.46875 389.566406 543.398438 389.519531 C 543.207031 389.390625 543.160156 389.132812 543.289062 388.945312 L 545.511719 385.683594 C 545.640625 385.492188 545.898438 385.445312 546.085938 385.574219 C 546.277344 385.703125 546.328125 385.960938 546.199219 386.152344 L 543.972656 389.410156 C 543.890625 389.527344 543.761719 389.59375 543.628906 389.59375 Z M 543.628906 389.59375 " fill-opacity="1" fill-rule="nonzero"/><path fill="#f5d562" d="M 602.933594 230.53125 C 573.375 230.53125 578.078125 278.152344 576.277344 305.125 C 575.890625 310.886719 618.082031 311.558594 623.191406 305.125 C 622.519531 297.441406 623.132812 230.53125 602.933594 230.53125 " fill-opacity="1" fill-rule="nonzero"/><path fill="#3d251c" d="M 624.191406 305.539062 C 623.96875 305.539062 623.785156 305.363281 623.777344 305.136719 C 623.734375 303.882812 623.5 301.667969 623.199219 298.863281 C 622.128906 288.765625 620.332031 271.867188 623.832031 265.722656 C 623.945312 265.523438 624.195312 265.457031 624.394531 265.566406 C 624.59375 265.679688 624.664062 265.933594 624.550781 266.132812 C 621.183594 272.042969 622.964844 288.777344 624.027344 298.777344 C 624.324219 301.597656 624.5625 303.824219 624.605469 305.109375 C 624.613281 305.339844 624.433594 305.53125 624.207031 305.539062 C 624.203125 305.539062 624.195312 305.539062 624.191406 305.539062 Z M 624.191406 305.539062 " fill-opacity="1" fill-rule="nonzero"/><path fill="#3d251c" d="M 544.964844 184.042969 C 544.246094 191.539062 564.605469 192.167969 568.292969 192.730469 C 580.257812 194.558594 580.851562 202.613281 588.046875 208.453125 C 593.441406 212.828125 597.996094 212.347656 601.050781 207.242188 C 605.089844 200.488281 608.269531 181.769531 595.875 169.375 C 590.246094 163.75 581.453125 162.253906 573.601562 163.535156 C 565.75 164.820312 546.050781 172.710938 544.964844 184.042969 " fill-opacity="1" fill-rule="nonzero"/><path fill="#e88772" d="M 573.523438 198.355469 C 573.769531 194.417969 577.492188 187.789062 583.0625 189.53125 C 584.980469 190.136719 586.433594 191.835938 587.039062 193.753906 C 587.949219 196.644531 586.398438 208.730469 578.757812 208.445312 C 576.082031 208.347656 573.234375 202.960938 573.523438 198.355469 " fill-opacity="1" fill-rule="nonzero"/><path fill="#3d251c" d="M 576.195312 201.738281 C 576 201.738281 575.828125 201.597656 575.789062 201.398438 C 575.109375 197.753906 577.769531 193.339844 581.164062 192.488281 C 581.386719 192.425781 581.609375 192.566406 581.667969 192.785156 C 581.722656 193.007812 581.589844 193.234375 581.367188 193.289062 C 578.410156 194.035156 576.011719 198.050781 576.605469 201.246094 C 576.648438 201.472656 576.5 201.6875 576.273438 201.730469 C 576.246094 201.734375 576.222656 201.738281 576.195312 201.738281 Z M 576.195312 201.738281 " fill-opacity="1" fill-rule="nonzero"/><path fill="#f799c5" d="M 549.132812 364.335938 C 545.023438 363.023438 526.355469 370.550781 524.460938 372.960938 C 523.496094 374.191406 525.835938 376.160156 529.390625 376.160156 C 531.925781 376.160156 543.503906 375.136719 545.59375 373.5 C 547.980469 371.632812 551.6875 365.152344 549.132812 364.335938 " fill-opacity="1" fill-rule="nonzero"/><path fill="#3d251c" d="M 593.132812 207.75 C 593.679688 212.207031 595.117188 216.550781 597.335938 220.457031 C 598.433594 222.382812 599.769531 224.257812 601.652344 225.4375 C 604.964844 227.519531 609.625 226.933594 612.535156 224.316406 C 615.445312 221.703125 616.546875 217.355469 615.542969 213.574219 C 614.546875 209.789062 611.609375 206.648438 608.023438 205.074219 C 604.441406 203.5 600.289062 203.425781 596.53125 204.53125 C 595.488281 204.839844 594.441406 205.253906 593.632812 205.980469 C 592.820312 206.707031 592.277344 207.808594 593.132812 207.75 " fill-opacity="1" fill-rule="nonzero"/><path fill="#f799c5" d="M 692.976562 315.847656 C 692.976562 315.847656 693.820312 344.402344 696.964844 346.382812 C 698.621094 347.421875 703.097656 345.183594 703.097656 345.183594 C 703.097656 345.183594 708.976562 355.765625 711.914062 361.054688 C 714.449219 359.890625 716.984375 358.734375 719.515625 357.570312 C 718.683594 356.992188 706.710938 333.351562 706.710938 333.351562 L 723.621094 355.859375 L 729.183594 352.398438 L 717.988281 336.265625 C 717.988281 336.265625 722.761719 333.519531 722.183594 330.492188 C 721.203125 325.378906 713.21875 317.839844 698.140625 312.769531 C 697.523438 313.320312 692.976562 315.847656 692.976562 315.847656 " fill-opacity="1" fill-rule="nonzero"/><path fill="#e88772" d="M 234.804688 222.414062 L 227.796875 296.953125 L 233.273438 379.59375 L 214.339844 383.167969 C 214.339844 383.167969 195.53125 329.332031 195.441406 305.167969 C 195.398438 292.683594 201.269531 223.808594 201.269531 223.808594 Z M 234.804688 222.414062 " fill-opacity="1" fill-rule="nonzero"/><path fill="#e88772" d="M 192.652344 590.507812 C 192.25 590.5 197.761719 572.609375 197.175781 571.230469 C 190.046875 554.5 172.359375 495.996094 176.324219 465.550781 C 177.253906 458.425781 179.167969 451.402344 179.246094 444.210938 C 179.59375 412.820312 148.101562 387.191406 139.476562 336.65625 C 136.144531 317.136719 183.476562 296.585938 188.164062 311.414062 C 194.507812 331.480469 215.496094 400.925781 217.464844 436.054688 C 219.917969 479.914062 214.097656 531.09375 225.667969 571.570312 C 225.671875 571.570312 211.417969 590.96875 192.652344 590.507812 " fill-opacity="1" fill-rule="nonzero"/><path fill="#f5d562" d="M 192.75 591.085938 L 194.710938 577.914062 C 194.816406 577.195312 195.488281 576.710938 196.203125 576.835938 C 200.898438 577.664062 217.144531 579.667969 224.472656 569.371094 C 225.496094 567.941406 227.433594 567.507812 228.929688 568.429688 C 237.84375 573.929688 244.09375 574.109375 254.976562 577.859375 C 261.382812 580.066406 262.589844 586.558594 263.140625 591.132812 Z M 192.75 591.085938 " fill-opacity="1" fill-rule="nonzero"/><path fill="#fcfcf0" d="M 263.140625 591.132812 C 263.363281 593 261.890625 594.636719 260.007812 594.640625 L 195.871094 594.703125 C 193.945312 594.703125 192.46875 592.992188 192.75 591.085938 L 192.949219 589.753906 L 262.941406 589.683594 C 263.015625 590.191406 263.085938 590.679688 263.140625 591.132812 " fill-opacity="1" fill-rule="nonzero"/><path fill="#fcfcf0" d="M 243.074219 581.707031 C 243.023438 581.707031 242.96875 581.699219 242.921875 581.679688 C 242.707031 581.59375 242.601562 581.355469 242.683594 581.140625 L 245.148438 574.867188 C 245.230469 574.652344 245.472656 574.550781 245.6875 574.628906 C 245.898438 574.714844 246.003906 574.957031 245.921875 575.167969 L 243.460938 581.445312 C 243.394531 581.609375 243.238281 581.707031 243.074219 581.707031 Z M 243.074219 581.707031 " fill-opacity="1" fill-rule="nonzero"/><path fill="#fcfcf0" d="M 234.183594 578.953125 C 234.132812 578.953125 234.082031 578.945312 234.03125 578.925781 C 233.820312 578.84375 233.714844 578.601562 233.796875 578.386719 L 236.257812 572.113281 C 236.34375 571.898438 236.582031 571.792969 236.796875 571.878906 C 237.011719 571.960938 237.117188 572.203125 237.03125 572.417969 L 234.570312 578.691406 C 234.503906 578.855469 234.347656 578.953125 234.183594 578.953125 Z M 234.183594 578.953125 " fill-opacity="1" fill-rule="nonzero"/><path fill="#f799c5" d="M 130.179688 320.8125 C 131.984375 363.371094 177.074219 423.25 172.160156 442.007812 C 166.339844 464.226562 168.960938 508.902344 179.0625 552.507812 C 181.582031 552.71875 230.277344 540.464844 232.460938 541.019531 C 233.347656 539.300781 219.78125 473.730469 221.035156 440.277344 C 222.441406 402.800781 189.464844 300.554688 189.855469 297.28125 C 185.621094 298.449219 133.664062 319.847656 130.179688 320.8125 " fill-opacity="1" fill-rule="nonzero"/><path fill="#e88772" d="M 44.429688 569.769531 C 44.066406 569.589844 56.601562 555.679688 56.648438 554.179688 C 57.222656 536.007812 65.800781 475.492188 82.210938 449.539062 C 86.054688 443.46875 90.746094 437.902344 93.847656 431.410156 C 107.375 403.078125 89.59375 366.582031 103.039062 317.109375 C 108.230469 298.003906 159.820312 299.265625 157.832031 314.6875 C 155.136719 335.558594 144.949219 407.386719 131.949219 440.082031 C 115.714844 480.90625 88.894531 524.882812 82.351562 566.46875 C 82.351562 566.472656 61.257812 578.074219 44.429688 569.769531 " fill-opacity="1" fill-rule="nonzero"/><path fill="#f5d562" d="M 44.929688 569.867188 L 52.164062 558.679688 C 52.558594 558.070312 53.371094 557.90625 53.96875 558.316406 C 57.898438 561.011719 71.863281 569.550781 82.796875 563.210938 C 84.316406 562.328125 86.265625 562.734375 87.246094 564.195312 C 93.085938 572.890625 98.699219 575.636719 107.054688 583.546875 C 111.976562 588.207031 110.390625 594.617188 108.996094 599.007812 Z M 44.929688 569.867188 " fill-opacity="1" fill-rule="nonzero"/><g clip-path="url(#39a8d162e7)"><path fill="#fcfcf0" d="M 108.996094 599.007812 C 108.429688 600.800781 106.410156 601.683594 104.695312 600.90625 L 46.273438 574.449219 C 44.519531 573.652344 43.882812 571.484375 44.929688 569.867188 L 45.660156 568.734375 L 109.410156 597.605469 C 109.273438 598.097656 109.132812 598.574219 108.996094 599.007812 " fill-opacity="1" fill-rule="nonzero"/></g><path fill="#fcfcf0" d="M 94.800781 582.167969 C 94.691406 582.167969 94.582031 582.125 94.5 582.042969 C 94.34375 581.878906 94.347656 581.617188 94.511719 581.457031 L 99.347656 576.761719 C 99.511719 576.601562 99.773438 576.605469 99.933594 576.769531 C 100.09375 576.933594 100.089844 577.195312 99.925781 577.355469 L 95.089844 582.050781 C 95.007812 582.128906 94.902344 582.167969 94.800781 582.167969 Z M 94.800781 582.167969 " fill-opacity="1" fill-rule="nonzero"/><path fill="#fcfcf0" d="M 87.84375 575.988281 C 87.734375 575.988281 87.625 575.945312 87.546875 575.859375 C 87.386719 575.695312 87.390625 575.433594 87.554688 575.273438 L 92.390625 570.578125 C 92.554688 570.417969 92.816406 570.425781 92.976562 570.589844 C 93.136719 570.753906 93.132812 571.015625 92.96875 571.175781 L 88.132812 575.871094 C 88.050781 575.949219 87.949219 575.988281 87.84375 575.988281 Z M 87.84375 575.988281 " fill-opacity="1" fill-rule="nonzero"/><path fill="#f799c5" d="M 100.023438 299.65625 C 83.75 339.027344 100.695312 411.480469 88.34375 426.429688 C 73.710938 444.136719 72.585938 453.238281 50.484375 526.496094 C 52.679688 527.75 106.496094 543 108.246094 544.421875 C 109.773438 543.234375 118.191406 475.238281 133.410156 445.417969 C 150.460938 412.007812 163.582031 305.382812 165.3125 302.578125 C 160.976562 301.855469 101.785156 299.480469 100.023438 299.65625 " fill-opacity="1" fill-rule="nonzero"/><path fill="#fcfcf0" d="M 229.902344 192.1875 C 221.640625 178.179688 186.195312 152.574219 157.804688 160.5625 C 114.234375 172.820312 101.917969 245.691406 97.550781 290.925781 C 97.050781 296.085938 172.785156 350.800781 180.023438 327.402344 C 186.351562 306.945312 208.605469 265.617188 208.605469 265.617188 L 236.855469 271.121094 C 236.855469 271.121094 243.683594 215.539062 229.902344 192.1875 " fill-opacity="1" fill-rule="nonzero"/><path fill="#f5d562" d="M 98.71875 303.097656 L 99.625 289.578125 C 99.625 289.578125 165.007812 206.339844 164.808594 205.316406 C 164.523438 203.835938 219.792969 222.527344 220.25 224.875 C 220.847656 227.949219 196.226562 296.886719 197.453125 308.800781 C 198.933594 323.140625 226.203125 389.761719 232.460938 424.574219 C 177.148438 425.25 125.5625 420.476562 123.6875 420.476562 C 126.492188 333.703125 98.71875 303.097656 98.71875 303.097656 " fill-opacity="1" fill-rule="nonzero"/><path fill="#e88772" d="M 214.285156 383.671875 C 207.261719 357.800781 196.09375 312.980469 197.480469 306.351562 C 198.609375 300.945312 222.117188 290.4375 226.28125 305.742188 C 229.070312 315.988281 229.191406 352.925781 231.25 375.421875 C 226.835938 378.457031 222.417969 381.496094 214.285156 383.671875 " fill-opacity="1" fill-rule="nonzero"/><path fill="#fcfcf0" d="M 202.5625 346.824219 C 201.765625 351.015625 208.777344 372.210938 212.253906 384.914062 C 208.507812 391.871094 212.441406 398.929688 208.1875 404.257812 C 206.292969 406.628906 217.96875 423.179688 220.78125 424.460938 C 224.316406 426.066406 227.976562 416.636719 230.351562 409.121094 C 232.746094 401.523438 232.601562 389.941406 233.035156 383.433594 C 233.464844 377.023438 235.761719 342.28125 234.804688 340.347656 C 233.550781 337.8125 203.277344 343.074219 202.5625 346.824219 " fill-opacity="1" fill-rule="nonzero"/><path fill="#3d251c" d="M 325.578125 544.421875 C 324.652344 544.421875 323.734375 544.039062 323.078125 543.289062 L 81.023438 266.722656 C 79.816406 265.34375 79.957031 263.246094 81.339844 262.039062 C 82.71875 260.832031 84.816406 260.972656 86.023438 262.351562 L 328.078125 538.914062 C 329.285156 540.296875 329.144531 542.390625 327.765625 543.601562 C 327.132812 544.152344 326.355469 544.421875 325.578125 544.421875 Z M 325.578125 544.421875 " fill-opacity="1" fill-rule="nonzero"/><path fill="#e88772" d="M 149.4375 191.28125 L 105.277344 242.710938 L 135.464844 309.550781 L 113.277344 314.921875 C 113.277344 314.921875 64.664062 252.921875 68.863281 235.65625 C 71.554688 224.613281 123.339844 172.734375 123.339844 172.734375 Z M 149.4375 191.28125 " fill-opacity="1" fill-rule="nonzero"/><path fill="#fcfcf0" d="M 119.207031 273.953125 C 122.269531 274.539062 131.863281 293.214844 138.398438 304.386719 C 144.503906 314.832031 158.691406 338.253906 164.496094 350.695312 C 165.925781 353.757812 162.121094 355.28125 159.925781 351.980469 C 156.75 347.210938 150.226562 339.226562 149.320312 336.847656 C 148.804688 337.914062 148.125 342.585938 144.9375 343.714844 C 141.734375 344.851562 139.78125 343.265625 139.644531 343.34375 C 136.808594 344.972656 134.4375 342.433594 134.003906 342.589844 C 131.582031 343.472656 127.90625 342.101562 126.113281 337.972656 C 124.792969 334.933594 120.800781 323.722656 118.792969 321.832031 C 113.875 317.203125 91.207031 298.617188 91.121094 295.769531 C 90.972656 290.867188 116.636719 273.464844 119.207031 273.953125 " fill-opacity="1" fill-rule="nonzero"/><path fill="#3d251c" d="M 139.597656 342.84375 C 139.371094 342.84375 139.1875 342.664062 139.183594 342.441406 L 139.058594 336.664062 C 139.054688 336.4375 139.238281 336.246094 139.464844 336.242188 C 139.46875 336.242188 139.472656 336.242188 139.472656 336.242188 C 139.699219 336.242188 139.882812 336.421875 139.890625 336.648438 L 140.011719 342.421875 C 140.015625 342.648438 139.832031 342.839844 139.605469 342.84375 C 139.601562 342.84375 139.601562 342.84375 139.597656 342.84375 Z M 139.597656 342.84375 " fill-opacity="1" fill-rule="nonzero"/><path fill="#3d251c" d="M 134.074219 342.046875 C 133.878906 342.046875 133.707031 341.90625 133.667969 341.710938 L 132.699219 336.628906 C 132.65625 336.402344 132.804688 336.1875 133.03125 336.140625 C 133.257812 336.101562 133.472656 336.246094 133.515625 336.472656 L 134.484375 341.554688 C 134.527344 341.78125 134.378906 341.996094 134.152344 342.039062 C 134.125 342.046875 134.101562 342.046875 134.074219 342.046875 Z M 134.074219 342.046875 " fill-opacity="1" fill-rule="nonzero"/><path fill="#fcfcf0" d="M 125.523438 232.601562 C 125.523438 232.601562 99.75 207.894531 89.832031 195.09375 C 108.941406 178.410156 123.710938 166.585938 152.074219 159.050781 C 168.894531 154.582031 188.316406 159.960938 197.363281 166.109375 C 172.914062 187.441406 125.523438 232.601562 125.523438 232.601562 " fill-opacity="1" fill-rule="nonzero"/><path fill="#3d251c" d="M 260.457031 140.726562 C 262.789062 133.515625 261.808594 119.25 247.960938 110.5625 C 236.335938 103.269531 225.835938 100.828125 214.347656 107.601562 C 192.394531 120.542969 193.777344 147.761719 206.007812 157.160156 C 221.351562 168.957031 252.652344 164.890625 260.457031 140.726562 " fill-opacity="1" fill-rule="nonzero"/><path fill="#e88772" d="M 222.742188 163.832031 C 221.777344 165.9375 210.601562 183.59375 206.703125 195.183594 C 205.332031 194.457031 193.148438 176.167969 187.585938 166.738281 C 196.285156 158.675781 201.277344 153.730469 205.222656 141.652344 C 205.488281 143.609375 215.761719 157.828125 222.742188 163.832031 " fill-opacity="1" fill-rule="nonzero"/><path fill="#e88772" d="M 248.074219 159.207031 C 251.339844 152.117188 257.554688 145.484375 255.839844 135.875 C 252.664062 118.078125 230.648438 109.742188 218.640625 118.890625 C 211.152344 124.589844 203.84375 138.050781 204.652344 149.378906 C 205.386719 159.660156 216.292969 176.738281 225.96875 177.578125 C 232.835938 178.175781 242.175781 172.003906 248.074219 159.207031 " fill-opacity="1" fill-rule="nonzero"/><path fill="#3d251c" d="M 231.914062 141.683594 C 232.859375 142.378906 232.351562 143.984375 231.835938 144.875 C 231.460938 145.527344 230.503906 146.824219 229.269531 146.242188 C 228.324219 145.796875 228.3125 144.488281 229.339844 142.859375 C 230.386719 141.207031 231.539062 141.410156 231.914062 141.683594 " fill-opacity="1" fill-rule="nonzero"/><path fill="#3d251c" d="M 229.890625 146.804688 C 229.621094 146.804688 229.355469 146.746094 229.09375 146.621094 C 228.660156 146.417969 228.363281 146.066406 228.230469 145.609375 C 228 144.828125 228.273438 143.773438 228.988281 142.640625 C 229.84375 141.289062 230.78125 141.085938 231.265625 141.085938 C 231.601562 141.085938 231.929688 141.183594 232.160156 141.351562 C 233.375 142.242188 232.753906 144.113281 232.195312 145.085938 C 231.898438 145.601562 231.074219 146.804688 229.890625 146.804688 Z M 231.265625 141.914062 C 230.953125 141.914062 230.335938 142.066406 229.691406 143.082031 C 229.109375 144 228.867188 144.835938 229.027344 145.375 C 229.09375 145.605469 229.230469 145.769531 229.445312 145.867188 C 229.597656 145.941406 229.742188 145.976562 229.890625 145.976562 C 230.664062 145.976562 231.300781 144.976562 231.476562 144.667969 C 231.933594 143.878906 232.355469 142.523438 231.667969 142.019531 C 231.601562 141.972656 231.457031 141.914062 231.265625 141.914062 Z M 231.265625 141.914062 " fill-opacity="1" fill-rule="nonzero"/><path fill="#e88772" d="M 234.175781 144.992188 C 231.832031 144.777344 228.011719 142.375 226.355469 140.601562 C 226.355469 140.601562 229.40625 138.636719 232.464844 140.53125 C 235.164062 142.203125 234.175781 144.992188 234.175781 144.992188 " fill-opacity="1" fill-rule="nonzero"/><path fill="#3d251c" d="M 234.179688 145.40625 C 234.164062 145.40625 234.152344 145.40625 234.136719 145.40625 C 231.753906 145.183594 227.835938 142.792969 226.050781 140.882812 C 225.894531 140.714844 225.90625 140.453125 226.070312 140.296875 C 226.238281 140.140625 226.503906 140.148438 226.660156 140.316406 C 228.304688 142.082031 232.042969 144.378906 234.214844 144.578125 C 234.441406 144.597656 234.609375 144.800781 234.589844 145.03125 C 234.570312 145.246094 234.390625 145.40625 234.179688 145.40625 Z M 234.179688 145.40625 " fill-opacity="1" fill-rule="nonzero"/><path fill="#3d251c" d="M 227.460938 136.097656 C 227.003906 136.128906 226.933594 136.738281 227.363281 136.925781 C 232.765625 139.25 236 142.667969 236.679688 142.890625 C 237.230469 143.070312 237.992188 141.074219 237.460938 140.496094 C 233.972656 136.714844 230.023438 135.917969 227.460938 136.097656 " fill-opacity="1" fill-rule="nonzero"/><path fill="#3d251c" d="M 246.144531 149.703125 C 245.058594 149.253906 243.953125 150.519531 243.453125 151.421875 C 243.089844 152.082031 242.476562 153.570312 243.613281 154.328125 C 244.480469 154.902344 245.609375 154.238281 246.472656 152.515625 C 247.34375 150.761719 246.574219 149.882812 246.144531 149.703125 " fill-opacity="1" fill-rule="nonzero"/><path fill="#3d251c" d="M 244.265625 154.945312 C 243.953125 154.945312 243.65625 154.851562 243.382812 154.671875 C 242.375 154 242.265625 152.710938 243.09375 151.21875 C 243.605469 150.285156 244.59375 149.195312 245.679688 149.195312 C 245.894531 149.195312 246.105469 149.234375 246.304688 149.320312 C 246.671875 149.472656 246.988281 149.828125 247.152344 150.273438 C 247.328125 150.746094 247.417969 151.550781 246.84375 152.699219 C 246.128906 154.125 245.191406 154.945312 244.265625 154.945312 Z M 245.679688 150.023438 C 245.003906 150.023438 244.242188 150.851562 243.820312 151.621094 C 243.535156 152.136719 242.964844 153.398438 243.84375 153.980469 C 244.507812 154.421875 245.410156 153.710938 246.101562 152.328125 C 246.539062 151.445312 246.492188 150.878906 246.371094 150.5625 C 246.265625 150.269531 246.074219 150.121094 245.984375 150.085938 C 245.886719 150.042969 245.785156 150.023438 245.679688 150.023438 Z M 245.679688 150.023438 " fill-opacity="1" fill-rule="nonzero"/><path fill="#e88772" d="M 242.144531 149.480469 C 243.542969 151.375 247.578125 153.398438 249.953125 153.894531 C 249.953125 153.894531 250.050781 150.269531 246.847656 148.632812 C 244.019531 147.191406 242.144531 149.480469 242.144531 149.480469 " fill-opacity="1" fill-rule="nonzero"/><path fill="#3d251c" d="M 249.953125 154.308594 C 249.925781 154.308594 249.894531 154.304688 249.867188 154.300781 C 247.308594 153.765625 243.230469 151.652344 241.8125 149.726562 C 241.675781 149.542969 241.714844 149.28125 241.898438 149.148438 C 242.082031 149.011719 242.339844 149.050781 242.480469 149.234375 C 243.773438 150.984375 247.671875 152.992188 250.039062 153.488281 C 250.261719 153.535156 250.40625 153.753906 250.359375 153.980469 C 250.316406 154.175781 250.144531 154.308594 249.953125 154.308594 Z M 249.953125 154.308594 " fill-opacity="1" fill-rule="nonzero"/><path fill="#3d251c" d="M 253.234375 150.617188 C 253.445312 151.023438 252.957031 151.402344 252.574219 151.128906 C 247.789062 147.714844 243.1875 146.71875 242.644531 146.25 C 242.207031 145.871094 243.523438 144.1875 244.292969 144.34375 C 249.335938 145.367188 252.058594 148.335938 253.234375 150.617188 " fill-opacity="1" fill-rule="nonzero"/><path fill="#3d251c" d="M 236.5625 160.609375 C 235.308594 160.609375 234.214844 160.449219 233.964844 160.40625 C 233.738281 160.371094 233.585938 160.160156 233.617188 159.933594 C 233.65625 159.707031 233.875 159.550781 234.09375 159.585938 C 236.039062 159.894531 239.34375 159.945312 239.953125 158.773438 C 240.433594 157.847656 240.132812 155.335938 239.808594 152.675781 C 239.636719 151.238281 239.457031 149.753906 239.359375 148.273438 C 239.347656 148.046875 239.519531 147.851562 239.746094 147.835938 C 239.953125 147.816406 240.171875 147.992188 240.1875 148.222656 C 240.285156 149.675781 240.460938 151.148438 240.632812 152.574219 C 241 155.609375 241.289062 158.003906 240.6875 159.152344 C 240.074219 160.335938 238.1875 160.609375 236.5625 160.609375 Z M 236.5625 160.609375 " fill-opacity="1" fill-rule="nonzero"/><path fill="#3d251c" d="M 234.671875 166.921875 C 234.648438 166.921875 234.625 166.921875 234.601562 166.914062 C 230.152344 166.1875 226.21875 163.191406 224.332031 159.097656 C 224.238281 158.890625 224.328125 158.644531 224.539062 158.550781 C 224.742188 158.453125 224.992188 158.542969 225.085938 158.753906 C 226.859375 162.597656 230.554688 165.414062 234.738281 166.097656 C 234.960938 166.132812 235.117188 166.347656 235.078125 166.574219 C 235.046875 166.777344 234.871094 166.921875 234.671875 166.921875 Z M 234.671875 166.921875 " fill-opacity="1" fill-rule="nonzero"/><path fill="#fcfcf0" d="M 216.824219 394.933594 C 211.910156 399.300781 215.492188 407.644531 220.804688 412.546875 C 219.910156 419.535156 220.957031 427.246094 223.871094 427.160156 C 228.144531 427.03125 230.171875 408.96875 226.5 392.914062 C 225.90625 390.320312 219.828125 392.265625 216.824219 394.933594 " fill-opacity="1" fill-rule="nonzero"/><path fill="#3d251c" d="M 220.28125 421.917969 C 220.074219 421.917969 219.894531 421.761719 219.871094 421.550781 C 219.808594 420.992188 219.761719 420.386719 219.714844 419.738281 C 219.484375 416.648438 219.195312 412.800781 216.582031 408.542969 C 214.703125 405.484375 215.363281 399.179688 216.636719 396.179688 C 216.726562 395.96875 216.96875 395.871094 217.183594 395.960938 C 217.394531 396.050781 217.492188 396.296875 217.402344 396.507812 C 216.058594 399.65625 215.707031 405.535156 217.289062 408.109375 C 220.007812 412.539062 220.316406 416.664062 220.542969 419.671875 C 220.589844 420.3125 220.632812 420.90625 220.695312 421.453125 C 220.71875 421.683594 220.558594 421.886719 220.328125 421.914062 C 220.316406 421.917969 220.296875 421.917969 220.28125 421.917969 Z M 220.28125 421.917969 " fill-opacity="1" fill-rule="nonzero"/><path fill="#f799c5" d="M 321.789062 546.277344 L 305.855469 528.074219 C 303.609375 525.511719 303.871094 521.617188 306.433594 519.375 L 307.460938 518.472656 C 310.027344 516.234375 313.921875 516.492188 316.164062 519.054688 L 332.101562 537.261719 C 334.34375 539.824219 334.082031 543.71875 331.519531 545.960938 L 330.488281 546.859375 C 327.925781 549.101562 324.03125 548.84375 321.789062 546.277344 " fill-opacity="1" fill-rule="nonzero"/><path fill="#fcfcf0" d="M 328.898438 594.703125 C 328.898438 594.703125 322.859375 583.90625 309.097656 549.402344 C 300.0625 526.746094 331.515625 518.730469 348.082031 535.292969 C 368.875 556.074219 409.980469 594.703125 409.980469 594.703125 Z M 328.898438 594.703125 " fill-opacity="1" fill-rule="nonzero"/><path fill="#f5d562" d="M 163.269531 207.597656 C 169.074219 192.058594 170.089844 173.382812 165.605469 157.40625 C 165.640625 157.277344 172.183594 157.71875 172.238281 157.785156 C 176.804688 174.046875 176.3125 192.238281 170.015625 209.085938 C 169.554688 208.839844 164.117188 208.011719 163.269531 207.597656 " fill-opacity="1" fill-rule="nonzero"/><path fill="#f5d562" d="M 211.929688 227.246094 C 219.066406 212.273438 221.238281 195.6875 218.160156 179.378906 C 218.1875 179.304688 220.523438 181.246094 222.371094 183.003906 C 223.578125 184.152344 224.578125 185.363281 224.597656 185.390625 C 227.730469 201.988281 225.332031 211.082031 219.164062 229.679688 C 218.726562 229.394531 212.738281 227.734375 211.929688 227.246094 " fill-opacity="1" fill-rule="nonzero"/><path fill="#f799c5" d="M 125.847656 230.484375 C 125.765625 230.484375 125.6875 230.460938 125.613281 230.414062 C 125.425781 230.285156 125.378906 230.027344 125.507812 229.839844 C 132.320312 219.867188 140.457031 210.859375 149.691406 203.070312 C 149.867188 202.921875 150.128906 202.941406 150.277344 203.117188 C 150.425781 203.292969 150.402344 203.554688 150.226562 203.703125 C 141.050781 211.445312 132.964844 220.394531 126.195312 230.308594 C 126.113281 230.421875 125.980469 230.484375 125.847656 230.484375 Z M 125.847656 230.484375 " fill-opacity="1" fill-rule="nonzero"/><path fill="#fcfcf0" d="M 220.292969 426.03125 C 219.5625 427.605469 217.472656 428.375 215.835938 427.671875 C 214.199219 426.964844 213.546875 424.585938 213.878906 423.273438 C 212.867188 423.660156 211.464844 423.800781 210.265625 422.980469 C 209.066406 422.15625 208.148438 420.652344 208.359375 419.488281 C 207.628906 419.722656 206.5 419.683594 205.65625 419.074219 C 204.8125 418.46875 204.132812 417.183594 204.109375 416.441406 C 203.398438 416.46875 201.988281 415.933594 201.4375 415.042969 C 199.882812 412.546875 199.316406 404.070312 201.761719 403.859375 C 203.375 403.71875 205.070312 406.097656 206.089844 410.152344 C 206.824219 408.5 208.871094 404.804688 210.785156 405.242188 C 213.140625 405.785156 212.519531 409.097656 212.625 409.433594 C 212.851562 409.136719 213.746094 407.644531 215.238281 407.644531 C 217.921875 407.644531 218.242188 411.28125 218.242188 412.4375 C 218.636719 411.609375 220.164062 410.261719 221.761719 411.175781 C 224.625 412.8125 223.035156 420.136719 220.292969 426.03125 " fill-opacity="1" fill-rule="nonzero"/><path fill="#3d251c" d="M 221.324219 423.226562 C 221.304688 423.226562 221.28125 423.226562 221.261719 423.222656 C 221.035156 423.1875 220.878906 422.976562 220.914062 422.75 C 221.316406 420.097656 221.660156 417.445312 221.996094 414.882812 C 222.085938 414.171875 222.195312 413.371094 222.003906 412.664062 C 221.851562 412.101562 221.394531 411.457031 220.75 411.375 C 220.148438 411.289062 219.496094 411.699219 218.765625 412.597656 C 216.480469 415.414062 215.054688 418.957031 214.753906 422.570312 C 214.734375 422.796875 214.527344 422.964844 214.304688 422.949219 C 214.078125 422.929688 213.90625 422.726562 213.925781 422.5 C 214.242188 418.722656 215.730469 415.019531 218.121094 412.074219 C 219.046875 410.933594 219.953125 410.441406 220.855469 410.550781 C 221.882812 410.679688 222.574219 411.597656 222.804688 412.449219 C 223.039062 413.316406 222.921875 414.203125 222.820312 414.988281 C 222.484375 417.558594 222.136719 420.214844 221.734375 422.875 C 221.703125 423.078125 221.527344 423.226562 221.324219 423.226562 Z M 221.324219 423.226562 " fill-opacity="1" fill-rule="nonzero"/><path fill="#3d251c" d="M 208.878906 419.378906 C 208.875 419.378906 208.875 419.378906 208.871094 419.378906 C 208.644531 419.375 208.460938 419.1875 208.460938 418.957031 C 208.515625 415.207031 210.039062 411.507812 212.640625 408.804688 C 213.789062 407.617188 214.910156 407.097656 215.976562 407.257812 C 217.210938 407.449219 218.003906 408.496094 218.335938 409.414062 C 218.679688 410.367188 218.683594 411.351562 218.65625 412.449219 C 218.648438 412.675781 218.472656 412.878906 218.230469 412.851562 C 218 412.847656 217.820312 412.65625 217.824219 412.425781 C 217.851562 411.414062 217.847656 410.511719 217.558594 409.699219 C 217.242188 408.824219 216.574219 408.191406 215.851562 408.078125 C 215.058594 407.953125 214.1875 408.398438 213.242188 409.382812 C 210.78125 411.933594 209.34375 415.429688 209.292969 418.96875 C 209.289062 419.195312 209.105469 419.378906 208.878906 419.378906 Z M 208.878906 419.378906 " fill-opacity="1" fill-rule="nonzero"/><path fill="#3d251c" d="M 204.632812 416.308594 C 204.609375 416.308594 204.589844 416.308594 204.566406 416.304688 C 204.339844 416.269531 204.183594 416.054688 204.222656 415.828125 C 205.1875 409.714844 206.75 407.566406 208.292969 406.15625 C 210.109375 404.496094 211.261719 404.671875 211.902344 405.109375 C 213.203125 405.988281 213.246094 408.511719 212.710938 409.929688 C 212.628906 410.144531 212.386719 410.25 212.175781 410.171875 C 211.960938 410.089844 211.851562 409.851562 211.933594 409.636719 C 212.410156 408.382812 212.273438 406.363281 211.4375 405.796875 C 210.675781 405.28125 209.492188 406.183594 208.851562 406.769531 C 207.417969 408.078125 205.964844 410.097656 205.042969 415.957031 C 205.011719 416.164062 204.832031 416.308594 204.632812 416.308594 Z M 204.632812 416.308594 " fill-opacity="1" fill-rule="nonzero"/><path fill="#f5d562" d="M 381.3125 593.808594 C 381.199219 593.808594 381.089844 593.765625 381.007812 593.679688 L 351.738281 562.554688 C 351.582031 562.386719 351.589844 562.125 351.757812 561.96875 C 351.925781 561.808594 352.1875 561.820312 352.34375 561.984375 L 381.613281 593.109375 C 381.773438 593.277344 381.761719 593.539062 381.597656 593.699219 C 381.515625 593.773438 381.414062 593.808594 381.3125 593.808594 Z M 381.3125 593.808594 " fill-opacity="1" fill-rule="nonzero"/><path fill="#f5d562" d="M 355.15625 593.808594 C 355.027344 593.808594 354.898438 593.75 354.816406 593.632812 L 323.679688 549.644531 C 323.546875 549.457031 323.59375 549.195312 323.777344 549.066406 C 323.964844 548.933594 324.226562 548.976562 324.355469 549.164062 L 355.496094 593.15625 C 355.625 593.339844 355.582031 593.601562 355.398438 593.734375 C 355.324219 593.785156 355.238281 593.808594 355.15625 593.808594 Z M 355.15625 593.808594 " fill-opacity="1" fill-rule="nonzero"/><path fill="#3d251c" d="M 250.402344 119.53125 C 248.929688 124.441406 244.386719 127.855469 239.640625 129.804688 C 234.894531 131.75 229.765625 132.582031 224.957031 134.371094 C 220.152344 136.164062 220.859375 146.074219 216.777344 143.773438 C 213.933594 142.171875 217.15625 137.78125 215.933594 133.609375 C 215.011719 130.476562 210.324219 128.269531 207.066406 128.472656 C 210.441406 120.003906 218.285156 113.464844 227.226562 111.667969 C 236.171875 109.875 245.933594 112.878906 250.402344 119.53125 " fill-opacity="1" fill-rule="nonzero"/><path fill="#e88772" d="M 216.046875 137.785156 C 216.78125 133.910156 214.816406 126.566406 208.988281 126.878906 C 206.980469 126.988281 205.148438 128.277344 204.089844 129.988281 C 202.492188 132.5625 201.003906 144.65625 208.480469 146.269531 C 211.097656 146.835938 215.1875 142.316406 216.046875 137.785156 " fill-opacity="1" fill-rule="nonzero"/><path fill="#3d251c" d="M 212.722656 140.414062 C 212.664062 140.414062 212.605469 140.402344 212.546875 140.375 C 212.339844 140.28125 212.25 140.03125 212.347656 139.824219 C 213.714844 136.875 212.378906 132.390625 209.703125 130.9375 C 209.5 130.828125 209.425781 130.578125 209.535156 130.375 C 209.644531 130.175781 209.898438 130.101562 210.097656 130.210938 C 213.171875 131.875 214.660156 136.8125 213.101562 140.171875 C 213.03125 140.328125 212.878906 140.414062 212.722656 140.414062 Z M 212.722656 140.414062 " fill-opacity="1" fill-rule="nonzero"/><path fill="#3d251c" d="M 244.914062 120.859375 C 245.511719 123.566406 244.6875 126.445312 243.171875 128.765625 C 241.65625 131.085938 239.503906 132.914062 237.261719 134.542969 C 236.527344 135.074219 235.679688 135.863281 235.972656 136.722656 C 236.199219 137.378906 236.980469 137.640625 237.664062 137.777344 C 243.226562 138.902344 249.199219 137.859375 254.050781 134.914062 C 255.550781 134.003906 257.015625 132.828125 257.613281 131.179688 C 258.351562 129.148438 257.558594 126.789062 256.070312 125.21875 C 254.582031 123.65625 252.507812 122.769531 250.417969 122.21875 C 248.328125 121.667969 246.171875 121.402344 244.914062 120.859375 " fill-opacity="1" fill-rule="nonzero"/><g fill="#2ec4b6" fill-opacity="1"><g transform="translate(316.338461, 77.722015)"><g><path d="M 17.71875 0.59375 C 14.882812 0.59375 12.363281 0.238281 10.15625 -0.46875 C 7.945312 -1.175781 5.878906 -2.378906 3.953125 -4.078125 C 2.890625 -5.015625 2.359375 -6.054688 2.359375 -7.203125 C 2.359375 -8.109375 2.691406 -8.90625 3.359375 -9.59375 C 4.035156 -10.28125 4.84375 -10.625 5.78125 -10.625 C 6.53125 -10.625 7.203125 -10.390625 7.796875 -9.921875 C 9.367188 -8.617188 10.898438 -7.671875 12.390625 -7.078125 C 13.890625 -6.492188 15.664062 -6.203125 17.71875 -6.203125 C 19.914062 -6.203125 21.8125 -6.691406 23.40625 -7.671875 C 25 -8.660156 25.796875 -9.882812 25.796875 -11.34375 C 25.796875 -13.113281 25.007812 -14.5 23.4375 -15.5 C 21.863281 -16.5 19.363281 -17.253906 15.9375 -17.765625 C 7.320312 -19.023438 3.015625 -23.039062 3.015625 -29.8125 C 3.015625 -32.289062 3.660156 -34.445312 4.953125 -36.28125 C 6.253906 -38.113281 8.023438 -39.507812 10.265625 -40.46875 C 12.515625 -41.4375 15.015625 -41.921875 17.765625 -41.921875 C 20.253906 -41.921875 22.585938 -41.546875 24.765625 -40.796875 C 26.953125 -40.046875 28.773438 -39.0625 30.234375 -37.84375 C 31.367188 -36.9375 31.9375 -35.894531 31.9375 -34.71875 C 31.9375 -33.8125 31.601562 -33.015625 30.9375 -32.328125 C 30.269531 -31.640625 29.484375 -31.296875 28.578125 -31.296875 C 27.984375 -31.296875 27.453125 -31.472656 26.984375 -31.828125 C 25.960938 -32.648438 24.535156 -33.40625 22.703125 -34.09375 C 20.867188 -34.789062 19.222656 -35.140625 17.765625 -35.140625 C 15.285156 -35.140625 13.367188 -34.675781 12.015625 -33.75 C 10.660156 -32.820312 9.984375 -31.609375 9.984375 -30.109375 C 9.984375 -28.421875 10.679688 -27.144531 12.078125 -26.28125 C 13.472656 -25.414062 15.664062 -24.707031 18.65625 -24.15625 C 22.039062 -23.5625 24.742188 -22.800781 26.765625 -21.875 C 28.796875 -20.945312 30.320312 -19.6875 31.34375 -18.09375 C 32.375 -16.5 32.890625 -14.382812 32.890625 -11.75 C 32.890625 -9.269531 32.191406 -7.09375 30.796875 -5.21875 C 29.398438 -3.351562 27.539062 -1.914062 25.21875 -0.90625 C 22.894531 0.09375 20.394531 0.59375 17.71875 0.59375 Z M 17.71875 0.59375 "/></g></g></g><g fill="#2ec4b6" fill-opacity="1"><g transform="translate(356.187936, 77.722015)"><g><path d="M 36.84375 -4.609375 C 37.039062 -4.097656 37.140625 -3.625 37.140625 -3.1875 C 37.140625 -2.164062 36.804688 -1.328125 36.140625 -0.671875 C 35.472656 -0.0234375 34.703125 0.296875 33.828125 0.296875 C 33.117188 0.296875 32.476562 0.0820312 31.90625 -0.34375 C 31.34375 -0.78125 30.90625 -1.375 30.59375 -2.125 L 27.515625 -9.265625 L 9.921875 -9.265625 L 6.84375 -2.0625 C 6.570312 -1.3125 6.148438 -0.726562 5.578125 -0.3125 C 5.003906 0.09375 4.382812 0.296875 3.71875 0.296875 C 2.695312 0.296875 1.921875 0.0195312 1.390625 -0.53125 C 0.859375 -1.082031 0.59375 -1.832031 0.59375 -2.78125 C 0.59375 -3.132812 0.648438 -3.503906 0.765625 -3.890625 L 15.46875 -39.203125 C 15.78125 -39.992188 16.25 -40.601562 16.875 -41.03125 C 17.507812 -41.46875 18.222656 -41.644531 19.015625 -41.5625 C 19.722656 -41.5625 20.378906 -41.351562 20.984375 -40.9375 C 21.597656 -40.53125 22.039062 -39.953125 22.3125 -39.203125 Z M 12.8125 -16.0625 L 24.625 -16.0625 L 18.65625 -29.875 Z M 12.8125 -16.0625 "/></g></g></g><g fill="#2ec4b6" fill-opacity="1"><g transform="translate(398.516885, 77.722015)"><g><path d="M 27.21875 -6.90625 C 28.238281 -6.90625 29.09375 -6.578125 29.78125 -5.921875 C 30.476562 -5.273438 30.828125 -4.441406 30.828125 -3.421875 C 30.828125 -2.441406 30.476562 -1.625 29.78125 -0.96875 C 29.09375 -0.320312 28.238281 0 27.21875 0 L 8.03125 0 C 7.007812 0 6.148438 -0.34375 5.453125 -1.03125 C 4.765625 -1.71875 4.421875 -2.578125 4.421875 -3.609375 L 4.421875 -37.734375 C 4.421875 -38.753906 4.773438 -39.609375 5.484375 -40.296875 C 6.191406 -40.984375 7.097656 -41.328125 8.203125 -41.328125 C 9.191406 -41.328125 10.039062 -40.984375 10.75 -40.296875 C 11.457031 -39.609375 11.8125 -38.753906 11.8125 -37.734375 L 11.8125 -6.90625 Z M 27.21875 -6.90625 "/></g></g></g><g fill="#2ec4b6" fill-opacity="1"><g transform="translate(436.300134, 77.722015)"><g><path d="M 36.84375 -4.609375 C 37.039062 -4.097656 37.140625 -3.625 37.140625 -3.1875 C 37.140625 -2.164062 36.804688 -1.328125 36.140625 -0.671875 C 35.472656 -0.0234375 34.703125 0.296875 33.828125 0.296875 C 33.117188 0.296875 32.476562 0.0820312 31.90625 -0.34375 C 31.34375 -0.78125 30.90625 -1.375 30.59375 -2.125 L 27.515625 -9.265625 L 9.921875 -9.265625 L 6.84375 -2.0625 C 6.570312 -1.3125 6.148438 -0.726562 5.578125 -0.3125 C 5.003906 0.09375 4.382812 0.296875 3.71875 0.296875 C 2.695312 0.296875 1.921875 0.0195312 1.390625 -0.53125 C 0.859375 -1.082031 0.59375 -1.832031 0.59375 -2.78125 C 0.59375 -3.132812 0.648438 -3.503906 0.765625 -3.890625 L 15.46875 -39.203125 C 15.78125 -39.992188 16.25 -40.601562 16.875 -41.03125 C 17.507812 -41.46875 18.222656 -41.644531 19.015625 -41.5625 C 19.722656 -41.5625 20.378906 -41.351562 20.984375 -40.9375 C 21.597656 -40.53125 22.039062 -39.953125 22.3125 -39.203125 Z M 12.8125 -16.0625 L 24.625 -16.0625 L 18.65625 -29.875 Z M 12.8125 -16.0625 "/></g></g></g></svg>